<svg width="152" height="51" viewBox="0 0 152 51" fill="none" xmlns="http://www.w3.org/2000/svg">
<g clip-path="url(#clip0_1_103)">
<path d="M29.6722 39.7217C29.6722 39.7604 29.6569 39.7974 29.6295 39.8247C29.6021 39.8521 29.5649 39.8674 29.5262 39.8674H6.24638C4.63529 39.8674 3.09018 39.2288 1.95097 38.092C0.811756 36.9552 0.171753 35.4134 0.171753 33.8057V6.17829C0.171753 4.5397 0.824064 2.96823 1.98519 1.80958C3.14631 0.650925 4.72113 0 6.3632 0V33.7474H23.6852C25.2731 33.7474 26.7959 34.3769 27.9187 35.4973C29.0415 36.6177 29.6722 38.1372 29.6722 39.7217Z" fill="white"/>
<path d="M29.6722 39.7217C29.6722 39.7604 29.6568 39.7974 29.6294 39.8248C29.6021 39.8521 29.5649 39.8674 29.5262 39.8674H12.9518C11.2889 39.8675 9.68874 39.2342 8.47794 38.0968C7.26715 36.9594 6.53707 35.4038 6.43677 33.7474H23.6852C25.2731 33.7474 26.7959 34.3769 27.9187 35.4973C29.0414 36.6177 29.6722 38.1372 29.6722 39.7217Z" fill="white"/>
<path d="M40.8963 23.0229C40.8963 24.0067 40.8881 25.085 40.8834 26.2286C40.8682 30.3342 40.8519 35.2885 40.8378 39.8196C40.832 41.6008 40.8262 43.3168 40.8203 44.887C40.8151 46.5097 40.1656 48.0641 39.0141 49.2099C37.8625 50.3557 36.3029 50.9994 34.6768 51H6.19145C5.37837 51 4.57326 50.8402 3.82208 50.5297C3.0709 50.2192 2.38836 49.7641 1.81343 49.1904C1.2385 48.6167 0.782445 47.9356 0.471296 47.186C0.160146 46.4365 0 45.6331 0 44.8217H34.5237L34.5424 29.3562C34.5443 27.6758 35.2145 26.0649 36.4059 24.8774C37.5973 23.6899 39.2123 23.0229 40.8963 23.0229Z" fill="white"/>
<path d="M40.8869 26.2286C40.8717 30.3342 40.8553 35.2885 40.8413 39.8196C40.5085 41.2589 39.6964 42.543 38.5377 43.4622C37.3789 44.3813 35.942 44.8812 34.4618 44.88V44.8217H34.5237L34.5424 29.3562C34.5417 28.2594 34.8276 27.1814 35.3718 26.2286H40.8869Z" fill="white"/>
<path d="M41.0038 0.356705C41.0038 0.913916 40.9956 3.19755 40.9816 6.528V6.64457C40.9757 7.83243 40.971 9.15085 40.9652 10.5695C40.957 12.233 40.9488 14.0329 40.9407 15.9213C40.9333 17.5907 40.2636 19.1892 39.0781 20.3672C37.8926 21.5451 36.2878 22.2066 34.6149 22.2069H28.212C27.4219 22.207 26.6395 22.0518 25.9095 21.7502C25.1795 21.4485 24.5162 21.0063 23.9575 20.4488C23.3989 19.8913 22.9557 19.2295 22.6534 18.501C22.3511 17.7726 22.1956 16.9918 22.1958 16.2034C22.1959 16.1806 22.2006 16.1581 22.2095 16.137C22.2184 16.116 22.2313 16.097 22.2476 16.0809C22.2639 16.0649 22.2831 16.0523 22.3043 16.0437C22.3255 16.0351 22.3481 16.0307 22.371 16.0309H34.56L34.5705 6.6469V6.58861H18.5662L18.5382 23.0182C18.5351 24.6627 17.8819 26.2396 16.7204 27.4063C15.5589 28.5729 13.983 29.2351 12.335 29.2489C12.335 29.2489 12.3607 15.2405 12.3759 6.66089C12.3774 5.81804 12.5455 4.98377 12.8705 4.2058C13.1954 3.42783 13.6709 2.72143 14.2697 2.12701C14.8686 1.5326 15.579 1.06185 16.3603 0.741675C17.1416 0.421504 17.9786 0.258203 18.8232 0.261116L23.7296 0.282099L41.0038 0.356705Z" fill="white"/>
<path d="M41.0341 6.52802V9.61716C41.0347 10.4516 40.8705 11.278 40.5507 12.0491C40.231 12.8202 39.762 13.5208 39.1707 14.1109C38.5794 14.7009 37.8773 15.1689 37.1046 15.4879C36.3318 15.807 35.5037 15.9709 34.6674 15.9703H34.609V6.52802H41.0341Z" fill="white"/>
<path d="M41.0341 6.528V6.64457H18.6047C18.6047 6.62476 18.6047 6.6061 18.6047 6.58629C18.6179 5.11147 19.1323 3.68478 20.0637 2.53959C20.9951 1.3944 22.2883 0.598505 23.732 0.282104L41.0038 0.35671C41.0038 0.913922 40.9956 3.19756 40.9816 6.528H41.0341Z" fill="white"/>
<path d="M69.4201 12.1712V12.6818C68.8383 12.6989 68.3983 12.763 68.1001 12.8742C67.9588 12.9227 67.8308 13.0033 67.7261 13.1098C67.6215 13.2162 67.5432 13.3454 67.4973 13.4873C67.3952 13.7857 67.3442 14.252 67.3442 14.8862V27.6671C67.3442 28.2468 67.3913 28.6816 67.4856 28.9715C67.5241 29.1065 67.5957 29.2298 67.694 29.3301C67.7924 29.4305 67.9143 29.5048 68.0486 29.5462C68.4448 29.655 68.8553 29.7025 69.2659 29.6873H70.9318C71.5649 29.7046 72.1954 29.6005 72.7892 29.3807C73.2822 29.1837 73.7183 28.8672 74.0579 28.4598C74.4298 27.9919 74.7003 27.452 74.8522 26.8744C75.0591 26.1282 75.2048 25.3664 75.288 24.5966H75.8721C75.8207 25.1406 75.795 25.8563 75.795 26.7438C75.795 27.0858 75.8078 27.5847 75.8335 28.2406C75.8592 28.8965 75.9059 29.5742 75.9737 30.2736C75.1038 30.2386 74.1217 30.2173 73.0275 30.2095C71.9333 30.2017 70.9598 30.1974 70.107 30.1967H68.6C67.9848 30.1967 67.3228 30.2009 66.6141 30.2095L64.4611 30.2351C63.7345 30.2437 63.0382 30.2565 62.3724 30.2736V29.7619C62.8152 29.7509 63.2547 29.6819 63.6796 29.5567C63.819 29.5101 63.9446 29.4297 64.0452 29.3227C64.1457 29.2157 64.218 29.0854 64.2555 28.9435C64.3505 28.6373 64.3976 28.1769 64.3969 27.5622V14.8815C64.3969 14.2513 64.3497 13.785 64.2555 13.4827C64.2144 13.3413 64.1399 13.2118 64.0383 13.1051C63.9367 12.9984 63.8108 12.9176 63.6714 12.8695C63.2524 12.7395 62.8158 12.6747 62.3771 12.6771V12.1666C62.7665 12.1829 63.2746 12.1996 63.9015 12.2167C64.5285 12.2338 65.199 12.2423 65.9132 12.2423C66.5627 12.2423 67.2079 12.2338 67.8489 12.2167C68.4898 12.1996 69.0136 12.1844 69.4201 12.1712Z" fill="white"/>
<path d="M85.3076 12.0686L91.561 28.1275C91.7993 28.7578 92.0769 29.1852 92.3939 29.4098C92.6498 29.6078 92.9553 29.7316 93.277 29.7677V30.2794C92.8674 30.2444 92.3849 30.2231 91.8297 30.2153C91.2744 30.2075 90.7148 30.2033 90.151 30.2025C89.4337 30.2025 88.7674 30.2068 88.1522 30.2153C87.5377 30.2235 87.0412 30.2444 86.6662 30.2794V29.7677C87.5377 29.7335 88.0887 29.5843 88.3192 29.32C88.5498 29.0558 88.4941 28.4877 88.1522 27.6158L83.5401 15.1881L83.949 14.7276L79.6956 25.8264C79.3887 26.5934 79.2049 27.2326 79.1442 27.744C79.0835 28.2554 79.1263 28.656 79.2727 28.9458C79.3501 29.0941 79.4571 29.225 79.5871 29.3304C79.7171 29.4359 79.8673 29.5137 80.0285 29.559C80.4608 29.6904 80.9096 29.7595 81.3614 29.7642V30.2759C80.8482 30.241 80.3315 30.2196 79.8112 30.2118C79.291 30.204 78.7996 30.1998 78.337 30.199C77.9269 30.199 77.5648 30.199 77.2482 30.2118C76.9611 30.2176 76.6744 30.239 76.3896 30.2759V29.7642C76.799 29.6496 77.1706 29.4288 77.4667 29.1242C77.8257 28.7838 78.1672 28.2044 78.4912 27.3861L84.4361 12.0686H85.3076ZM87.9945 22.9098V23.4215H80.3615L80.6185 22.9098H87.9945Z" fill="white"/>
<path d="M92.5598 35.088V34.6019C93.2246 34.5886 93.8723 34.389 94.4289 34.026C94.9406 33.6763 95.3249 33.0935 95.5819 32.2775C95.8389 31.4615 95.967 30.3447 95.9662 28.9272V14.8815C95.9662 14.2513 95.9191 13.785 95.8249 13.4827C95.7842 13.3421 95.7107 13.2133 95.6104 13.1067C95.5101 13.0001 95.3858 12.9188 95.2478 12.8695C94.9581 12.7584 94.5227 12.6942 93.9418 12.6771V12.1666C94.3312 12.1829 94.835 12.1996 95.4534 12.2167C96.0718 12.2338 96.7209 12.2423 97.4008 12.2423C98.0667 12.2423 98.7201 12.2338 99.361 12.2167C100.002 12.1996 100.527 12.1829 100.937 12.1666V12.6771C100.374 12.6942 99.9455 12.7584 99.6519 12.8695C99.513 12.9196 99.3875 13.001 99.2852 13.1073C99.1829 13.2137 99.1065 13.3421 99.062 13.4827C98.9592 13.7811 98.9078 14.2474 98.9078 14.8815V24.2469C98.9078 24.9463 98.9035 25.7048 98.8949 26.5223C98.8863 27.3399 98.8525 28.1326 98.7933 28.9004C98.7487 29.5798 98.6436 30.254 98.479 30.9147C98.178 32.0988 97.4878 33.1479 96.5188 33.8943C95.5204 34.6901 94.2007 35.088 92.5598 35.088Z" fill="white"/>
<path d="M110.161 12.0686L116.413 28.1275C116.653 28.7578 116.931 29.1852 117.246 29.4098C117.502 29.6078 117.808 29.7316 118.13 29.7677V30.2794C117.721 30.2444 117.238 30.2231 116.683 30.2153C116.128 30.2075 115.568 30.2033 115.004 30.2025C114.286 30.2025 113.62 30.2068 113.004 30.2153C112.389 30.2239 111.894 30.2452 111.518 30.2794V29.7677C112.39 29.7335 112.941 29.5843 113.171 29.32C113.402 29.0558 113.346 28.4889 113.004 27.6193L108.397 15.1881L108.807 14.7276L104.554 25.8264C104.242 26.5934 104.058 27.2326 104.002 27.744C103.946 28.2554 103.989 28.656 104.131 28.9458C104.208 29.0941 104.315 29.225 104.445 29.3304C104.575 29.4359 104.725 29.5137 104.887 29.559C105.318 29.6904 105.767 29.7595 106.218 29.7642V30.2759C105.707 30.241 105.19 30.2196 104.668 30.2118C104.146 30.204 103.655 30.1998 103.195 30.199C102.785 30.199 102.422 30.2033 102.106 30.2118C101.819 30.2175 101.532 30.2389 101.248 30.2759V29.7642C101.657 29.6498 102.028 29.4289 102.324 29.1242C102.683 28.7838 103.024 28.2044 103.348 27.3861L109.294 12.0686H110.161ZM112.848 22.9098V23.4215H105.22L105.475 22.9098H112.848Z" fill="white"/>
<path d="M118.442 12.1712C118.832 12.1876 119.34 12.2043 119.967 12.2214C120.594 12.2385 121.213 12.247 121.825 12.247C122.646 12.247 123.427 12.2385 124.17 12.2214C124.913 12.2043 125.438 12.1961 125.746 12.1969C127.198 12.1969 128.405 12.3842 129.367 12.7588C130.33 13.1333 131.048 13.6575 131.52 14.3313C131.99 15.0107 132.235 15.8198 132.221 16.6452C132.213 17.218 132.105 17.7849 131.901 18.3204C131.662 18.9437 131.281 19.5026 130.787 19.9524C130.256 20.456 129.539 20.8694 128.634 21.1927C127.729 21.516 126.578 21.6792 125.182 21.6823H122.728V21.1705H124.932C126.077 21.1705 126.952 20.979 127.559 20.5958C128.138 20.2457 128.574 19.7022 128.789 19.0618C129.01 18.3716 129.118 17.6506 129.109 16.9262C129.109 15.5794 128.819 14.5353 128.238 13.7939C127.657 13.0525 126.649 12.6814 125.213 12.6807C124.48 12.6807 123.996 12.8264 123.766 13.1155C123.536 13.4046 123.415 13.9944 123.415 14.8804V27.5633C123.415 28.1773 123.467 28.6377 123.57 28.9447C123.61 29.0862 123.685 29.2158 123.786 29.3226C123.888 29.4293 124.014 29.51 124.154 29.5579C124.571 29.6824 125.003 29.7514 125.439 29.763V30.2748C125.028 30.2398 124.512 30.2184 123.888 30.2107C123.265 30.2029 122.629 30.1986 121.978 30.1978C121.261 30.1978 120.591 30.2021 119.967 30.2107C119.343 30.2192 118.835 30.2406 118.442 30.2748V29.763C118.885 29.7521 119.325 29.6831 119.75 29.5579C119.889 29.5114 120.015 29.431 120.116 29.324C120.216 29.217 120.289 29.0866 120.327 28.9447C120.42 28.6385 120.467 28.178 120.467 27.5633V14.8815C120.467 14.2513 120.42 13.785 120.327 13.4827C120.285 13.3414 120.211 13.2121 120.109 13.1054C120.008 12.9987 119.882 12.9179 119.743 12.8695C119.324 12.7395 118.887 12.6747 118.448 12.6772L118.442 12.1712ZM122.778 21.2487C123.649 21.2836 124.35 21.3225 124.88 21.3652C125.411 21.408 125.855 21.4468 126.213 21.4818C126.572 21.5168 126.905 21.5587 127.212 21.61C128.494 21.7818 129.428 22.1229 130.016 22.6335C130.603 23.1441 131.009 23.9282 131.233 24.9859L131.873 27.5936C132.029 28.3273 132.196 28.8472 132.373 29.1534C132.451 29.2964 132.567 29.4148 132.709 29.4954C132.85 29.5759 133.012 29.6153 133.174 29.6092C133.421 29.6018 133.658 29.5169 133.853 29.3667C134.067 29.1873 134.26 28.9856 134.43 28.7652L134.789 29.0473C134.457 29.5167 134.04 29.9199 133.559 30.2363C133.131 30.4998 132.559 30.6319 131.842 30.6327C131.168 30.6512 130.506 30.449 129.958 30.0568C129.437 29.6729 129.065 28.9443 128.843 27.8711L128.331 25.3135C128.201 24.6683 128.03 24.0321 127.818 23.4087C127.666 22.9289 127.398 22.4941 127.037 22.1428C126.704 21.8366 126.221 21.6811 125.588 21.6765H122.824L122.778 21.2487Z" fill="white"/>
<path d="M143.095 12.0686L149.348 28.1275C149.586 28.7578 149.864 29.1852 150.181 29.4098C150.437 29.6078 150.743 29.7316 151.064 29.7677V30.2794C150.654 30.2444 150.171 30.2231 149.617 30.2153C149.062 30.2075 148.503 30.2033 147.938 30.2025C147.221 30.2025 146.555 30.2068 145.939 30.2153C145.324 30.2239 144.829 30.2452 144.453 30.2794V29.7677C145.323 29.7335 145.874 29.5843 146.106 29.32C146.339 29.0558 146.283 28.4889 145.939 27.6193L141.326 15.1916L141.736 14.7311L137.483 25.8299C137.175 26.5969 136.991 27.2361 136.931 27.7475C136.871 28.2589 136.914 28.6595 137.06 28.9493C137.137 29.0976 137.244 29.2285 137.374 29.3339C137.504 29.4394 137.655 29.5172 137.816 29.5625C138.248 29.694 138.697 29.7631 139.149 29.7677V30.2794C138.635 30.2444 138.119 30.2231 137.598 30.2153C137.078 30.2075 136.587 30.2033 136.124 30.2025C135.715 30.2025 135.352 30.2068 135.035 30.2153C134.748 30.2211 134.462 30.2425 134.177 30.2794V29.7677C134.586 29.6531 134.958 29.4323 135.254 29.1277C135.612 28.7873 135.954 28.2079 136.278 27.3896L142.223 12.0721H143.095V12.0686ZM145.782 22.9098V23.4215H138.145L138.402 22.9098H145.782Z" fill="white"/>
<path d="M133.27 38.8404V42.6745C133.27 44.9348 131.592 45.4512 130.7 45.4512C129.734 45.4512 128.741 44.9429 128.335 43.8938H129.62C129.761 44.0654 129.939 44.202 130.142 44.2931C130.345 44.3841 130.566 44.427 130.788 44.4184C131.425 44.4184 132.171 43.9789 132.229 42.9542L132.213 42.9367C132.06 43.1489 131.629 43.691 130.669 43.691C129.524 43.691 128.26 42.7176 128.26 41.1427C128.254 40.4993 128.502 39.8795 128.952 39.4184C129.402 38.9572 130.016 38.6921 130.661 38.6807C131.628 38.6807 132.034 39.2298 132.162 39.4163H132.179V38.8404H133.27ZM130.76 39.7124C130.575 39.716 130.392 39.7561 130.223 39.8305C130.054 39.9048 129.901 40.0119 129.773 40.1455C129.645 40.2791 129.545 40.4367 129.479 40.609C129.412 40.7814 129.381 40.9651 129.386 41.1497C129.386 42.1056 130.107 42.6558 130.788 42.6558C131.469 42.6558 132.137 42.0799 132.137 41.1404C132.143 40.4748 131.6 39.7124 130.76 39.7124Z" fill="white"/>
<path d="M134.12 38.8404H135.16V39.2554H135.177C135.389 38.9512 135.601 38.6807 136.186 38.6807H136.28V39.7718C135.253 39.8138 135.253 40.6181 135.253 40.8979V43.5383H134.125L134.12 38.8404Z" fill="white"/>
<path d="M136.359 41.194C136.358 40.5287 136.622 39.8903 137.093 39.4191C137.564 38.9478 138.203 38.6823 138.869 38.6807C139.198 38.68 139.523 38.744 139.826 38.8693C140.13 38.9945 140.405 39.1785 140.637 39.4105C140.869 39.6425 141.052 39.918 141.177 40.2211C141.301 40.5242 141.364 40.8489 141.362 41.1765C141.371 41.5069 141.313 41.8357 141.192 42.1431C141.07 42.4505 140.887 42.73 140.654 42.965C140.421 43.2 140.143 43.3854 139.836 43.5102C139.529 43.6349 139.201 43.6964 138.869 43.691C138.206 43.6885 137.57 43.4249 137.1 42.9574C136.63 42.4899 136.364 41.8562 136.359 41.194ZM140.235 41.2022C140.235 40.3477 139.574 39.7124 138.869 39.7124C138.49 39.7279 138.132 39.8921 137.873 40.1695C137.614 40.4469 137.475 40.8151 137.486 41.194C137.486 42.0823 138.157 42.6581 138.869 42.6581C139.692 42.6581 140.235 41.9471 140.235 41.2022Z" fill="white"/>
<path d="M146.189 38.8405V43.5383H145.156V43.0638H145.138C145.009 43.2662 144.828 43.4308 144.615 43.5409C144.401 43.6511 144.162 43.7029 143.922 43.691C143.064 43.691 142.581 43.2678 142.344 42.9461C141.993 42.446 141.993 41.6848 141.993 41.2954V38.8405H143.122V41.236C143.122 41.6172 143.122 42.6582 144.105 42.6582C144.818 42.6582 145.056 41.989 145.056 41.2442V38.8405H146.189Z" fill="white"/>
<path d="M147.063 38.8404H148.098V39.3907H148.116C148.296 39.1605 148.528 38.9762 148.794 38.8528C149.059 38.7294 149.35 38.6705 149.643 38.6807C151.186 38.6807 152 40.0085 152 41.1684C152 42.5567 150.974 43.691 149.643 43.691C148.845 43.691 148.488 43.3692 148.192 43.0895V45.1038H147.063V38.8404ZM149.498 42.6582C149.875 42.6442 150.232 42.4814 150.49 42.2054C150.747 41.9294 150.884 41.5627 150.872 41.1859C150.872 40.3221 150.21 39.7124 149.515 39.7124C148.82 39.7124 148.127 40.2801 148.127 41.1859C148.12 41.3725 148.149 41.5589 148.214 41.7342C148.279 41.9095 148.378 42.0702 148.505 42.2071C148.632 42.344 148.786 42.4544 148.956 42.5318C149.126 42.6092 149.311 42.6522 149.498 42.6582Z" fill="white"/>
<path d="M121.375 40.0621H62.7451V42.5521H121.375V40.0621Z" fill="white"/>
</g>
<defs>
<clipPath id="clip0_1_103">
<rect width="152" height="51" fill="white"/>
</clipPath>
</defs>
</svg>
