<svg width="200" height="204" viewBox="0 0 200 204" fill="none" xmlns="http://www.w3.org/2000/svg">
<path fill-rule="evenodd" clip-rule="evenodd" d="M59.8384 14.9229C56.5247 14.9229 53.8384 17.6092 53.8384 20.9229V23.9229H37.8384C31.211 23.9229 25.8384 29.2954 25.8384 35.9229V153.923C25.8384 160.55 31.211 165.923 37.8384 165.923H127.838C134.466 165.923 139.838 160.55 139.838 153.923V35.9229C139.838 29.2954 134.466 23.9229 127.838 23.9229H111.838V20.9229C111.838 17.6092 109.152 14.9229 105.838 14.9229H92.8384C92.8384 14.9229 95.8384 0.922852 82.8384 0.922852C69.8384 0.922852 72.8384 14.9229 72.8384 14.9229H59.8384Z" fill="#EBF4EC"/>
<path fill-rule="evenodd" clip-rule="evenodd" d="M66.8384 32.9229V26.9229H47.8384C41.211 26.9229 35.8384 32.2954 35.8384 38.9229V156.923C35.8384 163.55 41.211 168.923 47.8384 168.923H137.838C144.466 168.923 149.838 163.55 149.838 156.923V38.9229C149.838 32.2954 144.466 26.9229 137.838 26.9229H118.838V31.9229C118.838 33.9229 115.838 34.9229 115.838 34.9229H69.8384C67.8384 34.9229 66.8384 32.9229 66.8384 32.9229ZM121.838 29.9229V31.9229C121.838 34.6977 120.155 36.6464 116.787 37.7689L116.325 37.9229H69.8384C67.269 37.9229 65.3746 36.7034 64.1551 34.2645L63.8384 33.6311V29.9229L47.8384 29.9229C45.3531 29.9229 43.2318 30.8015 41.4744 32.5589C39.7171 34.3163 38.8384 36.4376 38.8384 38.9229V156.923C38.8384 159.408 39.7171 161.53 41.4744 163.287C43.2318 165.044 45.3531 165.923 47.8384 165.923H137.838C140.324 165.923 142.445 165.044 144.202 163.287C145.96 161.53 146.838 159.408 146.838 156.923V38.9229C146.838 36.4376 145.96 34.3163 144.202 32.5589C142.445 30.8015 140.324 29.9228 137.838 29.9229H121.838Z" fill="#0D0938"/>
<path fill-rule="evenodd" clip-rule="evenodd" d="M79.7812 17.9229H69.8374C68.1808 17.9229 66.7668 18.5086 65.5954 19.6799C64.4241 20.8513 63.8384 22.2653 63.8384 23.9219V31.9239C63.8384 33.5805 64.4241 34.9945 65.5954 36.1658C66.7668 37.3372 68.1808 37.9229 69.8374 37.9229H115.839C117.496 37.9229 118.91 37.3372 120.081 36.1658C121.253 34.9945 121.838 33.5805 121.838 31.9239V23.9219C121.838 22.2653 121.253 20.8513 120.081 19.6799C118.91 18.5086 117.496 17.9229 115.839 17.9229H102.838C102.838 17.9229 103.106 16.6743 103.135 14.9229C103.203 10.8096 101.956 3.92285 92.8384 3.92285C83.7207 3.92285 82.4735 10.8096 82.5418 14.9229C82.5708 16.6743 82.8384 17.9229 82.8384 17.9229H79.7812ZM66.8384 23.9219C66.8384 21.9225 67.838 20.9229 69.8374 20.9229H82.8384C83.6668 20.9229 84.3739 20.63 84.9597 20.0442C85.5455 19.4584 85.8384 18.7513 85.8384 17.9229C85.8384 17.8172 85.8328 17.7119 85.8217 17.6068C85.8106 17.5018 85.7939 17.3976 85.7718 17.2943C85.369 15.4148 85.403 13.5335 85.8738 11.6505C86.6617 8.49872 88.9833 6.92285 92.8384 6.92285C96.6935 6.92285 99.015 8.49872 99.8029 11.6505C100.274 13.5335 100.308 15.4148 99.905 17.2943C99.8216 17.6833 99.8159 18.0734 99.8877 18.4647C99.9596 18.856 100.104 19.2186 100.32 19.5526C100.536 19.8866 100.808 20.1666 101.135 20.3924C101.463 20.6183 101.821 20.7729 102.21 20.8563C102.313 20.8784 102.417 20.895 102.522 20.9062C102.627 20.9173 102.733 20.9229 102.838 20.9229H115.839C117.839 20.9229 118.838 21.9225 118.838 23.9219V31.9239C118.838 33.9232 117.839 34.9229 115.839 34.9229H69.8374C67.838 34.9229 66.8384 33.9232 66.8384 31.9239V23.9219Z" fill="#0D0938"/>
<rect x="74.8384" y="87.9229" width="62" height="4.00001" rx="1.5" fill="#0D0938"/>
<path fill-rule="evenodd" clip-rule="evenodd" d="M74.8384 62.4229C74.8384 61.5944 75.51 60.9229 76.3384 60.9229L135.338 60.9229C136.167 60.9229 136.838 61.5944 136.838 62.4229V63.4229C136.838 64.2513 136.167 64.9229 135.338 64.9229H76.3384C75.51 64.9229 74.8384 64.2513 74.8384 63.4229V62.4229Z" fill="#0D0938"/>
<rect x="74.8384" y="113.923" width="62" height="4.00001" rx="1.5" fill="#0D0938"/>
<path fill-rule="evenodd" clip-rule="evenodd" d="M51.9308 62.1448L52.399 62.6423L54.8711 65.2689L60.1244 60.0157L62.2778 57.8622C62.5707 57.5693 62.9243 57.4229 63.3385 57.4229C63.7527 57.4229 64.1062 57.5693 64.3991 57.8622C64.692 58.1551 64.8385 58.5086 64.8385 58.9228C64.8385 59.3371 64.692 59.6906 64.3991 59.9835L55.8991 68.4835C55.8938 68.4889 55.8884 68.4942 55.883 68.4995C55.8775 68.5047 55.872 68.51 55.8665 68.5152C55.5649 68.7991 55.2071 68.9347 54.7931 68.9222C54.379 68.9096 54.0301 68.7525 53.7462 68.4509L49.7462 64.2009C49.4623 63.8993 49.3266 63.5414 49.3392 63.1274C49.3517 62.7134 49.5088 62.3644 49.8104 62.0806C50.1121 61.7967 50.4699 61.661 50.8839 61.6735C51.2979 61.6861 51.6469 61.8432 51.9308 62.1448Z" fill="#0D0938"/>
<path fill-rule="evenodd" clip-rule="evenodd" d="M51.9308 89.1448L52.399 89.6423L54.8711 92.2689L60.1244 87.0157L62.2778 84.8622C62.4185 84.7215 62.5807 84.6132 62.7645 84.537C62.9482 84.4609 63.1396 84.4229 63.3385 84.4229C63.5374 84.4229 63.7287 84.4609 63.9125 84.537C64.0963 84.6132 64.2585 84.7215 64.3991 84.8622C64.692 85.1551 64.8385 85.5086 64.8385 85.9229C64.8385 86.3371 64.692 86.6906 64.3991 86.9835L55.8991 95.4835C55.8938 95.4889 55.8884 95.4942 55.883 95.4995C55.8775 95.5048 55.872 95.51 55.8665 95.5152C55.5649 95.7991 55.2071 95.9347 54.7931 95.9222C54.379 95.9096 54.0301 95.7525 53.7462 95.4509L49.7462 91.2009C49.4623 90.8993 49.3266 90.5415 49.3392 90.1274C49.3517 89.7134 49.5088 89.3644 49.8104 89.0806C50.1121 88.7967 50.4699 88.661 50.8839 88.6735C51.2979 88.6861 51.6469 88.8432 51.9308 89.1448Z" fill="#0D0938"/>
<path fill-rule="evenodd" clip-rule="evenodd" d="M51.9308 114.145L52.399 114.642L54.8711 117.269L60.1244 112.016L62.2778 109.862C62.4185 109.722 62.5807 109.613 62.7645 109.537C62.9482 109.461 63.1396 109.423 63.3385 109.423C63.5374 109.423 63.7287 109.461 63.9125 109.537C64.0963 109.613 64.2585 109.722 64.3991 109.862C64.692 110.155 64.8385 110.509 64.8385 110.923C64.8385 111.337 64.692 111.691 64.3991 111.984L55.8991 120.484C55.8938 120.489 55.8884 120.494 55.883 120.499C55.8775 120.505 55.872 120.51 55.8665 120.515C55.5649 120.799 55.2071 120.935 54.7931 120.922C54.379 120.91 54.0301 120.753 53.7462 120.451L49.7462 116.201C49.4623 115.899 49.3266 115.541 49.3392 115.127C49.3517 114.713 49.5088 114.364 49.8104 114.081C50.1121 113.797 50.4699 113.661 50.8839 113.674C51.2979 113.686 51.6469 113.843 51.9308 114.145Z" fill="#0D0938"/>
<path fill-rule="evenodd" clip-rule="evenodd" d="M33.9346 46.4842C34.1462 47.0277 33.8773 47.6398 33.3338 47.8514C32.3127 48.2491 31.3097 48.6723 30.3262 49.12C29.7955 49.3616 29.1693 49.1272 28.9277 48.5964C28.686 48.0656 28.9205 47.4395 29.4512 47.1978C30.4707 46.7337 31.5099 46.2953 32.5674 45.8834C33.1109 45.6718 33.723 45.9408 33.9346 46.4842ZM24.9159 50.7085C25.2176 51.2076 25.0576 51.8568 24.5586 52.1585C22.6733 53.2984 20.8855 54.5364 19.2065 55.8631C18.7489 56.2247 18.0849 56.1468 17.7233 55.6893C17.3617 55.2317 17.4396 54.5676 17.8972 54.206C19.6468 52.8235 21.5072 51.5355 23.4659 50.3512C23.9649 50.0495 24.6141 50.2095 24.9159 50.7085ZM14.3607 58.7291C14.7807 59.1336 14.7933 59.8021 14.3887 60.2222C12.8686 61.8005 11.4827 63.4657 10.2438 65.2067C9.90566 65.6819 9.24636 65.793 8.77119 65.4549C8.29602 65.1168 8.18492 64.4575 8.52305 63.9823C9.82447 62.1534 11.2776 60.408 12.8676 58.7571C13.2721 58.3371 13.9406 58.3245 14.3607 58.7291ZM6.44392 69.3445C6.96737 69.6016 7.18328 70.2344 6.92616 70.7579C5.97307 72.6982 5.18981 74.7071 4.59048 76.7731C4.428 77.3332 3.84222 77.6555 3.28212 77.493C2.72202 77.3305 2.39969 76.7447 2.56218 76.1846C3.19668 73.9975 4.02494 71.874 5.03056 69.8267C5.28769 69.3033 5.92047 69.0874 6.44392 69.3445ZM2.41705 81.9428C2.99728 82.0015 3.42007 82.5194 3.36138 83.0997C3.25388 84.1624 3.19388 85.2365 3.18317 86.3206C3.17277 87.3727 3.20896 88.4163 3.29014 89.4501C3.3358 90.0315 2.90149 90.5398 2.32008 90.5855C1.73868 90.6311 1.23035 90.1968 1.18469 89.6154C1.09865 88.5198 1.06033 87.4141 1.07134 86.2997C1.08269 85.1514 1.14624 84.0134 1.26017 82.8871C1.31887 82.3069 1.83682 81.8841 2.41705 81.9428ZM3.03994 94.8596C3.60434 94.7127 4.18093 95.0512 4.32781 95.6156C4.85362 97.6361 5.55426 99.607 6.41702 101.517C6.65708 102.049 6.42082 102.674 5.88933 102.914C5.35784 103.154 4.73237 102.918 4.49231 102.386C3.58171 100.37 2.84068 98.2868 2.28395 96.1474C2.13708 95.5831 2.47554 95.0065 3.03994 94.8596ZM7.98675 106.709C8.47377 106.388 9.12865 106.523 9.44947 107.01C10.5904 108.742 11.8732 110.406 13.2862 111.992C13.6741 112.427 13.6356 113.095 13.2002 113.483C12.7647 113.871 12.0973 113.832 11.7093 113.397C10.2306 111.737 8.88489 109.992 7.6858 108.171C7.36499 107.684 7.49972 107.03 7.98675 106.709ZM16.2968 116.516C16.6769 116.074 17.3436 116.023 17.7859 116.403C19.3608 117.757 21.0427 119.029 22.8211 120.212C23.3066 120.535 23.4384 121.191 23.1154 121.677C22.7924 122.162 22.1369 122.294 21.6513 121.971C19.8027 120.741 18.0516 119.416 16.4095 118.005C15.9672 117.625 15.9167 116.958 16.2968 116.516ZM26.8588 123.864C27.1241 123.345 27.7602 123.139 28.2796 123.404C30.1339 124.352 32.0655 125.21 34.0651 125.972C34.6101 126.18 34.8835 126.79 34.6758 127.335C34.4682 127.88 33.858 128.153 33.3131 127.946C31.243 127.157 29.2417 126.267 27.3186 125.285C26.7993 125.019 26.5934 124.383 26.8588 123.864ZM38.802 128.665C38.9523 128.102 39.5309 127.767 40.0944 127.917C41.1097 128.188 42.1384 128.435 43.1796 128.657C43.75 128.779 44.1136 129.34 43.9919 129.91C43.8701 130.481 43.309 130.844 42.7387 130.722C41.6629 130.493 40.5997 130.238 39.5502 129.958C38.9867 129.807 38.6517 129.229 38.802 128.665Z" fill="#0D0938"/>
<mask id="path-11-outside-1_646_1075" maskUnits="userSpaceOnUse" x="7.31812" y="102.844" width="71" height="101" fill="black">
<rect fill="white" x="7.31812" y="102.844" width="71" height="101"/>
<path fill-rule="evenodd" clip-rule="evenodd" d="M61.5568 124.621C61.5568 127.002 59.8557 129.183 57.0282 130.879H63.4295C64.4015 130.879 65.1895 131.667 65.1895 132.639C65.1895 133.611 64.4015 134.399 63.4295 134.399H58.5738C59.404 134.896 59.9336 135.813 59.7726 136.834C58.4167 145.427 50.9771 151.998 42.0027 151.998C33.0472 151.998 25.62 145.455 24.2414 136.888C24.0733 135.843 24.6189 134.904 25.4725 134.399H21.1908C20.2188 134.399 19.4308 133.611 19.4308 132.639C19.4308 131.667 20.2188 130.879 21.1908 130.879H26.9755C24.1479 129.183 22.4468 127.002 22.4468 124.621C22.4468 119.221 31.2019 114.844 42.0018 114.844C52.8017 114.844 61.5568 119.221 61.5568 124.621ZM37.1132 155.909C27.2852 155.909 19.3181 163.876 19.3181 173.704C19.3181 183.532 27.2852 191.499 37.1132 191.499H47.6728C57.5008 191.499 65.4679 183.532 65.4679 173.704C65.4679 163.876 57.5008 155.909 47.6728 155.909H37.1132Z"/>
</mask>
<path fill-rule="evenodd" clip-rule="evenodd" d="M61.5568 124.621C61.5568 127.002 59.8557 129.183 57.0282 130.879H63.4295C64.4015 130.879 65.1895 131.667 65.1895 132.639C65.1895 133.611 64.4015 134.399 63.4295 134.399H58.5738C59.404 134.896 59.9336 135.813 59.7726 136.834C58.4167 145.427 50.9771 151.998 42.0027 151.998C33.0472 151.998 25.62 145.455 24.2414 136.888C24.0733 135.843 24.6189 134.904 25.4725 134.399H21.1908C20.2188 134.399 19.4308 133.611 19.4308 132.639C19.4308 131.667 20.2188 130.879 21.1908 130.879H26.9755C24.1479 129.183 22.4468 127.002 22.4468 124.621C22.4468 119.221 31.2019 114.844 42.0018 114.844C52.8017 114.844 61.5568 119.221 61.5568 124.621ZM37.1132 155.909C27.2852 155.909 19.3181 163.876 19.3181 173.704C19.3181 183.532 27.2852 191.499 37.1132 191.499H47.6728C57.5008 191.499 65.4679 183.532 65.4679 173.704C65.4679 163.876 57.5008 155.909 47.6728 155.909H37.1132Z" fill="#AAEFB2"/>
<path d="M57.0282 130.879L50.8566 120.588L13.6845 142.879H57.0282V130.879ZM58.5738 134.399V122.399H15.1826L52.4081 144.694L58.5738 134.399ZM59.7726 136.834L71.6259 138.704L59.7726 136.834ZM24.2414 136.888L12.3939 138.795L12.3939 138.795L24.2414 136.888ZM25.4725 134.399L31.5843 144.726L69.3092 122.399H25.4725V134.399ZM26.9755 130.879V142.879H70.3191L33.147 120.588L26.9755 130.879ZM63.1997 141.17C67.5436 138.565 73.5568 133.194 73.5568 124.621H49.5568C49.5568 122.801 50.2411 121.499 50.6984 120.88C51.0974 120.339 51.3022 120.32 50.8566 120.588L63.1997 141.17ZM63.4295 118.879H57.0282V142.879H63.4295V118.879ZM77.1895 132.639C77.1895 125.039 71.0289 118.879 63.4295 118.879V142.879C57.7741 142.879 53.1895 138.294 53.1895 132.639H77.1895ZM63.4295 146.399C71.0289 146.399 77.1895 140.238 77.1895 132.639H53.1895C53.1895 126.983 57.7741 122.399 63.4295 122.399V146.399ZM58.5738 146.399H63.4295V122.399H58.5738V146.399ZM71.6259 138.704C72.6629 132.131 69.1105 126.722 64.7395 124.104L52.4081 144.694C49.6976 143.07 47.2042 139.495 47.9192 134.963L71.6259 138.704ZM42.0027 163.998C56.9745 163.998 69.3642 153.039 71.6259 138.704L47.9192 134.963C47.4693 137.815 44.9797 139.998 42.0027 139.998V163.998ZM12.3939 138.795C14.6936 153.085 27.0623 163.998 42.0027 163.998V139.998C39.0321 139.998 36.5465 137.824 36.089 134.981L12.3939 138.795ZM19.3607 124.072C14.9427 126.687 11.3238 132.145 12.3939 138.795L36.089 134.981C36.8228 139.542 34.2951 143.121 31.5843 144.726L19.3607 124.072ZM21.1908 146.399H25.4725V122.399H21.1908V146.399ZM7.43081 132.639C7.43081 140.238 13.5914 146.399 21.1908 146.399V122.399C26.8462 122.399 31.4308 126.983 31.4308 132.639H7.43081ZM21.1908 118.879C13.5913 118.879 7.43081 125.039 7.43081 132.639H31.4308C31.4308 138.294 26.8462 142.879 21.1908 142.879V118.879ZM26.9755 118.879H21.1908V142.879H26.9755V118.879ZM10.4468 124.621C10.4468 133.194 16.46 138.565 20.8039 141.17L33.147 120.588C32.7014 120.32 32.9062 120.339 33.3052 120.88C33.7625 121.499 34.4468 122.801 34.4468 124.621H10.4468ZM42.0018 102.844C35.1429 102.844 28.34 104.208 22.8078 106.975C17.9934 109.382 10.4468 114.927 10.4468 124.621H34.4468C34.4468 126.714 33.5559 128.08 33.1452 128.566C32.8003 128.973 32.7716 128.825 33.5409 128.441C35.0862 127.668 38.0608 126.844 42.0018 126.844V102.844ZM73.5568 124.621C73.5568 114.927 66.0103 109.382 61.1958 106.975C55.6637 104.208 48.8608 102.844 42.0018 102.844V126.844C45.9428 126.844 48.9174 127.668 50.4627 128.441C51.232 128.825 51.2033 128.973 50.8584 128.566C50.4477 128.08 49.5568 126.714 49.5568 124.621H73.5568ZM31.3181 173.704C31.3181 170.503 33.9126 167.909 37.1132 167.909V143.909C20.6578 143.909 7.31812 157.248 7.31812 173.704H31.3181ZM37.1132 179.499C33.9126 179.499 31.3181 176.904 31.3181 173.704H7.31812C7.31812 190.159 20.6578 203.499 37.1132 203.499V179.499ZM47.6728 179.499H37.1132V203.499H47.6728V179.499ZM53.4679 173.704C53.4679 176.904 50.8734 179.499 47.6728 179.499V203.499C64.1282 203.499 77.4679 190.159 77.4679 173.704H53.4679ZM47.6728 167.909C50.8734 167.909 53.4679 170.503 53.4679 173.704H77.4679C77.4679 157.248 64.1282 143.909 47.6728 143.909V167.909ZM37.1132 167.909H47.6728V143.909H37.1132V167.909Z" fill="white" mask="url(#path-11-outside-1_646_1075)"/>
<path fill-rule="evenodd" clip-rule="evenodd" d="M55.7672 128.535C54.1095 119.415 46.1264 112.5 36.5281 112.5C26.9299 112.5 18.9468 119.415 17.2891 128.535H15.716C15.2301 128.535 14.8154 128.707 14.4718 129.05C14.1282 129.394 13.9564 129.809 13.9564 130.295V130.295C13.9564 130.781 14.1282 131.196 14.4718 131.54C14.8154 131.883 15.2301 132.055 15.716 132.055H57.9556C58.4415 132.055 58.8562 131.883 59.1998 131.54C59.5433 131.196 59.7151 130.781 59.7151 130.295V130.295C59.7151 129.809 59.5433 129.394 59.1998 129.05C58.8562 128.707 58.4415 128.535 57.9556 128.535H55.7672ZM48.3687 117.996C51.746 120.843 53.8272 124.426 54.6124 128.746L54.7875 129.709H57.9552C58.346 129.709 58.5414 129.905 58.5414 130.296V130.297C58.5414 130.687 58.346 130.883 57.9552 130.883H15.7156C15.3248 130.883 15.1293 130.687 15.1293 130.297L15.1293 130.296C15.1293 129.905 15.3248 129.709 15.7156 129.709H18.2679L18.4431 128.746C19.2282 124.426 21.3095 120.843 24.6868 117.996C28.1039 115.115 32.0509 113.674 36.5277 113.674C41.0046 113.674 44.9516 115.115 48.3687 117.996ZM18.7323 136.668C18.7433 136.742 18.7547 136.816 18.7666 136.89C20.1451 145.457 27.5723 152 36.5278 152C45.5022 152 52.9419 145.429 54.2977 136.836C54.3089 136.765 54.3197 136.693 54.3301 136.622C54.5385 135.189 53.3447 134.01 51.8968 134.01H51.473L21.666 134.01H21.2055C19.7318 134.01 18.5164 135.21 18.7323 136.668ZM19.9256 136.712C19.9254 136.711 19.9252 136.709 19.9251 136.708L19.8913 136.49C19.8417 136.155 19.9389 135.859 20.183 135.604C20.4506 135.324 20.7913 135.184 21.205 135.184H21.6655L51.4725 135.184H51.8963C52.2969 135.184 52.6269 135.319 52.8861 135.591C53.1222 135.837 53.2163 136.125 53.1685 136.454L53.1372 136.661C52.4999 140.7 50.6218 144.064 47.5031 146.753C44.3522 149.47 40.6936 150.828 36.5273 150.828C32.3703 150.828 28.718 149.475 25.5702 146.769C22.457 144.093 20.5755 140.74 19.9256 136.712ZM52.1719 153.565H21.6654C19.5055 153.565 17.6619 154.328 16.1346 155.856C14.6074 157.383 13.8438 159.226 13.8438 161.386V181.333C13.8438 183.493 14.6074 185.337 16.1346 186.864C17.6619 188.391 19.5055 189.155 21.6654 189.155H52.1719C54.3318 189.155 56.1754 188.391 57.7026 186.864C59.2299 185.337 59.9935 183.493 59.9935 181.333V161.386C59.9935 159.226 59.2299 157.383 57.7026 155.856C56.1754 154.328 54.3318 153.565 52.1719 153.565ZM16.9639 156.686C18.262 155.388 19.8291 154.739 21.665 154.739H52.1715C54.0074 154.739 55.5744 155.388 56.8726 156.686C58.1707 157.984 58.8198 159.551 58.8198 161.387V181.334C58.8198 183.17 58.1707 184.737 56.8726 186.035C55.5744 187.333 54.0074 187.983 52.1715 187.983H21.665C19.8291 187.983 18.2621 187.333 16.9639 186.035C15.6657 184.737 15.0166 183.17 15.0166 181.334L15.0166 161.387C15.0166 159.551 15.6657 157.984 16.9639 156.686Z" fill="#0D0938"/>
<rect x="42.7852" y="174.683" width="1.1733" height="8.9953" rx="0.58665" fill="#0D0938"/>
<rect x="46.6968" y="174.683" width="1.1733" height="8.9953" rx="0.58665" fill="#0D0938"/>
<rect x="50.6068" y="174.683" width="1.1733" height="8.9953" rx="0.58665" fill="#0D0938"/>
<path fill-rule="evenodd" clip-rule="evenodd" d="M40.4397 122.666C40.4397 124.826 38.6887 126.577 36.5287 126.577C34.3687 126.577 32.6177 124.826 32.6177 122.666C32.6177 120.506 34.3687 118.755 36.5287 118.755C38.6887 118.755 40.4397 120.506 40.4397 122.666ZM38.4641 124.603C37.9295 125.137 37.2843 125.405 36.5283 125.405C35.7723 125.405 35.127 125.137 34.5924 124.603C34.0579 124.068 33.7906 123.423 33.7906 122.667C33.7906 121.911 34.0579 121.266 34.5924 120.731C35.127 120.197 35.7723 119.929 36.5283 119.929C37.2843 119.929 37.9295 120.197 38.4641 120.731C38.9987 121.266 39.266 121.911 39.266 122.667C39.266 123.423 38.9987 124.068 38.4641 124.603Z" fill="#0D0938"/>
<path d="M166.166 86.453H169.166V89.453V141.907V147.697L164.436 144.358L150.43 134.471L136.424 144.358L131.694 147.697V141.907V89.453V86.453H134.694H148.682H152.179H166.166Z" fill="white" stroke="white" stroke-width="6"/>
<path d="M182.846 66.3061L181.962 65.8555L182.846 66.3061L177.239 77.3116C177.13 77.5251 177.13 77.7777 177.239 77.9911L176.348 78.4451L177.239 77.9911L182.846 88.9966C183.613 90.5019 182.853 92.3362 181.247 92.8583L169.5 96.6754L169.191 95.7244L169.5 96.6754C169.272 96.7495 169.093 96.9281 169.019 97.156L164.777 110.211C164.478 111.131 163.428 111.566 162.566 111.127C154.668 107.103 145.322 107.103 137.424 111.127C136.563 111.566 135.512 111.131 135.213 110.211L130.971 97.156C130.897 96.9281 130.718 96.7495 130.491 96.6754L118.744 92.8583C117.137 92.3362 116.377 90.5019 117.144 88.9966L122.751 77.9911C122.86 77.7777 122.86 77.525 122.751 77.3116L117.144 66.3061C116.377 64.8009 117.137 62.9665 118.744 62.4445L130.491 58.6273C130.718 58.5532 130.897 58.3746 130.971 58.1468L131.922 58.4558L130.971 58.1468L134.788 46.3998C135.31 44.7932 137.145 44.0334 138.65 44.8003L149.655 50.4075C149.869 50.5162 150.121 50.5162 150.335 50.4075L161.34 44.8003C162.846 44.0334 164.68 44.7932 165.202 46.3998L169.019 58.1468C169.093 58.3746 169.272 58.5532 169.5 58.6273L181.247 62.4445C182.853 62.9665 183.613 64.8008 182.846 66.3061Z" fill="white" stroke="white" stroke-width="2"/>
<path fill-rule="evenodd" clip-rule="evenodd" d="M155.756 103.457L158.719 94.3371C158.892 93.8049 159.31 93.3875 159.842 93.2146L167.582 90.6994C168.604 90.3673 169.087 89.2004 168.6 88.2428L164.905 80.9911C164.651 80.4924 164.651 79.9023 164.905 79.4036L168.6 72.1519C169.087 71.1944 168.604 70.0275 167.582 69.6953L159.842 67.1801C159.31 67.0072 158.892 66.5899 158.719 66.0576L156.204 58.3174C155.872 57.2953 154.705 56.812 153.747 57.2998L146.496 60.9945C145.997 61.2485 145.407 61.2485 144.908 60.9945L137.657 57.2998C136.699 56.812 135.532 57.2953 135.2 58.3174L132.685 66.0576C132.512 66.5899 132.095 67.0072 131.562 67.1801L123.822 69.6953C122.8 70.0275 122.317 71.1944 122.805 72.1519L126.499 79.4036C126.753 79.9023 126.753 80.4924 126.499 80.9911L122.805 88.2428C122.317 89.2004 122.8 90.3673 123.822 90.6994L131.562 93.2146C132.095 93.3875 132.512 93.8049 132.685 94.3371L135.648 103.457V137.838C135.648 139.362 137.463 140.156 138.583 139.122L145.702 132.551L152.821 139.122C153.941 140.156 155.756 139.362 155.756 137.838V103.457Z" fill="#AAEFB2"/>
<path fill-rule="evenodd" clip-rule="evenodd" d="M149.713 127.903L142.565 133.612V106.938H157.427V133.349L149.713 127.903ZM142.877 136.72L149.81 131.182L157.293 136.464C158.451 137.282 160.05 136.453 160.05 135.036V104.315H139.942V135.752C139.942 136.083 140.108 136.402 140.406 136.645C141.061 137.179 142.167 137.213 142.877 136.72Z" fill="#0D0938"/>
<path fill-rule="evenodd" clip-rule="evenodd" d="M140.74 55.3018C140.823 55.0463 141.114 54.9254 141.354 55.0474L148.605 58.7421C149.478 59.1867 150.511 59.1867 151.384 58.7421L158.635 55.0474C158.875 54.9254 159.166 55.0463 159.249 55.3018L161.765 63.042C162.067 63.9735 162.798 64.7037 163.729 65.0064L171.469 67.5216C171.725 67.6047 171.846 67.8964 171.724 68.1358L168.029 75.3874C167.584 76.2601 167.584 77.2929 168.029 78.1655L171.724 85.4172C171.846 85.6566 171.725 85.9483 171.469 86.0314L163.729 88.5466C162.798 88.8492 162.067 89.5795 161.765 90.511L159.084 98.7616C153.306 96.1539 146.683 96.1539 140.905 98.7616L138.224 90.511C137.922 89.5795 137.191 88.8492 136.26 88.5466L128.52 86.0314C128.264 85.9483 128.143 85.6566 128.265 85.4172L131.96 78.1655C132.405 77.2929 132.405 76.2601 131.96 75.3874L128.265 68.1358C128.143 67.8964 128.264 67.6047 128.52 67.5216L136.26 65.0064C137.191 64.7038 137.922 63.9735 138.224 63.042L140.74 55.3018ZM142.544 52.7105C140.869 51.8567 138.827 52.7026 138.245 54.4913L135.73 62.2315C135.687 62.3645 135.583 62.4689 135.449 62.5121L127.709 65.0273C125.921 65.6085 125.075 67.6506 125.929 69.3264L129.623 76.5781C129.687 76.7027 129.687 76.8503 129.623 76.9749L125.929 84.2266C125.075 85.9024 125.921 87.9445 127.709 88.5257L135.449 91.0409C135.583 91.0841 135.687 91.1884 135.73 91.3215L138.728 100.546C139.056 101.555 140.208 102.033 141.154 101.551C146.708 98.7211 153.281 98.7211 158.835 101.551C159.781 102.033 160.933 101.555 161.261 100.546L164.259 91.3215C164.302 91.1884 164.406 91.0841 164.54 91.0409L172.28 88.5257C174.068 87.9445 174.914 85.9024 174.06 84.2266L170.366 76.9749C170.302 76.8503 170.302 76.7027 170.366 76.5781L174.06 69.3264C174.914 67.6506 174.068 65.6085 172.28 65.0273L164.54 62.5121C164.406 62.4689 164.302 62.3645 164.259 62.2315L161.744 54.4913C161.162 52.7026 159.12 51.8567 157.445 52.7105L150.193 56.4052C150.068 56.4687 149.921 56.4687 149.796 56.4052L142.544 52.7105Z" fill="#0D0938"/>
<path d="M149.359 69.4184C149.486 68.9151 150.201 68.9151 150.329 69.4184L151.355 73.4787C151.431 73.7809 151.762 73.9403 152.046 73.8116L155.86 72.0822C156.333 71.8678 156.779 72.4269 156.464 72.8402L153.93 76.1739C153.741 76.422 153.823 76.7803 154.1 76.9219L157.831 78.8257C158.293 79.0617 158.134 79.7589 157.615 79.7709L153.428 79.8677C153.116 79.8749 152.887 80.1622 152.95 80.4675L153.787 84.5709C153.891 85.0796 153.246 85.3899 152.913 84.9916L150.227 81.7785C150.027 81.5395 149.66 81.5395 149.46 81.7785L146.774 84.9916C146.441 85.3899 145.797 85.0796 145.901 84.5709L146.738 80.4675C146.8 80.1622 146.571 79.8749 146.259 79.8677L142.073 79.7709C141.554 79.7589 141.394 79.0617 141.857 78.8257L145.587 76.9219C145.865 76.7803 145.946 76.422 145.758 76.1739L143.223 72.8402C142.909 72.4269 143.355 71.8678 143.828 72.0822L147.642 73.8116C147.926 73.9403 148.257 73.7809 148.333 73.4787L149.359 69.4184Z" stroke="black" stroke-width="2" stroke-linecap="round" stroke-linejoin="round"/>
</svg>
