<svg width="183" height="184" viewBox="0 0 183 184" fill="none" xmlns="http://www.w3.org/2000/svg">
<path fill-rule="evenodd" clip-rule="evenodd" d="M78.8438 0C74.4255 0 70.8438 3.58173 70.8438 8V50.0318C70.6466 50.0108 70.4464 50 70.2438 50H15.4437C12.351 50 9.84375 52.5072 9.84375 55.6V160.4C9.84375 163.493 12.351 166 15.4437 166H70.2438C71.7435 166 73.1056 165.41 74.1108 164.45C75.4362 165.425 77.0728 166 78.8438 166H156.844C161.262 166 164.844 162.418 164.844 158V8C164.844 3.58172 161.262 0 156.844 0H78.8438Z" fill="#EBF4EC"/>
<path fill-rule="evenodd" clip-rule="evenodd" d="M22.4438 57.5C20.1794 57.5 18.3438 59.3356 18.3438 61.6V166.4C18.3438 168.664 20.1794 170.5 22.4438 170.5H77.2438C78.0722 170.5 78.7438 171.172 78.7438 172C78.7438 172.828 78.0722 173.5 77.2438 173.5H22.4438C18.5225 173.5 15.3438 170.321 15.3438 166.4V61.6C15.3438 57.6788 18.5225 54.5 22.4438 54.5H77.2438C78.0722 54.5 78.7438 55.1716 78.7438 56C78.7438 56.8284 78.0722 57.5 77.2438 57.5H22.4438Z" fill="#0D0938"/>
<path fill-rule="evenodd" clip-rule="evenodd" d="M41.4838 74H31.2037C31.0049 74 30.8438 74.1612 30.8438 74.36V84.64C30.8438 84.8388 31.0049 85 31.2037 85H41.4838C41.6826 85 41.8438 84.8388 41.8438 84.64V74.36C41.8438 74.1612 41.6826 74 41.4838 74ZM31.2037 71C29.3481 71 27.8438 72.5043 27.8438 74.36V84.64C27.8438 86.4957 29.3481 88 31.2037 88H41.4838C43.3394 88 44.8438 86.4957 44.8438 84.64V74.36C44.8438 72.5043 43.3394 71 41.4838 71H31.2037Z" fill="#0D0938"/>
<path fill-rule="evenodd" clip-rule="evenodd" d="M41.4838 110H31.2037C31.0049 110 30.8438 110.161 30.8438 110.36V120.64C30.8438 120.839 31.0049 121 31.2037 121H41.4838C41.6826 121 41.8438 120.839 41.8438 120.64V110.36C41.8438 110.161 41.6826 110 41.4838 110ZM31.2037 107C29.3481 107 27.8438 108.504 27.8438 110.36V120.64C27.8438 122.496 29.3481 124 31.2037 124H41.4838C43.3394 124 44.8438 122.496 44.8438 120.64V110.36C44.8438 108.504 43.3394 107 41.4838 107H31.2037Z" fill="#0D0938"/>
<path fill-rule="evenodd" clip-rule="evenodd" d="M41.4838 147H31.2037C31.0049 147 30.8438 147.161 30.8438 147.36V157.64C30.8438 157.839 31.0049 158 31.2037 158H41.4838C41.6826 158 41.8438 157.839 41.8438 157.64V147.36C41.8438 147.161 41.6826 147 41.4838 147ZM31.2037 144C29.3481 144 27.8438 145.504 27.8438 147.36V157.64C27.8438 159.496 29.3481 161 31.2037 161H41.4838C43.3394 161 44.8438 159.496 44.8438 157.64V147.36C44.8438 145.504 43.3394 144 41.4838 144H31.2037Z" fill="#0D0938"/>
<path fill-rule="evenodd" clip-rule="evenodd" d="M70.4838 74H60.2037C60.0049 74 59.8438 74.1612 59.8438 74.36V84.64C59.8438 84.8388 60.0049 85 60.2037 85H70.4838C70.6826 85 70.8438 84.8388 70.8438 84.64V74.36C70.8438 74.1612 70.6826 74 70.4838 74ZM60.2037 71C58.3481 71 56.8438 72.5043 56.8438 74.36V84.64C56.8438 86.4957 58.3481 88 60.2037 88H70.4838C72.3394 88 73.8438 86.4957 73.8438 84.64V74.36C73.8438 72.5043 72.3394 71 70.4838 71H60.2037Z" fill="#0D0938"/>
<path fill-rule="evenodd" clip-rule="evenodd" d="M70.4838 110H60.2037C60.0049 110 59.8438 110.161 59.8438 110.36V120.64C59.8438 120.839 60.0049 121 60.2037 121H70.4838C70.6826 121 70.8438 120.839 70.8438 120.64V110.36C70.8438 110.161 70.6826 110 70.4838 110ZM60.2037 107C58.3481 107 56.8438 108.504 56.8438 110.36V120.64C56.8438 122.496 58.3481 124 60.2037 124H70.4838C72.3394 124 73.8438 122.496 73.8438 120.64V110.36C73.8438 108.504 72.3394 107 70.4838 107H60.2037Z" fill="#0D0938"/>
<path fill-rule="evenodd" clip-rule="evenodd" d="M70.4838 147H60.2037C60.0049 147 59.8438 147.161 59.8438 147.36V157.64C59.8438 157.839 60.0049 158 60.2037 158H70.4838C70.6826 158 70.8438 157.839 70.8438 157.64V147.36C70.8438 147.161 70.6826 147 70.4838 147ZM60.2037 144C58.3481 144 56.8438 145.504 56.8438 147.36V157.64C56.8438 159.496 58.3481 161 60.2037 161H70.4838C72.3394 161 73.8438 159.496 73.8438 157.64V147.36C73.8438 145.504 72.3394 144 70.4838 144H60.2037Z" fill="#0D0938"/>
<path fill-rule="evenodd" clip-rule="evenodd" d="M166.844 11H88.8437C86.0823 11 83.8438 13.2386 83.8438 16V166C83.8438 168.761 86.0823 171 88.8437 171H166.844C169.605 171 171.844 168.761 171.844 166V16C171.844 13.2386 169.605 11 166.844 11ZM88.8437 8C84.4255 8 80.8438 11.5817 80.8438 16V166C80.8438 170.418 84.4255 174 88.8437 174H166.844C171.262 174 174.844 170.418 174.844 166V16C174.844 11.5817 171.262 8 166.844 8H88.8437Z" fill="#0D0938"/>
<path fill-rule="evenodd" clip-rule="evenodd" d="M114.044 29H99.6438C98.6496 29 97.8438 29.8059 97.8438 30.8V45.2C97.8438 46.1941 98.6496 47 99.6437 47H114.044C115.038 47 115.844 46.1941 115.844 45.2V30.8C115.844 29.8059 115.038 29 114.044 29ZM99.6438 26C96.9928 26 94.8438 28.149 94.8438 30.8V45.2C94.8438 47.851 96.9928 50 99.6437 50H114.044C116.695 50 118.844 47.851 118.844 45.2V30.8C118.844 28.149 116.695 26 114.044 26H99.6438Z" fill="#0D0938"/>
<path fill-rule="evenodd" clip-rule="evenodd" d="M114.044 66H99.6438C98.6496 66 97.8438 66.8059 97.8438 67.8V82.2C97.8438 83.1941 98.6496 84 99.6437 84H114.044C115.038 84 115.844 83.1941 115.844 82.2V67.8C115.844 66.8059 115.038 66 114.044 66ZM99.6438 63C96.9928 63 94.8438 65.149 94.8438 67.8V82.2C94.8438 84.851 96.9928 87 99.6437 87H114.044C116.695 87 118.844 84.851 118.844 82.2V67.8C118.844 65.149 116.695 63 114.044 63H99.6438Z" fill="#0D0938"/>
<path fill-rule="evenodd" clip-rule="evenodd" d="M114.044 102H99.6438C98.6496 102 97.8438 102.806 97.8438 103.8V118.2C97.8438 119.194 98.6496 120 99.6437 120H114.044C115.038 120 115.844 119.194 115.844 118.2V103.8C115.844 102.806 115.038 102 114.044 102ZM99.6438 99C96.9928 99 94.8438 101.149 94.8438 103.8V118.2C94.8438 120.851 96.9928 123 99.6437 123H114.044C116.695 123 118.844 120.851 118.844 118.2V103.8C118.844 101.149 116.695 99 114.044 99H99.6438Z" fill="#0D0938"/>
<path fill-rule="evenodd" clip-rule="evenodd" d="M155.044 29H140.644C139.65 29 138.844 29.8059 138.844 30.8V45.2C138.844 46.1941 139.65 47 140.644 47H155.044C156.038 47 156.844 46.1941 156.844 45.2V30.8C156.844 29.8059 156.038 29 155.044 29ZM140.644 26C137.993 26 135.844 28.149 135.844 30.8V45.2C135.844 47.851 137.993 50 140.644 50H155.044C157.695 50 159.844 47.851 159.844 45.2V30.8C159.844 28.149 157.695 26 155.044 26H140.644Z" fill="#0D0938"/>
<path fill-rule="evenodd" clip-rule="evenodd" d="M155.044 66H140.644C139.65 66 138.844 66.8059 138.844 67.8V82.2C138.844 83.1941 139.65 84 140.644 84H155.044C156.038 84 156.844 83.1941 156.844 82.2V67.8C156.844 66.8059 156.038 66 155.044 66ZM140.644 63C137.993 63 135.844 65.149 135.844 67.8V82.2C135.844 84.851 137.993 87 140.644 87H155.044C157.695 87 159.844 84.851 159.844 82.2V67.8C159.844 65.149 157.695 63 155.044 63H140.644Z" fill="#0D0938"/>
<path fill-rule="evenodd" clip-rule="evenodd" d="M155.044 102H140.644C139.65 102 138.844 102.806 138.844 103.8V118.2C138.844 119.194 139.65 120 140.644 120H155.044C156.038 120 156.844 119.194 156.844 118.2V103.8C156.844 102.806 156.038 102 155.044 102ZM140.644 99C137.993 99 135.844 101.149 135.844 103.8V118.2C135.844 120.851 137.993 123 140.644 123H155.044C157.695 123 159.844 120.851 159.844 118.2V103.8C159.844 101.149 157.695 99 155.044 99H140.644Z" fill="#0D0938"/>
<path fill-rule="evenodd" clip-rule="evenodd" d="M138.044 136H118.644C117.65 136 116.844 136.806 116.844 137.8V171H139.844V137.8C139.844 136.806 139.038 136 138.044 136ZM118.644 133C115.993 133 113.844 135.149 113.844 137.8V174H142.844V137.8C142.844 135.149 140.695 133 138.044 133H118.644Z" fill="#0D0938"/>
<circle cx="40.4234" cy="47.5797" r="39.5797" fill="white"/>
<circle cx="40.4233" cy="53.5801" r="31" fill="#AAEFB2"/>
<path fill-rule="evenodd" clip-rule="evenodd" d="M71.4233 46.5801C71.4233 63.7009 57.5442 77.5801 40.4233 77.5801C23.3025 77.5801 9.42334 63.7009 9.42334 46.5801C9.42334 29.4593 23.3025 15.5801 40.4233 15.5801C57.5442 15.5801 71.4233 29.4593 71.4233 46.5801ZM60.2223 66.3791C54.755 71.8464 48.1553 74.5801 40.4233 74.5801C32.6914 74.5801 26.0917 71.8464 20.6244 66.3791C15.157 60.9117 12.4233 54.3121 12.4233 46.5801C12.4233 38.8481 15.157 32.2484 20.6244 26.7811C26.0917 21.3137 32.6914 18.5801 40.4233 18.5801C48.1553 18.5801 54.755 21.3137 60.2223 26.7811C65.6897 32.2484 68.4233 38.8481 68.4233 46.5801C68.4233 54.3121 65.6897 60.9117 60.2223 66.3791Z" fill="#0D0938"/>
<path fill-rule="evenodd" clip-rule="evenodd" d="M36.6949 40.4289L36.6828 40.4168L30.7257 34.4597C30.6857 34.4196 30.6495 34.3763 30.6173 34.3297C30.585 34.283 30.5572 34.2339 30.5338 34.1823C30.4824 34.0686 30.4547 33.9494 30.4506 33.8247C30.4466 33.7 30.4666 33.5792 30.5106 33.4625C30.5546 33.3457 30.6193 33.2418 30.7046 33.1508C30.79 33.0598 30.8895 32.9885 31.0032 32.9371C32.984 32.0407 35.0438 31.7874 37.1828 32.1771C39.3217 32.5669 41.1599 33.5304 42.6973 35.0678C44.2346 36.6051 45.1982 38.4433 45.5879 40.5822C45.9379 42.5034 45.7692 44.3607 45.0818 46.1543L55.5838 56.6563C56.4238 57.4963 56.8438 58.5103 56.8438 59.6982C56.8438 60.8861 56.4238 61.9 55.5838 62.74C54.7438 63.58 53.7298 64 52.5419 64C51.354 64 50.3401 63.58 49.5001 62.74L38.9981 52.238C37.2045 52.9255 35.3472 53.0942 33.426 52.7441C31.2871 52.3544 29.4489 51.3909 27.9115 49.8535C26.3742 48.3161 25.4106 46.478 25.0209 44.339C24.6312 42.2001 24.8845 40.1402 25.7808 38.1594C25.8042 38.1078 25.832 38.0586 25.8643 38.012C25.8965 37.9654 25.9327 37.9221 25.9727 37.882C26.1565 37.6983 26.3783 37.6064 26.6381 37.6064C26.8979 37.6064 27.1197 37.6983 27.3035 37.882L33.2697 43.8483C33.5699 44.1426 33.868 44.1448 34.1637 43.8549L36.6921 41.3267C36.9854 41.0274 36.9863 40.7281 36.6949 40.4289ZM26.8702 43.9996C26.6365 42.7168 26.6849 41.4687 27.0154 40.2553L31.9503 45.1902C33.1287 46.3453 34.3094 46.3431 35.4924 45.1835L38.0339 42.6419C39.1891 41.4635 39.1891 40.285 38.0339 39.1065L38.0273 39.0998L38.0115 39.084L33.0991 34.1716C34.3125 33.8411 35.5606 33.7928 36.8434 34.0265C38.597 34.346 40.104 35.136 41.3645 36.3964C42.6249 37.6568 43.4149 39.1639 43.7344 40.9175C44.0539 42.6711 43.8462 44.36 43.1113 45.9839C43.0306 46.1623 43.0078 46.3479 43.0429 46.5405C43.078 46.7332 43.1648 46.8987 43.3033 47.0372L54.251 57.9849C55.3918 59.1257 55.3918 60.2665 54.251 61.4072C53.7785 61.8798 53.2081 62.116 52.5398 62.116C51.8716 62.116 51.3012 61.8798 50.8287 61.4072L39.881 50.4595C39.7425 50.321 39.5769 50.2343 39.3843 50.1992C39.1916 50.164 39.0061 50.1869 38.8277 50.2676C37.2037 51.0025 35.5149 51.2102 33.7613 50.8906C32.0076 50.5711 30.5006 49.7811 29.2402 48.5207C27.9797 47.2603 27.1898 45.7533 26.8702 43.9996Z" fill="#0D0938"/>
<mask id="path-21-outside-1_646_1017" maskUnits="userSpaceOnUse" x="67.8438" y="106.355" width="115" height="78" fill="black">
<rect fill="white" x="67.8438" y="106.355" width="115" height="78"/>
<path fill-rule="evenodd" clip-rule="evenodd" d="M137.026 128.156C137.026 134.673 131.755 139.956 125.253 139.956C118.752 139.956 113.481 134.673 113.481 128.156C113.481 121.639 118.752 116.355 125.253 116.355C131.755 116.355 137.026 121.639 137.026 128.156ZM95.8506 143.58C90.6354 143.58 86.4077 139.37 86.4077 134.178C86.4077 128.985 90.6354 124.776 95.8506 124.776C101.066 124.776 105.293 128.985 105.293 134.178C105.293 139.37 101.066 143.58 95.8506 143.58ZM153.774 143.58C158.99 143.58 163.217 139.37 163.217 134.178C163.217 128.985 158.99 124.776 153.774 124.776C148.559 124.776 144.332 128.985 144.332 134.178C144.332 139.37 148.559 143.58 153.774 143.58ZM147.833 171.963V172.611C147.833 173.377 147.212 173.999 146.446 173.999H104.189C103.423 173.999 102.802 173.377 102.802 172.611V171.167L79.9534 170.703C78.7883 170.703 77.8438 169.758 77.8438 168.593V155.161C77.8438 149.179 82.693 144.33 88.6748 144.33H91.1605C92.7375 145.903 94.3184 146.69 95.9031 146.69C97.4879 146.69 99.0828 145.903 100.688 144.33L107.234 146.177C110.255 142.93 114.567 140.898 119.352 140.898C119.352 140.898 122.354 143.86 125.318 143.86C128.281 143.86 131.23 140.898 131.23 140.898C135.763 140.898 139.871 142.715 142.867 145.659L149.041 144.33C150.647 145.903 152.241 146.69 153.826 146.69C155.411 146.69 156.992 145.903 158.569 144.33H161.055C167.036 144.33 171.886 149.179 171.886 155.161V168.593C171.886 169.758 170.941 170.703 169.776 170.703L147.833 171.963Z"/>
</mask>
<path fill-rule="evenodd" clip-rule="evenodd" d="M137.026 128.156C137.026 134.673 131.755 139.956 125.253 139.956C118.752 139.956 113.481 134.673 113.481 128.156C113.481 121.639 118.752 116.355 125.253 116.355C131.755 116.355 137.026 121.639 137.026 128.156ZM95.8506 143.58C90.6354 143.58 86.4077 139.37 86.4077 134.178C86.4077 128.985 90.6354 124.776 95.8506 124.776C101.066 124.776 105.293 128.985 105.293 134.178C105.293 139.37 101.066 143.58 95.8506 143.58ZM153.774 143.58C158.99 143.58 163.217 139.37 163.217 134.178C163.217 128.985 158.99 124.776 153.774 124.776C148.559 124.776 144.332 128.985 144.332 134.178C144.332 139.37 148.559 143.58 153.774 143.58ZM147.833 171.963V172.611C147.833 173.377 147.212 173.999 146.446 173.999H104.189C103.423 173.999 102.802 173.377 102.802 172.611V171.167L79.9534 170.703C78.7883 170.703 77.8438 169.758 77.8438 168.593V155.161C77.8438 149.179 82.693 144.33 88.6748 144.33H91.1605C92.7375 145.903 94.3184 146.69 95.9031 146.69C97.4879 146.69 99.0828 145.903 100.688 144.33L107.234 146.177C110.255 142.93 114.567 140.898 119.352 140.898C119.352 140.898 122.354 143.86 125.318 143.86C128.281 143.86 131.23 140.898 131.23 140.898C135.763 140.898 139.871 142.715 142.867 145.659L149.041 144.33C150.647 145.903 152.241 146.69 153.826 146.69C155.411 146.69 156.992 145.903 158.569 144.33H161.055C167.036 144.33 171.886 149.179 171.886 155.161V168.593C171.886 169.758 170.941 170.703 169.776 170.703L147.833 171.963Z" fill="#AAEFB2"/>
<path d="M147.833 171.963L147.26 161.98L137.833 162.521V171.963H147.833ZM102.802 171.167H112.802V161.368L103.005 161.169L102.802 171.167ZM79.9534 170.703L80.1566 160.705L80.055 160.703H79.9534V170.703ZM91.1605 144.33L98.223 137.25L95.2955 134.33H91.1605V144.33ZM100.688 144.33L103.403 134.706L97.8264 133.133L93.6883 137.188L100.688 144.33ZM107.234 146.177L104.519 155.801L110.395 157.459L114.554 152.989L107.234 146.177ZM119.352 140.898L126.376 133.78L123.455 130.898H119.352V140.898ZM131.23 140.898V130.898H127.076L124.144 133.842L131.23 140.898ZM142.867 145.659L135.858 152.791L139.702 156.569L144.971 155.435L142.867 145.659ZM149.041 144.33L156.041 137.188L152.198 133.422L146.937 134.554L149.041 144.33ZM158.569 144.33V134.33H154.434L151.506 137.25L158.569 144.33ZM169.776 170.703V160.703H169.489L169.202 160.719L169.776 170.703ZM125.253 149.956C137.3 149.956 147.026 140.174 147.026 128.156H127.026C127.026 129.172 126.211 129.956 125.253 129.956V149.956ZM103.481 128.156C103.481 140.174 113.207 149.956 125.253 149.956V129.956C124.296 129.956 123.481 129.172 123.481 128.156H103.481ZM125.253 106.355C113.207 106.355 103.481 116.138 103.481 128.156H123.481C123.481 127.139 124.296 126.355 125.253 126.355V106.355ZM147.026 128.156C147.026 116.138 137.3 106.355 125.253 106.355V126.355C126.211 126.355 127.026 127.139 127.026 128.156H147.026ZM76.4077 134.178C76.4077 144.934 85.1535 153.579 95.8506 153.579V133.58C96.1174 133.58 96.4077 133.806 96.4077 134.178H76.4077ZM95.8506 114.776C85.1535 114.776 76.4077 123.421 76.4077 134.178H96.4077C96.4077 134.549 96.1174 134.776 95.8506 134.776V114.776ZM115.293 134.178C115.293 123.421 106.548 114.776 95.8506 114.776V134.776C95.5837 134.776 95.2934 134.549 95.2934 134.178H115.293ZM95.8506 153.579C106.548 153.579 115.293 144.934 115.293 134.178H95.2934C95.2934 133.806 95.5837 133.58 95.8506 133.58V153.579ZM153.217 134.178C153.217 133.806 153.508 133.58 153.774 133.58V153.579C164.471 153.579 173.217 144.934 173.217 134.178H153.217ZM153.774 134.776C153.508 134.776 153.217 134.549 153.217 134.178H173.217C173.217 123.421 164.471 114.776 153.774 114.776V134.776ZM154.332 134.178C154.332 134.549 154.041 134.776 153.774 134.776V114.776C143.077 114.776 134.332 123.421 134.332 134.178H154.332ZM153.774 133.58C154.041 133.58 154.332 133.806 154.332 134.178H134.332C134.332 144.934 143.077 153.579 153.774 153.579V133.58ZM137.833 171.963V172.611H157.833V171.963H137.833ZM137.833 172.611C137.833 167.855 141.689 163.999 146.446 163.999V183.999C152.735 183.999 157.833 178.9 157.833 172.611H137.833ZM146.446 163.999H104.189V183.999H146.446V163.999ZM104.189 163.999C108.946 163.999 112.802 167.855 112.802 172.611H92.802C92.802 178.9 97.9003 183.999 104.189 183.999V163.999ZM112.802 172.611V171.167H92.802V172.611H112.802ZM79.7503 180.701L102.599 181.165L103.005 161.169L80.1566 160.705L79.7503 180.701ZM67.8438 168.593C67.8438 175.281 73.2654 180.703 79.9534 180.703V160.703C84.3112 160.703 87.8438 164.235 87.8438 168.593H67.8438ZM67.8438 155.161V168.593H87.8438V155.161H67.8438ZM88.6748 134.33C77.1701 134.33 67.8438 143.656 67.8438 155.161H87.8438C87.8438 154.702 88.2158 154.33 88.6748 154.33V134.33ZM91.1605 134.33H88.6748V154.33H91.1605V134.33ZM95.9031 136.69C96.8258 136.69 97.5499 136.931 97.9836 137.147C98.3719 137.34 98.439 137.466 98.223 137.25L84.098 151.41C86.7794 154.085 90.7514 156.69 95.9031 156.69V136.69ZM93.6883 137.188C93.4522 137.42 93.4995 137.311 93.8648 137.131C94.2735 136.93 94.9831 136.69 95.9031 136.69V156.69C101.032 156.69 105 154.106 107.688 151.472L93.6883 137.188ZM109.949 136.552L103.403 134.706L97.9728 153.954L104.519 155.801L109.949 136.552ZM114.554 152.989C115.764 151.69 117.458 150.898 119.352 150.898V130.898C111.675 130.898 104.747 134.169 99.913 139.364L114.554 152.989ZM119.352 140.898C112.329 148.017 112.33 148.018 112.332 148.02C112.333 148.021 112.335 148.023 112.336 148.024C112.338 148.026 112.341 148.028 112.343 148.031C112.348 148.036 112.353 148.041 112.359 148.046C112.37 148.057 112.381 148.068 112.394 148.081C112.419 148.105 112.447 148.132 112.479 148.163C112.543 148.223 112.62 148.296 112.71 148.379C112.889 148.544 113.122 148.753 113.403 148.991C113.955 149.458 114.744 150.084 115.712 150.723C117.318 151.784 120.845 153.86 125.318 153.86V133.86C126.202 133.86 126.742 134.07 126.831 134.105C126.942 134.149 126.904 134.147 126.735 134.035C126.583 133.934 126.435 133.819 126.332 133.731C126.285 133.692 126.261 133.669 126.264 133.672C126.266 133.674 126.276 133.683 126.294 133.701C126.303 133.709 126.314 133.72 126.328 133.733C126.335 133.74 126.342 133.747 126.35 133.755C126.354 133.759 126.358 133.763 126.362 133.767C126.364 133.769 126.367 133.771 126.369 133.773C126.37 133.774 126.372 133.776 126.372 133.777C126.374 133.778 126.376 133.78 119.352 140.898ZM125.318 153.86C129.808 153.86 133.331 151.77 134.942 150.693C135.909 150.047 136.695 149.415 137.245 148.942C137.525 148.701 137.757 148.49 137.935 148.323C138.025 148.239 138.102 148.165 138.165 148.103C138.197 148.073 138.226 148.045 138.251 148.02C138.264 148.007 138.275 147.996 138.286 147.985C138.292 147.979 138.297 147.974 138.302 147.969C138.305 147.966 138.307 147.964 138.309 147.962C138.311 147.96 138.312 147.959 138.313 147.958C138.315 147.956 138.317 147.954 131.23 140.898C124.144 133.842 124.146 133.841 124.148 133.839C124.148 133.838 124.15 133.837 124.151 133.836C124.153 133.833 124.156 133.831 124.158 133.829C124.162 133.825 124.166 133.82 124.17 133.816C124.178 133.808 124.186 133.801 124.193 133.794C124.207 133.78 124.218 133.769 124.228 133.76C124.247 133.741 124.257 133.731 124.26 133.728C124.266 133.723 124.245 133.743 124.202 133.78C124.106 133.863 123.969 133.971 123.828 134.065C123.672 134.17 123.648 134.165 123.774 134.114C123.88 134.072 124.429 133.86 125.318 133.86V153.86ZM131.23 150.898C133.036 150.898 134.656 151.61 135.858 152.791L149.876 138.527C145.086 133.819 138.49 130.898 131.23 130.898V150.898ZM144.971 155.435L151.145 154.106L146.937 134.554L140.763 135.883L144.971 155.435ZM142.042 151.472C144.729 154.106 148.697 156.69 153.826 156.69V136.69C154.746 136.69 155.456 136.93 155.865 137.131C156.23 137.311 156.277 137.42 156.041 137.188L142.042 151.472ZM153.826 156.69C158.978 156.69 162.95 154.085 165.631 151.41L151.506 137.25C151.29 137.466 151.357 137.34 151.746 137.147C152.179 136.931 152.904 136.69 153.826 136.69V156.69ZM158.569 154.33H161.055V134.33H158.569V154.33ZM161.055 154.33C161.514 154.33 161.886 154.702 161.886 155.161H181.886C181.886 143.656 172.559 134.33 161.055 134.33V154.33ZM161.886 155.161V168.593H181.886V155.161H161.886ZM161.886 168.593C161.886 164.235 165.418 160.703 169.776 160.703V180.703C176.464 180.703 181.886 175.281 181.886 168.593H161.886ZM169.202 160.719L147.26 161.98L148.407 181.947L170.349 180.686L169.202 160.719Z" fill="white" mask="url(#path-21-outside-1_646_1017)"/>
<path fill-rule="evenodd" clip-rule="evenodd" d="M89.808 131.819C89.808 137.011 94.0357 141.221 99.2508 141.221C104.466 141.221 108.694 137.011 108.694 131.819C108.694 126.626 104.466 122.417 99.2508 122.417C94.0357 122.417 89.808 126.626 89.808 131.819ZM93.37 137.664C94.9933 139.281 96.9532 140.089 99.2496 140.089C101.546 140.089 103.506 139.281 105.129 137.664C106.751 136.049 107.562 134.1 107.562 131.817C107.562 129.534 106.751 127.585 105.129 125.97C103.506 124.354 101.546 123.545 99.2496 123.545C96.9532 123.545 94.9933 124.354 93.37 125.97C91.748 127.585 90.937 129.534 90.937 131.817C90.937 134.1 91.748 136.049 93.37 137.664Z" fill="#0D0938"/>
<path fill-rule="evenodd" clip-rule="evenodd" d="M105.944 168.346H83.248C82.0828 168.346 81.1383 167.401 81.1383 166.236V152.804C81.1383 146.822 85.9875 141.973 91.9693 141.973H94.455C96.032 143.546 97.6129 144.333 99.1976 144.333C100.782 144.333 102.377 143.546 103.982 141.973H106.308C106.308 141.973 107.083 141.974 107.87 142.144C108.188 142.213 107.833 143.275 107.56 143.217C107.202 143.142 106.785 143.104 106.307 143.103L104.433 143.103C102.718 144.677 100.972 145.463 99.1976 145.463C97.4215 145.463 95.6886 144.677 93.9991 143.103H91.9693C89.2905 143.103 87.004 144.05 85.1098 145.945C83.2156 147.839 82.2685 150.125 82.2685 152.804V166.236C82.2685 166.889 82.595 167.215 83.248 167.215H105.944V168.346Z" fill="#0D0938"/>
<path fill-rule="evenodd" clip-rule="evenodd" d="M165.901 131.819C165.901 137.011 161.673 141.221 156.458 141.221C151.243 141.221 147.015 137.011 147.015 131.819C147.015 126.626 151.243 122.417 156.458 122.417C161.673 122.417 165.901 126.626 165.901 131.819ZM162.339 137.664C160.715 139.281 158.755 140.089 156.459 140.089C154.162 140.089 152.203 139.281 150.579 137.664C148.957 136.049 148.146 134.1 148.146 131.817C148.146 129.534 148.957 127.585 150.579 125.97C152.203 124.354 154.162 123.545 156.459 123.545C158.755 123.545 160.715 124.354 162.339 125.97C163.96 127.585 164.771 129.534 164.771 131.817C164.771 134.1 163.96 136.049 162.339 137.664Z" fill="#0D0938"/>
<path fill-rule="evenodd" clip-rule="evenodd" d="M149.764 168.346H172.459C173.624 168.346 174.569 167.401 174.569 166.236V152.804C174.569 146.822 169.72 141.973 163.738 141.973H161.252C159.675 143.546 158.094 144.333 156.51 144.333C154.925 144.333 153.33 143.546 151.725 141.973H149.399C149.399 141.973 148.792 141.974 148.107 142.092C147.705 142.161 148.123 143.2 148.588 143.147C148.836 143.118 149.107 143.104 149.4 143.103L151.274 143.103C152.99 144.677 154.735 145.463 156.51 145.463C158.286 145.463 160.019 144.677 161.708 143.103H163.738C166.417 143.103 168.703 144.05 170.598 145.945C172.492 147.839 173.439 150.125 173.439 152.804V166.236C173.439 166.889 173.112 167.215 172.459 167.215H149.764V168.346Z" fill="#0D0938"/>
<path fill-rule="evenodd" clip-rule="evenodd" d="M139.712 125.8C139.712 132.318 134.442 137.601 127.94 137.601C121.438 137.601 116.167 132.318 116.167 125.8C116.167 119.283 121.438 114 127.94 114C134.442 114 139.712 119.283 139.712 125.8ZM135.263 133.146C133.24 135.174 130.799 136.187 127.939 136.187C125.079 136.187 122.637 135.174 120.614 133.146C118.59 131.118 117.579 128.669 117.579 125.8C117.579 122.931 118.59 120.482 120.614 118.453C122.637 116.426 125.079 115.412 127.939 115.412C130.799 115.412 133.24 116.426 135.263 118.453C137.287 120.482 138.299 122.931 138.299 125.8C138.299 128.669 137.287 131.118 135.263 133.146Z" fill="#0D0938"/>
<path fill-rule="evenodd" clip-rule="evenodd" d="M122.039 138.545H113.764C111.479 138.545 109.528 139.353 107.913 140.969C106.297 142.584 105.489 144.535 105.489 146.82V169.009C105.489 169.737 105.746 170.358 106.261 170.873C106.776 171.388 107.398 171.645 108.126 171.645H147.884C148.612 171.645 149.233 171.388 149.748 170.873C150.263 170.358 150.52 169.737 150.52 169.009V146.846C150.52 144.554 149.71 142.597 148.089 140.976C146.468 139.355 144.511 138.545 142.219 138.545H133.917C133.917 138.545 130.968 141.507 128.005 141.507C125.041 141.507 122.039 138.545 122.039 138.545ZM121.473 139.957H113.763C111.868 139.957 110.251 140.627 108.911 141.967C107.571 143.307 106.901 144.924 106.901 146.819V169.008C106.901 169.824 107.309 170.232 108.125 170.232H147.883C148.699 170.232 149.107 169.824 149.107 169.008V146.845C149.107 144.943 148.434 143.32 147.089 141.975C145.744 140.63 144.121 139.957 142.219 139.957H134.489C132.382 141.932 130.22 142.919 128.004 142.919C125.789 142.919 123.612 141.932 121.473 139.957Z" fill="#0D0938"/>
</svg>
