<svg width="156" height="166" viewBox="0 0 156 166" fill="none" xmlns="http://www.w3.org/2000/svg">
<path fill-rule="evenodd" clip-rule="evenodd" d="M102.356 3.16044C100.406 1.60009 97.9825 0.75 95.4847 0.75H11.3433C5.26813 0.75 0.343262 5.67487 0.343262 11.75V144.75C0.343262 150.825 5.26813 155.75 11.3433 155.75H113.343C119.418 155.75 124.343 150.825 124.343 144.75V26.0369C124.343 22.6953 122.824 19.5348 120.215 17.4473L102.356 3.16044Z" fill="#EBF4EC"/>
<path fill-rule="evenodd" clip-rule="evenodd" d="M106.485 7.25C109.408 7.25 112.011 8.16297 114.293 9.98892L132.153 24.2763C135.28 26.7781 136.844 30.0315 136.844 34.0364V152.751C136.844 156.202 135.623 159.149 133.183 161.589C130.742 164.03 127.796 165.25 124.345 165.25H22.3425C18.891 165.25 15.945 164.03 13.5044 161.589C11.0638 159.149 9.8435 156.203 9.84351 152.751V19.749C9.84351 16.2975 11.0638 13.3515 13.5044 10.9109C15.945 8.47029 18.891 7.25 22.3425 7.25H106.485ZM106.485 10.25H22.3425C19.7194 10.25 17.4805 11.1774 15.6257 13.0322C13.7709 14.887 12.8435 17.1259 12.8435 19.749V152.751C12.8435 155.374 13.7709 157.613 15.6257 159.468C17.4805 161.323 19.7194 162.25 22.3425 162.25H124.345C126.968 162.25 129.207 161.323 131.061 159.468C132.916 157.613 133.843 155.374 133.843 152.751V34.0364C133.844 30.9927 132.655 28.5203 130.278 26.6189L112.419 12.3315C110.685 10.9438 108.707 10.25 106.485 10.25Z" fill="#0D0938"/>
<path fill-rule="evenodd" clip-rule="evenodd" d="M133.408 31.2486L116.668 31.9764C114.535 32.0692 112.698 31.3774 111.156 29.901C109.614 28.4247 108.843 26.6192 108.843 24.4845V9.75C108.843 9.33579 108.99 8.98223 109.283 8.68934C109.575 8.39645 109.929 8.25 110.343 8.25C110.757 8.25 111.111 8.39645 111.404 8.68934C111.697 8.98223 111.843 9.33579 111.843 9.75V24.4845C111.843 25.7652 112.306 26.8484 113.231 27.7341C114.156 28.6199 115.258 29.0349 116.538 28.9793L131.699 28.3201L133.278 28.2514C133.477 28.2428 133.67 28.2725 133.857 28.3406C134.043 28.4086 134.21 28.5099 134.357 28.6443C134.503 28.7787 134.619 28.936 134.703 29.1163C134.787 29.2966 134.833 29.4861 134.842 29.6848C134.86 30.0987 134.729 30.4582 134.449 30.7636C134.169 31.0689 133.822 31.2306 133.408 31.2486Z" fill="#0D0938"/>
<rect x="21.3435" y="80.75" width="52" height="3" rx="1.5" fill="#0D0938"/>
<rect x="21.3435" y="95.75" width="80" height="3" rx="1.5" fill="#0D0938"/>
<rect x="21.3435" y="111.75" width="100" height="3" rx="1.5" fill="#0D0938"/>
<path fill-rule="evenodd" clip-rule="evenodd" d="M29.3425 31.25H77.3445C79.6914 31.25 81.6947 32.0798 83.3542 33.7393C85.0137 35.3988 85.8435 37.4021 85.8435 39.749V60.751C85.8435 63.0979 85.0137 65.1012 83.3542 66.7607C81.6947 68.4202 79.6914 69.25 77.3445 69.25H29.3425C26.9956 69.25 24.9923 68.4202 23.3328 66.7607C21.6733 65.1012 20.8435 63.0979 20.8435 60.751V39.749C20.8435 37.4021 21.6733 35.3988 23.3328 33.7393C24.9923 32.0798 26.9956 31.25 29.3425 31.25ZM29.3425 34.25C27.824 34.25 26.5279 34.7869 25.4541 35.8606C24.3804 36.9344 23.8435 38.2305 23.8435 39.749V60.751C23.8435 62.2695 24.3804 63.5656 25.4541 64.6394C26.5279 65.7131 27.824 66.25 29.3425 66.25H77.3445C78.863 66.25 80.1591 65.7131 81.2329 64.6394C82.3066 63.5656 82.8435 62.2695 82.8435 60.751V39.749C82.8435 38.2305 82.3066 36.9344 81.2329 35.8606C80.1591 34.7869 78.863 34.25 77.3445 34.25H29.3425Z" fill="#0D0938"/>
<rect x="32.8433" y="45.25" width="1" height="11" rx="0.5" stroke="black"/>
<rect x="38.3433" y="45.75" width="5" height="10" rx="2.5" stroke="black" stroke-width="2"/>
<rect x="48.3433" y="45.75" width="5" height="10" rx="2.5" stroke="black" stroke-width="2"/>
<rect x="58.3433" y="45.75" width="5" height="10" rx="2.5" stroke="black" stroke-width="2"/>
<rect x="68.3433" y="45.75" width="5" height="10" rx="2.5" stroke="black" stroke-width="2"/>
<path fill-rule="evenodd" clip-rule="evenodd" d="M23.1671 137.392L33.4038 141.182C34.4221 141.559 34.8385 141.444 34.653 140.838L34.0942 139.012L33.7129 137.767C33.5903 137.366 33.8584 137.282 34.5174 137.514L44.9446 141.185C44.995 141.203 45.0362 141.211 45.0684 141.211C45.1007 141.21 45.1213 141.201 45.1305 141.182C45.1397 141.163 45.1366 141.137 45.1214 141.103C45.1061 141.069 45.0798 141.03 45.0425 140.986C45.0051 140.942 44.9595 140.896 44.9057 140.849C44.8519 140.801 44.794 140.755 44.732 140.712C44.67 140.668 44.6086 140.629 44.5478 140.596C44.487 140.563 44.4314 140.537 44.3811 140.52L33.9538 136.849C32.9906 136.51 32.5987 136.633 32.7781 137.219L33.2839 138.871L33.7181 140.29C33.8451 140.705 33.5602 140.783 32.8634 140.525L24.0606 137.266L22.6268 136.735C22.5196 136.695 22.4546 136.693 22.4316 136.73C22.4086 136.766 22.4344 136.829 22.509 136.92C22.5836 137.01 22.6852 137.102 22.8137 137.194C22.9422 137.286 23.06 137.352 23.1671 137.392Z" fill="#0D0938" stroke="#0D0938" stroke-width="2"/>
<rect x="22.3433" y="146.75" width="69" height="3" rx="1.5" fill="#0D0938"/>
<path fill-rule="evenodd" clip-rule="evenodd" d="M127.055 60.9741C127.76 60.1075 129.041 59.9848 129.898 60.7017L154.436 81.2258C155.273 81.9257 155.392 83.1654 154.704 84.0122L111.226 137.532C110.966 137.852 110.614 138.084 110.218 138.196L82.0092 146.213C80.624 146.607 79.2881 145.459 79.4752 144.035L83.2569 115.25C83.305 114.884 83.4542 114.538 83.6879 114.251L127.055 60.9741Z" fill="white"/>
<path fill-rule="evenodd" clip-rule="evenodd" d="M124.345 62.3084C125.052 61.4407 126.334 61.3188 127.191 62.0379L145.696 77.5666C146.531 78.2671 146.649 79.5051 145.962 80.3509L109.011 125.837C108.769 126.134 108.446 126.357 108.081 126.477L85.7333 133.826C84.2995 134.297 82.8787 133.079 83.1324 131.595L87.0804 108.505C87.1383 108.166 87.2828 107.848 87.4999 107.581L124.345 62.3084Z" fill="#AAEFB2"/>
<path fill-rule="evenodd" clip-rule="evenodd" d="M130.143 66.8334L148.905 81.9772C149.576 82.5191 149.957 83.2184 150.047 84.0751C150.137 84.9318 149.91 85.695 149.366 86.3646L111.952 132.417C111.59 132.863 111.139 133.184 110.6 133.382L88.4682 141.506C87.3559 141.914 86.3394 141.746 85.4187 141.003C84.4979 140.26 84.1223 139.304 84.2916 138.134L87.6617 114.867C87.7438 114.3 87.9658 113.794 88.3276 113.349L125.741 67.2959C127.055 65.6793 128.522 65.5251 130.143 66.8334ZM128.453 68.9129C128.222 68.7263 128.013 68.7483 127.826 68.9789L90.4123 115.031C90.3607 115.095 90.329 115.167 90.3173 115.248L86.9473 138.514C86.9232 138.681 86.9767 138.818 87.108 138.924C87.2393 139.03 87.3843 139.053 87.5429 138.995L109.674 130.872C109.751 130.844 109.816 130.798 109.867 130.734L147.28 84.6822C147.468 84.4517 147.446 84.2431 147.215 84.0566L128.453 68.9129Z" fill="#0D0938"/>
<rect width="29.4811" height="2.67832" transform="matrix(0.778125 0.628109 -0.630531 0.776164 89.4878 112.618)" fill="#0D0938"/>
<rect width="2.6801" height="44.6387" rx="1.34005" transform="matrix(0.778125 0.628109 -0.630531 0.776164 126.872 75.1013)" fill="#0D0938"/>
</svg>
