<svg width="195" height="148" viewBox="0 0 195 148" fill="none" xmlns="http://www.w3.org/2000/svg">
<path fill-rule="evenodd" clip-rule="evenodd" d="M92.3438 11.2205C91.661 10.464 90.7734 9.88717 89.7402 9.58229C83.1679 7.64298 69.3903 3.98073 53.4783 2.10872C38.0158 0.289605 22.5114 0.393217 14.4749 0.6267C11.305 0.718796 8.84375 3.33012 8.84375 6.50141V133.997C8.84375 137.955 12.608 140.849 16.4496 139.897C25.554 137.641 41.2084 134.05 54.2682 132.514C67.0611 131.009 79.8886 131.178 87.3365 131.484C89.3176 131.566 91.1359 130.714 92.3438 129.324C93.5516 130.714 95.3699 131.566 97.351 131.484C104.799 131.178 117.626 131.009 130.419 132.514C143.479 134.05 159.133 137.641 168.238 139.897C172.08 140.849 175.844 137.955 175.844 133.997V6.50141C175.844 3.33012 173.383 0.718796 170.213 0.6267C162.176 0.393217 146.672 0.289605 131.209 2.10872C115.297 3.98073 101.52 7.64298 94.9473 9.58229C93.9141 9.88717 93.0265 10.464 92.3438 11.2205Z" fill="#EBF4EC"/>
<g clip-path="url(#clip0_646_989)">
<path d="M118.844 123.5H109.844C109.291 123.5 108.844 123.052 108.844 122.5V108.914C108.844 108.649 108.949 108.395 109.137 108.207L123.137 94.2071C123.527 93.8166 124.16 93.8166 124.551 94.2071L138.551 108.207C138.738 108.395 138.844 108.649 138.844 108.914V122.5C138.844 123.052 138.396 123.5 137.844 123.5H128.844M118.844 123.5H128.844M118.844 123.5V112.833C118.844 112.281 119.291 111.833 119.844 111.833H127.844C128.396 111.833 128.844 112.281 128.844 112.833V123.5" stroke="#0D0938" stroke-width="3" stroke-linejoin="round"/>
</g>
<path fill-rule="evenodd" clip-rule="evenodd" d="M123.56 12.0884C107.877 13.9334 94.2774 17.5475 87.7963 19.4599C86.6569 19.7961 85.8438 20.8635 85.8438 22.1603V132.332C85.8438 134.08 87.363 135.564 89.2278 135.487C96.7471 135.178 109.752 135.003 122.77 136.534C136.028 138.094 151.836 141.725 160.959 143.986C162.944 144.478 164.844 142.97 164.844 140.997V13.5017C164.844 11.9017 163.622 10.6692 162.125 10.6257C154.15 10.394 138.812 10.294 123.56 12.0884ZM86.9473 16.5825C84.4806 17.3104 82.8438 19.5884 82.8438 22.1603V132.332C82.8438 135.844 85.842 138.629 89.351 138.485C96.7989 138.178 109.626 138.009 122.419 139.514C135.479 141.05 151.133 144.642 160.238 146.898C164.08 147.85 167.844 144.955 167.844 140.997V13.5017C167.844 10.3304 165.382 7.71904 162.213 7.62694C154.176 7.39346 138.672 7.28985 123.209 9.10897C107.297 10.981 93.5196 14.6432 86.9473 16.5825Z" fill="#0D0938"/>
<rect x="92.8438" y="67.8596" width="62" height="3" rx="1.5" fill="#0D0938"/>
<rect x="92.8438" y="81.8596" width="50" height="3" rx="1.5" fill="#0D0938"/>
<path fill-rule="evenodd" clip-rule="evenodd" d="M101.343 20.5002H149.345C151.692 20.5002 153.695 21.33 155.354 22.9895C157.014 24.6491 157.844 26.6523 157.844 28.9992V50.0012C157.844 52.3482 157.014 54.3514 155.354 56.0109C153.695 57.6705 151.692 58.5003 149.345 58.5002H101.343C98.9958 58.5002 96.9926 57.6705 95.333 56.0109C93.6735 54.3514 92.8438 52.3482 92.8438 50.0012V28.9992C92.8438 26.6523 93.6735 24.6491 95.333 22.9895C96.9926 21.33 98.9958 20.5002 101.343 20.5002ZM101.343 23.5002C99.8242 23.5002 98.5281 24.0371 97.4544 25.1109C96.3806 26.1846 95.8438 27.4807 95.8438 28.9992V50.0012C95.8438 51.5197 96.3806 52.8159 97.4544 53.8896C98.5281 54.9634 99.8242 55.5002 101.343 55.5002H149.345C150.863 55.5002 152.159 54.9634 153.233 53.8896C154.307 52.8159 154.844 51.5197 154.844 50.0012V28.9992C154.844 27.4807 154.307 26.1846 153.233 25.1109C152.159 24.0371 150.863 23.5002 149.345 23.5002H101.343Z" fill="#0D0938"/>
<path fill-rule="evenodd" clip-rule="evenodd" d="M45.1277 12.0884C60.8102 13.9334 74.4101 17.5475 80.8912 19.4599C82.0306 19.7961 82.8438 20.8635 82.8438 22.1603V132.332C82.8438 134.08 81.3245 135.564 79.4597 135.487C71.9404 135.178 58.9352 135.003 45.9177 136.534C32.6596 138.094 16.8518 141.725 7.72805 143.986C5.74331 144.478 3.84375 142.97 3.84375 140.997V13.5017C3.84375 11.9017 5.06548 10.6692 6.56207 10.6257C14.5372 10.394 29.8756 10.294 45.1277 12.0884ZM81.7402 16.5825C84.2069 17.3104 85.8438 19.5884 85.8438 22.1603V132.332C85.8438 135.844 82.8455 138.629 79.3365 138.485C71.8886 138.178 59.0611 138.009 46.2682 139.514C33.2084 141.05 17.554 144.642 8.44963 146.898C4.60797 147.85 0.84375 144.955 0.84375 140.997V13.5017C0.84375 10.3304 3.305 7.71904 6.47495 7.62694C14.5115 7.39346 30.0158 7.28985 45.4783 9.10897C61.3903 10.981 75.1679 14.6432 81.7402 16.5825Z" fill="#0D0938"/>
<rect width="50" height="3" rx="1.5" transform="matrix(-1 0 0 1 63.8438 103.858)" fill="#0D0938"/>
<rect width="40" height="3" rx="1.5" transform="matrix(-1 0 0 1 53.8438 117.858)" fill="#0D0938"/>
<g clip-path="url(#clip1_646_989)">
<path d="M20.8438 26H68.8438C72.4336 26 75.3438 28.9102 75.3438 32.5V70.7222V80.5C75.3438 84.0899 72.4336 87 68.8438 87H20.8438C17.2539 87 14.3438 84.0899 14.3438 80.5V77.8333V32.5C14.3438 28.9101 17.2539 26 20.8438 26Z" stroke="#0D0938" stroke-width="3" stroke-linejoin="round"/>
<circle cx="26.8438" cy="38.5" r="5" stroke="#0D0938" stroke-width="3" stroke-linejoin="round"/>
</g>
<circle cx="154.423" cy="55.0797" r="39.5797" fill="white"/>
<circle cx="148.423" cy="57.0801" r="31" fill="#AAEFB2"/>
<path fill-rule="evenodd" clip-rule="evenodd" d="M154.423 83.0801C169.887 83.0801 182.423 70.5441 182.423 55.0801C182.423 39.6161 169.887 27.0801 154.423 27.0801C138.959 27.0801 126.423 39.6161 126.423 55.0801C126.423 70.5441 138.959 83.0801 154.423 83.0801ZM154.423 86.0801C171.544 86.0801 185.423 72.2009 185.423 55.0801C185.423 37.9593 171.544 24.0801 154.423 24.0801C137.303 24.0801 123.423 37.9593 123.423 55.0801C123.423 72.2009 137.303 86.0801 154.423 86.0801Z" fill="#0D0938"/>
<path fill-rule="evenodd" clip-rule="evenodd" d="M139.844 45.0526C139.844 44.7474 140.096 44.5 140.407 44.5H169.28C169.592 44.5 169.844 44.7474 169.844 45.0526V64.9474C169.844 65.2526 169.592 65.5 169.28 65.5H140.407C140.096 65.5 139.844 65.2526 139.844 64.9474V45.0526ZM141.767 45.6053L154.775 58.3651L167.911 45.6053H141.767ZM168.717 46.3777L155.17 59.5374C154.949 59.7514 154.594 59.7506 154.375 59.5355L140.971 46.3868V64.3947H168.717V46.3777Z" fill="#0D0938" stroke="#0D0938" stroke-linecap="round" stroke-linejoin="round"/>
<defs>
<clipPath id="clip0_646_989">
<rect width="34" height="34" fill="white" transform="translate(106.844 91.5)"/>
</clipPath>
<clipPath id="clip1_646_989">
<rect width="67" height="67" fill="white" transform="translate(9.84375 21.5)"/>
</clipPath>
</defs>
</svg>
