<svg width="152" height="186" viewBox="0 0 152 186" fill="none" xmlns="http://www.w3.org/2000/svg">
<path fill-rule="evenodd" clip-rule="evenodd" d="M102.356 2.91044C100.406 1.35009 97.9825 0.5 95.4847 0.5H11.3433C5.26813 0.5 0.343262 5.42487 0.343262 11.5V144.5C0.343262 150.575 5.26813 155.5 11.3433 155.5H113.343C119.418 155.5 124.343 150.575 124.343 144.5V25.7869C124.343 22.4453 122.824 19.2848 120.215 17.1973L102.356 2.91044Z" fill="#EBF4EC"/>
<path fill-rule="evenodd" clip-rule="evenodd" d="M106.485 7C109.408 7 112.011 7.91297 114.293 9.73892L132.153 24.0263C135.28 26.5281 136.844 29.7815 136.844 33.7864V152.501C136.844 155.952 135.623 158.899 133.183 161.339C130.742 163.78 127.796 165 124.345 165H22.3425C18.891 165 15.945 163.78 13.5044 161.339C11.0638 158.899 9.8435 155.953 9.84351 152.501V19.499C9.84351 16.0475 11.0638 13.1015 13.5044 10.6609C15.945 8.22029 18.891 7 22.3425 7H106.485ZM106.485 10H22.3425C19.7194 10 17.4805 10.9274 15.6257 12.7822C13.7709 14.637 12.8435 16.8759 12.8435 19.499V152.501C12.8435 155.124 13.7709 157.363 15.6257 159.218C17.4805 161.073 19.7194 162 22.3425 162H124.345C126.968 162 129.207 161.073 131.061 159.218C132.916 157.363 133.843 155.124 133.843 152.501V33.7864C133.844 30.7427 132.655 28.2703 130.278 26.3689L112.419 12.0815C110.685 10.6938 108.707 10 106.485 10Z" fill="#0D0938"/>
<path fill-rule="evenodd" clip-rule="evenodd" d="M133.408 30.9986L116.668 31.7264C114.535 31.8192 112.698 31.1274 111.156 29.651C109.614 28.1747 108.843 26.3692 108.843 24.2345V9.5C108.843 9.08579 108.99 8.73223 109.283 8.43934C109.575 8.14645 109.929 8 110.343 8C110.757 8 111.111 8.14645 111.404 8.43934C111.697 8.73223 111.843 9.08579 111.843 9.5V24.2345C111.843 25.5152 112.306 26.5984 113.231 27.4841C114.156 28.3699 115.258 28.7849 116.538 28.7293L131.699 28.0701L133.278 28.0014C133.477 27.9928 133.67 28.0225 133.857 28.0906C134.043 28.1586 134.21 28.2599 134.357 28.3943C134.503 28.5287 134.619 28.686 134.703 28.8663C134.787 29.0466 134.833 29.2361 134.842 29.4348C134.86 29.8487 134.729 30.2082 134.449 30.5136C134.169 30.8189 133.822 30.9806 133.408 30.9986Z" fill="#0D0938"/>
<rect x="21.3435" y="80.5" width="52" height="3" rx="1.5" fill="#0D0938"/>
<rect x="21.3435" y="95.5" width="80" height="3" rx="1.5" fill="#0D0938"/>
<rect x="21.3435" y="111.5" width="100" height="3" rx="1.5" fill="#0D0938"/>
<rect x="22.3435" y="126.5" width="60" height="3" rx="1.5" fill="#0D0938"/>
<rect x="23.3435" y="142.5" width="40" height="3" rx="1.5" fill="#0D0938"/>
<path fill-rule="evenodd" clip-rule="evenodd" d="M29.3425 31H77.3445C79.6914 31 81.6947 31.8298 83.3542 33.4893C85.0137 35.1488 85.8435 37.1521 85.8435 39.499V60.501C85.8435 62.8479 85.0137 64.8512 83.3542 66.5107C81.6947 68.1702 79.6914 69 77.3445 69H29.3425C26.9956 69 24.9923 68.1702 23.3328 66.5107C21.6733 64.8512 20.8435 62.8479 20.8435 60.501V39.499C20.8435 37.1521 21.6733 35.1488 23.3328 33.4893C24.9923 31.8298 26.9956 31 29.3425 31ZM29.3425 34C27.824 34 26.5279 34.5369 25.4541 35.6106C24.3804 36.6844 23.8435 37.9805 23.8435 39.499V60.501C23.8435 62.0195 24.3804 63.3156 25.4541 64.3894C26.5279 65.4631 27.824 66 29.3425 66H77.3445C78.863 66 80.1591 65.4631 81.2329 64.3894C82.3066 63.3156 82.8435 62.0195 82.8435 60.501V39.499C82.8435 37.9805 82.3066 36.6844 81.2329 35.6106C80.1591 34.5369 78.863 34 77.3445 34H29.3425Z" fill="#0D0938"/>
<circle cx="110.923" cy="145.08" r="39.5797" fill="white"/>
<circle cx="114.923" cy="146.08" r="31" fill="#AAEFB2"/>
<path fill-rule="evenodd" clip-rule="evenodd" d="M108.923 172.08C124.387 172.08 136.923 159.544 136.923 144.08C136.923 128.616 124.387 116.08 108.923 116.08C93.4589 116.08 80.9229 128.616 80.9229 144.08C80.9229 159.544 93.4589 172.08 108.923 172.08ZM108.923 175.08C126.044 175.08 139.923 161.201 139.923 144.08C139.923 126.959 126.044 113.08 108.923 113.08C91.802 113.08 77.9229 126.959 77.9229 144.08C77.9229 161.201 91.802 175.08 108.923 175.08Z" fill="#0D0938"/>
<path d="M91.4818 140.484C90.4988 145.189 94.204 150.791 98.8573 155.444C103.511 160.097 109.112 163.802 113.818 162.82C117.941 161.958 119.914 159.674 120.983 157.852C121.229 157.433 121.1 156.901 120.71 156.61L114.616 152.064C114.217 151.767 113.662 151.808 113.311 152.159L110.13 155.339C110.13 155.339 107.32 154.426 103.598 150.704C99.8751 146.981 98.9619 144.172 98.9619 144.172L102.143 140.991C102.494 140.64 102.534 140.084 102.237 139.686L97.6909 133.591C97.4001 133.201 96.8684 133.073 96.4489 133.319C94.6269 134.388 92.3431 136.36 91.4818 140.484Z" stroke="#0D0938" stroke-width="3" stroke-linecap="round" stroke-linejoin="round"/>
<rect width="11.8307" height="2.67864" rx="1.33932" transform="matrix(0.951056 -0.309017 -0.309017 -0.951056 118.931 146.482)" fill="#0D0938"/>
<rect x="107.756" y="134.558" width="11.8307" height="2.67864" rx="1.33932" transform="rotate(-67 107.756 134.558)" fill="#0D0938"/>
<rect x="114.052" y="138.236" width="11.8307" height="2.67864" rx="1.33932" transform="rotate(-47 114.052 138.236)" fill="#0D0938"/>
</svg>
