<svg width="205" height="192" viewBox="0 0 205 192" fill="none" xmlns="http://www.w3.org/2000/svg">
<path fill-rule="evenodd" clip-rule="evenodd" d="M69.3433 0.5C64.925 0.5 61.3433 4.08173 61.3433 8.5V50.5318C61.1461 50.5108 60.946 50.5 60.7433 50.5H5.94326C2.85047 50.5 0.343262 53.0072 0.343262 56.1V160.9C0.343262 163.993 2.85047 166.5 5.94326 166.5H60.7433C62.243 166.5 63.6051 165.91 64.6103 164.95C65.9357 165.925 67.5723 166.5 69.3433 166.5H147.343C151.762 166.5 155.343 162.918 155.343 158.5V8.5C155.343 4.08172 151.762 0.5 147.343 0.5H69.3433Z" fill="#EBF4EC"/>
<path fill-rule="evenodd" clip-rule="evenodd" d="M12.9433 58C10.6789 58 8.84326 59.8356 8.84326 62.1V166.9C8.84326 169.164 10.6789 171 12.9433 171H67.7433C68.5717 171 69.2433 171.672 69.2433 172.5C69.2433 173.328 68.5717 174 67.7433 174H12.9433C9.02204 174 5.84326 170.821 5.84326 166.9V62.1C5.84326 58.1788 9.02204 55 12.9433 55H67.7433C68.5717 55 69.2433 55.6716 69.2433 56.5C69.2433 57.3284 68.5717 58 67.7433 58H12.9433Z" fill="#0D0938"/>
<path fill-rule="evenodd" clip-rule="evenodd" d="M31.9833 74.5H21.7033C21.5044 74.5 21.3433 74.6612 21.3433 74.86V85.14C21.3433 85.3388 21.5044 85.5 21.7033 85.5H31.9833C32.1821 85.5 32.3433 85.3388 32.3433 85.14V74.86C32.3433 74.6612 32.1821 74.5 31.9833 74.5ZM21.7033 71.5C19.8476 71.5 18.3433 73.0043 18.3433 74.86V85.14C18.3433 86.9957 19.8476 88.5 21.7033 88.5H31.9833C33.8389 88.5 35.3433 86.9957 35.3433 85.14V74.86C35.3433 73.0043 33.8389 71.5 31.9833 71.5H21.7033Z" fill="#0D0938"/>
<path fill-rule="evenodd" clip-rule="evenodd" d="M31.9833 110.5H21.7033C21.5044 110.5 21.3433 110.661 21.3433 110.86V121.14C21.3433 121.339 21.5044 121.5 21.7033 121.5H31.9833C32.1821 121.5 32.3433 121.339 32.3433 121.14V110.86C32.3433 110.661 32.1821 110.5 31.9833 110.5ZM21.7033 107.5C19.8476 107.5 18.3433 109.004 18.3433 110.86V121.14C18.3433 122.996 19.8476 124.5 21.7033 124.5H31.9833C33.8389 124.5 35.3433 122.996 35.3433 121.14V110.86C35.3433 109.004 33.8389 107.5 31.9833 107.5H21.7033Z" fill="#0D0938"/>
<path fill-rule="evenodd" clip-rule="evenodd" d="M31.9833 147.5H21.7033C21.5044 147.5 21.3433 147.661 21.3433 147.86V158.14C21.3433 158.339 21.5044 158.5 21.7033 158.5H31.9833C32.1821 158.5 32.3433 158.339 32.3433 158.14V147.86C32.3433 147.661 32.1821 147.5 31.9833 147.5ZM21.7033 144.5C19.8476 144.5 18.3433 146.004 18.3433 147.86V158.14C18.3433 159.996 19.8476 161.5 21.7033 161.5H31.9833C33.8389 161.5 35.3433 159.996 35.3433 158.14V147.86C35.3433 146.004 33.8389 144.5 31.9833 144.5H21.7033Z" fill="#0D0938"/>
<path fill-rule="evenodd" clip-rule="evenodd" d="M60.9833 74.5H50.7033C50.5044 74.5 50.3433 74.6612 50.3433 74.86V85.14C50.3433 85.3388 50.5044 85.5 50.7033 85.5H60.9833C61.1821 85.5 61.3433 85.3388 61.3433 85.14V74.86C61.3433 74.6612 61.1821 74.5 60.9833 74.5ZM50.7033 71.5C48.8476 71.5 47.3433 73.0043 47.3433 74.86V85.14C47.3433 86.9957 48.8476 88.5 50.7033 88.5H60.9833C62.8389 88.5 64.3433 86.9957 64.3433 85.14V74.86C64.3433 73.0043 62.8389 71.5 60.9833 71.5H50.7033Z" fill="#0D0938"/>
<path fill-rule="evenodd" clip-rule="evenodd" d="M60.9833 110.5H50.7033C50.5044 110.5 50.3433 110.661 50.3433 110.86V121.14C50.3433 121.339 50.5044 121.5 50.7033 121.5H60.9833C61.1821 121.5 61.3433 121.339 61.3433 121.14V110.86C61.3433 110.661 61.1821 110.5 60.9833 110.5ZM50.7033 107.5C48.8476 107.5 47.3433 109.004 47.3433 110.86V121.14C47.3433 122.996 48.8476 124.5 50.7033 124.5H60.9833C62.8389 124.5 64.3433 122.996 64.3433 121.14V110.86C64.3433 109.004 62.8389 107.5 60.9833 107.5H50.7033Z" fill="#0D0938"/>
<path fill-rule="evenodd" clip-rule="evenodd" d="M60.9833 147.5H50.7033C50.5044 147.5 50.3433 147.661 50.3433 147.86V158.14C50.3433 158.339 50.5044 158.5 50.7033 158.5H60.9833C61.1821 158.5 61.3433 158.339 61.3433 158.14V147.86C61.3433 147.661 61.1821 147.5 60.9833 147.5ZM50.7033 144.5C48.8476 144.5 47.3433 146.004 47.3433 147.86V158.14C47.3433 159.996 48.8476 161.5 50.7033 161.5H60.9833C62.8389 161.5 64.3433 159.996 64.3433 158.14V147.86C64.3433 146.004 62.8389 144.5 60.9833 144.5H50.7033Z" fill="#0D0938"/>
<path fill-rule="evenodd" clip-rule="evenodd" d="M157.343 11.5H79.3433C76.5818 11.5 74.3433 13.7386 74.3433 16.5V166.5C74.3433 169.261 76.5818 171.5 79.3433 171.5H157.343C160.105 171.5 162.343 169.261 162.343 166.5V16.5C162.343 13.7386 160.105 11.5 157.343 11.5ZM79.3433 8.5C74.925 8.5 71.3433 12.0817 71.3433 16.5V166.5C71.3433 170.918 74.925 174.5 79.3433 174.5H157.343C161.762 174.5 165.343 170.918 165.343 166.5V16.5C165.343 12.0817 161.762 8.5 157.343 8.5H79.3433Z" fill="#0D0938"/>
<path fill-rule="evenodd" clip-rule="evenodd" d="M104.543 29.5H90.1433C89.1491 29.5 88.3433 30.3059 88.3433 31.3V45.7C88.3433 46.6941 89.1491 47.5 90.1433 47.5H104.543C105.537 47.5 106.343 46.6941 106.343 45.7V31.3C106.343 30.3059 105.537 29.5 104.543 29.5ZM90.1433 26.5C87.4923 26.5 85.3433 28.649 85.3433 31.3V45.7C85.3433 48.351 87.4923 50.5 90.1433 50.5H104.543C107.194 50.5 109.343 48.351 109.343 45.7V31.3C109.343 28.649 107.194 26.5 104.543 26.5H90.1433Z" fill="#0D0938"/>
<path fill-rule="evenodd" clip-rule="evenodd" d="M104.543 66.5H90.1433C89.1491 66.5 88.3433 67.3059 88.3433 68.3V82.7C88.3433 83.6941 89.1491 84.5 90.1433 84.5H104.543C105.537 84.5 106.343 83.6941 106.343 82.7V68.3C106.343 67.3059 105.537 66.5 104.543 66.5ZM90.1433 63.5C87.4923 63.5 85.3433 65.649 85.3433 68.3V82.7C85.3433 85.351 87.4923 87.5 90.1433 87.5H104.543C107.194 87.5 109.343 85.351 109.343 82.7V68.3C109.343 65.649 107.194 63.5 104.543 63.5H90.1433Z" fill="#0D0938"/>
<path fill-rule="evenodd" clip-rule="evenodd" d="M104.543 102.5H90.1433C89.1491 102.5 88.3433 103.306 88.3433 104.3V118.7C88.3433 119.694 89.1491 120.5 90.1433 120.5H104.543C105.537 120.5 106.343 119.694 106.343 118.7V104.3C106.343 103.306 105.537 102.5 104.543 102.5ZM90.1433 99.5C87.4923 99.5 85.3433 101.649 85.3433 104.3V118.7C85.3433 121.351 87.4923 123.5 90.1433 123.5H104.543C107.194 123.5 109.343 121.351 109.343 118.7V104.3C109.343 101.649 107.194 99.5 104.543 99.5H90.1433Z" fill="#0D0938"/>
<path fill-rule="evenodd" clip-rule="evenodd" d="M145.543 29.5H131.143C130.149 29.5 129.343 30.3059 129.343 31.3V45.7C129.343 46.6941 130.149 47.5 131.143 47.5H145.543C146.537 47.5 147.343 46.6941 147.343 45.7V31.3C147.343 30.3059 146.537 29.5 145.543 29.5ZM131.143 26.5C128.492 26.5 126.343 28.649 126.343 31.3V45.7C126.343 48.351 128.492 50.5 131.143 50.5H145.543C148.194 50.5 150.343 48.351 150.343 45.7V31.3C150.343 28.649 148.194 26.5 145.543 26.5H131.143Z" fill="#0D0938"/>
<path fill-rule="evenodd" clip-rule="evenodd" d="M145.543 66.5H131.143C130.149 66.5 129.343 67.3059 129.343 68.3V82.7C129.343 83.6941 130.149 84.5 131.143 84.5H145.543C146.537 84.5 147.343 83.6941 147.343 82.7V68.3C147.343 67.3059 146.537 66.5 145.543 66.5ZM131.143 63.5C128.492 63.5 126.343 65.649 126.343 68.3V82.7C126.343 85.351 128.492 87.5 131.143 87.5H145.543C148.194 87.5 150.343 85.351 150.343 82.7V68.3C150.343 65.649 148.194 63.5 145.543 63.5H131.143Z" fill="#0D0938"/>
<path fill-rule="evenodd" clip-rule="evenodd" d="M145.543 102.5H131.143C130.149 102.5 129.343 103.306 129.343 104.3V118.7C129.343 119.694 130.149 120.5 131.143 120.5H145.543C146.537 120.5 147.343 119.694 147.343 118.7V104.3C147.343 103.306 146.537 102.5 145.543 102.5ZM131.143 99.5C128.492 99.5 126.343 101.649 126.343 104.3V118.7C126.343 121.351 128.492 123.5 131.143 123.5H145.543C148.194 123.5 150.343 121.351 150.343 118.7V104.3C150.343 101.649 148.194 99.5 145.543 99.5H131.143Z" fill="#0D0938"/>
<path fill-rule="evenodd" clip-rule="evenodd" d="M128.543 136.5H109.143C108.149 136.5 107.343 137.306 107.343 138.3V171.5H130.343V138.3C130.343 137.306 129.537 136.5 128.543 136.5ZM109.143 133.5C106.492 133.5 104.343 135.649 104.343 138.3V174.5H133.343V138.3C133.343 135.649 131.194 133.5 128.543 133.5H109.143Z" fill="#0D0938"/>
<path d="M141.394 89.6678C128.048 89.7693 117.413 100.994 117.516 114.617C117.584 123.498 122.191 131.272 129.074 135.591C130.522 136.5 132.381 135.993 133.217 134.563C134.03 133.173 133.626 131.339 132.221 130.458C127.037 127.204 123.539 121.328 123.487 114.571C123.408 104.174 131.501 95.7842 141.44 95.7086C151.378 95.6331 159.598 103.899 159.677 114.296C159.689 115.898 160.971 117.307 162.685 117.294C164.399 117.281 165.66 115.853 165.648 114.251C165.544 100.628 154.739 89.5663 141.394 89.6678Z" fill="#0D0938" stroke="white" stroke-width="4" stroke-linecap="round"/>
<path d="M135.367 125.016L134.358 126.578L135.367 125.016C132.052 122.875 129.774 118.976 129.74 114.449C129.687 107.458 134.952 101.985 141.218 101.937C147.484 101.889 152.832 107.282 152.885 114.273C152.898 115.902 154.194 117.364 155.962 117.351C157.73 117.337 159.004 115.855 158.991 114.227C158.914 104.071 151.061 95.6607 141.171 95.7359C131.281 95.8111 123.557 104.34 123.634 114.496C123.684 121.134 127.033 126.981 132.091 130.248C133.572 131.205 135.483 130.69 136.347 129.228C137.181 127.816 136.793 125.936 135.367 125.016Z" fill="#0D0938" stroke="white" stroke-width="4" stroke-linecap="round"/>
<mask id="path-19-outside-1_646_878" maskUnits="userSpaceOnUse" x="124.461" y="95.1462" width="81.911" height="100.092" fill="black">
<rect fill="white" x="124.461" y="95.1462" width="81.911" height="100.092"/>
<path fill-rule="evenodd" clip-rule="evenodd" d="M137.461 114.769L147.145 138.7L147.024 138.745L150.685 148.819C147.479 145.765 145.172 143.739 143.766 142.741C141.657 141.244 139.087 141.614 137.833 143.617C136.998 144.952 137.217 146.597 138.491 148.551C143.388 152.438 148.791 157.144 154.699 162.669C160.607 168.193 167.779 169.925 176.214 167.865C186.708 163.357 190.802 156.425 188.496 147.069L181.86 130.543C181.74 130.535 181.618 130.528 181.496 130.523L177.532 120.57C176.699 118.478 174.359 117.465 172.307 118.306C170.254 119.148 169.265 121.525 170.098 123.617L173.088 131.125C172.879 131.159 172.667 131.194 172.454 131.23L168.197 120.71C167.354 118.628 164.98 117.623 162.894 118.464C160.807 119.306 159.799 121.676 160.641 123.758L164.393 133.029C163.994 133.135 163.591 133.245 163.184 133.358L158.258 121.185C157.415 119.103 155.041 118.098 152.955 118.939C150.868 119.781 149.86 122.151 150.702 124.233L155.369 135.764C155.187 135.825 155.004 135.886 154.821 135.948L145.016 111.721C144.174 109.639 141.8 108.634 139.713 109.475C137.627 110.317 136.618 112.687 137.461 114.769ZM195.883 169.102L193.01 163.174C192.263 161.633 190.419 160.992 188.891 161.742L170.212 170.912C168.683 171.662 168.05 173.519 168.796 175.06L171.669 180.988C172.416 182.529 174.26 183.17 175.788 182.42L194.467 173.25C195.996 172.5 196.629 170.643 195.883 169.102Z"/>
</mask>
<path fill-rule="evenodd" clip-rule="evenodd" d="M137.461 114.769L147.145 138.7L147.024 138.745L150.685 148.819C147.479 145.765 145.172 143.739 143.766 142.741C141.657 141.244 139.087 141.614 137.833 143.617C136.998 144.952 137.217 146.597 138.491 148.551C143.388 152.438 148.791 157.144 154.699 162.669C160.607 168.193 167.779 169.925 176.214 167.865C186.708 163.357 190.802 156.425 188.496 147.069L181.86 130.543C181.74 130.535 181.618 130.528 181.496 130.523L177.532 120.57C176.699 118.478 174.359 117.465 172.307 118.306C170.254 119.148 169.265 121.525 170.098 123.617L173.088 131.125C172.879 131.159 172.667 131.194 172.454 131.23L168.197 120.71C167.354 118.628 164.98 117.623 162.894 118.464C160.807 119.306 159.799 121.676 160.641 123.758L164.393 133.029C163.994 133.135 163.591 133.245 163.184 133.358L158.258 121.185C157.415 119.103 155.041 118.098 152.955 118.939C150.868 119.781 149.86 122.151 150.702 124.233L155.369 135.764C155.187 135.825 155.004 135.886 154.821 135.948L145.016 111.721C144.174 109.639 141.8 108.634 139.713 109.475C137.627 110.317 136.618 112.687 137.461 114.769ZM195.883 169.102L193.01 163.174C192.263 161.633 190.419 160.992 188.891 161.742L170.212 170.912C168.683 171.662 168.05 173.519 168.796 175.06L171.669 180.988C172.416 182.529 174.26 183.17 175.788 182.42L194.467 173.25C195.996 172.5 196.629 170.643 195.883 169.102Z" fill="#AAEFB2"/>
<path d="M147.145 138.7L149.971 146.184C151.986 145.423 153.61 143.881 154.474 141.908C155.338 139.934 155.369 137.696 154.561 135.699L147.145 138.7ZM137.461 114.769L130.045 117.77L137.461 114.769ZM147.024 138.745L144.198 131.261C140.1 132.808 138.009 137.362 139.505 141.478L147.024 138.745ZM150.685 148.819L145.168 154.612C147.857 157.173 151.955 157.547 155.064 155.514C158.172 153.481 159.472 149.577 158.204 146.086L150.685 148.819ZM143.766 142.741L139.136 149.265L139.136 149.265L143.766 142.741ZM137.833 143.617L131.052 139.372L131.052 139.372L137.833 143.617ZM138.491 148.551L131.79 152.92C132.26 153.641 132.843 154.281 133.517 154.816L138.491 148.551ZM154.699 162.669L149.235 168.512L149.235 168.512L154.699 162.669ZM176.214 167.865L178.112 175.637C178.543 175.531 178.964 175.391 179.372 175.216L176.214 167.865ZM188.496 147.069L196.264 145.155C196.174 144.792 196.059 144.435 195.92 144.088L188.496 147.069ZM181.86 130.543L189.284 127.562C188.134 124.697 185.438 122.75 182.357 122.558L181.86 130.543ZM181.496 130.523L174.064 133.483C175.225 136.397 177.981 138.364 181.115 138.514L181.496 130.523ZM177.532 120.57L170.1 123.53L177.532 120.57ZM172.307 118.306L169.273 110.904L169.273 110.904L172.307 118.306ZM170.098 123.617L177.53 120.657L170.098 123.617ZM173.088 131.125L174.36 139.023C176.757 138.638 178.848 137.184 180.047 135.073C181.245 132.961 181.419 130.42 180.521 128.165L173.088 131.125ZM172.454 131.23L165.038 134.231C166.449 137.717 170.096 139.75 173.803 139.116L172.454 131.23ZM168.197 120.71L160.781 123.711L160.781 123.711L168.197 120.71ZM162.894 118.464L159.901 111.045L159.901 111.045L162.894 118.464ZM160.641 123.758L168.057 120.757L168.057 120.757L160.641 123.758ZM164.393 133.029L166.457 140.758C168.673 140.166 170.528 138.652 171.552 136.599C172.576 134.547 172.669 132.154 171.809 130.028L164.393 133.029ZM163.184 133.358L155.768 136.359C157.294 140.13 161.407 142.155 165.326 141.066L163.184 133.358ZM158.258 121.185L150.842 124.186L150.842 124.186L158.258 121.185ZM152.955 118.939L149.962 111.52L149.962 111.52L152.955 118.939ZM150.702 124.233L158.118 121.232L158.118 121.232L150.702 124.233ZM155.369 135.764L157.906 143.351C160 142.651 161.711 141.117 162.635 139.112C163.558 137.107 163.613 134.809 162.785 132.763L155.369 135.764ZM154.821 135.948L147.405 138.949C148.994 142.876 153.368 144.883 157.381 143.528L154.821 135.948ZM145.016 111.721L137.601 114.722L137.601 114.722L145.016 111.721ZM139.713 109.475L142.706 116.894L142.706 116.894L139.713 109.475ZM193.01 163.174L200.209 159.685L193.01 163.174ZM195.883 169.102L188.684 172.591L188.684 172.591L195.883 169.102ZM188.891 161.742L185.365 154.561L185.365 154.561L188.891 161.742ZM170.212 170.912L166.686 163.73L166.686 163.73L170.212 170.912ZM168.796 175.06L175.995 171.571L175.995 171.571L168.796 175.06ZM171.669 180.988L164.47 184.477L164.47 184.477L171.669 180.988ZM175.788 182.42L179.314 189.601L179.314 189.601L175.788 182.42ZM194.467 173.25L190.942 166.069L190.942 166.069L194.467 173.25ZM154.561 135.699L144.877 111.768L130.045 117.77L139.729 141.701L154.561 135.699ZM149.849 146.23L149.971 146.184L144.319 131.215L144.198 131.261L149.849 146.23ZM158.204 146.086L154.542 136.013L139.505 141.478L143.166 151.552L158.204 146.086ZM139.136 149.265C140.014 149.888 141.94 151.538 145.168 154.612L156.202 143.026C153.017 139.992 150.331 137.59 148.396 136.217L139.136 149.265ZM144.615 147.862C143.986 148.865 142.878 149.601 141.639 149.782C140.465 149.954 139.588 149.586 139.136 149.265L148.396 136.217C143.207 132.534 135.163 132.806 131.052 139.372L144.615 147.862ZM145.192 144.181C144.959 143.824 145.202 144.056 145.301 144.795C145.354 145.195 145.359 145.713 145.238 146.298C145.116 146.888 144.891 147.419 144.615 147.862L131.052 139.372C127.817 144.541 129.745 149.784 131.79 152.92L145.192 144.181ZM160.163 156.825C154.14 151.193 148.571 146.338 143.465 142.285L133.517 154.816C138.205 158.537 143.441 163.095 149.235 168.512L160.163 156.825ZM174.316 160.094C168.273 161.569 163.933 160.35 160.163 156.825L149.235 168.512C157.282 176.036 167.285 178.281 178.112 175.637L174.316 160.094ZM180.729 148.984C181.486 152.057 181.045 153.9 180.267 155.217C179.378 156.722 177.376 158.659 173.057 160.515L179.372 175.216C185.547 172.563 190.839 168.78 194.044 163.353C197.36 157.738 197.812 151.438 196.264 145.155L180.729 148.984ZM174.436 133.524L181.072 150.05L195.92 144.088L189.284 127.562L174.436 133.524ZM181.115 138.514C181.199 138.518 181.282 138.522 181.364 138.527L182.357 122.558C182.197 122.548 182.037 122.539 181.877 122.532L181.115 138.514ZM170.1 123.53L174.064 133.483L188.928 127.562L184.964 117.61L170.1 123.53ZM175.34 125.709C173.172 126.597 170.871 125.467 170.1 123.53L184.964 117.61C182.526 111.49 175.546 108.332 169.273 110.904L175.34 125.709ZM177.53 120.657C178.28 122.539 177.448 124.845 175.34 125.709L169.273 110.904C163.059 113.45 160.25 120.512 162.666 126.577L177.53 120.657ZM180.521 128.165L177.53 120.657L162.666 126.577L165.656 134.085L180.521 128.165ZM173.803 139.116C173.991 139.084 174.176 139.053 174.36 139.023L171.817 123.227C171.581 123.265 171.344 123.304 171.106 123.345L173.803 139.116ZM160.781 123.711L165.038 134.231L179.87 128.229L175.613 117.709L160.781 123.711ZM165.886 125.883C163.89 126.689 161.599 125.733 160.781 123.711L175.613 117.709C173.109 111.523 166.07 108.557 159.901 111.045L165.886 125.883ZM168.057 120.757C168.878 122.785 167.889 125.076 165.886 125.883L159.901 111.045C153.725 113.536 150.72 120.566 153.226 126.759L168.057 120.757ZM171.809 130.028L168.057 120.757L153.226 126.759L156.977 136.03L171.809 130.028ZM165.326 141.066C165.708 140.96 166.085 140.857 166.457 140.758L162.329 125.3C161.904 125.413 161.475 125.53 161.042 125.65L165.326 141.066ZM150.842 124.186L155.768 136.359L170.6 130.357L165.674 118.184L150.842 124.186ZM155.947 126.358C153.951 127.164 151.66 126.208 150.842 124.186L165.674 118.184C163.17 111.998 156.131 109.032 149.962 111.52L155.947 126.358ZM158.118 121.232C158.939 123.26 157.95 125.55 155.947 126.358L149.962 111.52C143.786 114.011 140.781 121.041 143.287 127.234L158.118 121.232ZM162.785 132.763L158.118 121.232L143.287 127.234L147.953 138.765L162.785 132.763ZM157.381 143.528C157.557 143.468 157.732 143.409 157.906 143.351L152.831 128.177C152.642 128.241 152.452 128.305 152.261 128.369L157.381 143.528ZM137.601 114.722L147.405 138.949L162.237 132.947L152.432 108.72L137.601 114.722ZM142.706 116.894C140.71 117.7 138.419 116.744 137.601 114.722L152.432 108.72C149.929 102.534 142.889 99.5675 136.72 102.056L142.706 116.894ZM144.877 111.768C145.698 113.796 144.708 116.086 142.706 116.894L136.72 102.056C130.545 104.547 127.539 111.577 130.045 117.77L144.877 111.768ZM185.811 166.662L188.684 172.591L203.082 165.613L200.209 159.685L185.811 166.662ZM192.416 168.924C189.925 170.146 186.979 169.073 185.811 166.662L200.209 159.685C197.547 154.192 190.913 151.838 185.365 154.561L192.416 168.924ZM173.737 178.093L192.416 168.924L185.365 154.561L166.686 163.73L173.737 178.093ZM175.995 171.571C177.15 173.954 176.198 176.885 173.737 178.093L166.686 163.73C161.168 166.439 158.949 173.084 161.597 178.549L175.995 171.571ZM178.868 177.499L175.995 171.571L161.597 178.549L164.47 184.477L178.868 177.499ZM172.263 175.238C174.754 174.016 177.7 175.088 178.868 177.499L164.47 184.477C167.132 189.969 173.767 192.324 179.314 189.601L172.263 175.238ZM190.942 166.069L172.263 175.238L179.314 189.601L197.993 180.432L190.942 166.069ZM188.684 172.591C187.529 170.208 188.481 167.277 190.942 166.069L197.993 180.432C203.511 177.723 205.73 171.078 203.082 165.613L188.684 172.591Z" fill="white" mask="url(#path-19-outside-1_646_878)"/>
<path fill-rule="evenodd" clip-rule="evenodd" d="M140.531 109.889C139.87 108.247 138.011 107.458 136.382 108.118C134.751 108.779 133.959 110.645 134.621 112.288L144.316 136.355C144.372 136.493 144.39 136.642 144.37 136.787L147.913 146.502C148.048 146.874 147.91 147.289 147.58 147.506C147.249 147.723 146.813 147.684 146.527 147.412C143.302 144.353 141.025 142.365 139.668 141.406C137.875 140.139 135.872 140.521 134.915 142.043C134.344 142.952 134.367 144.181 135.492 145.949C140.407 149.841 145.818 154.538 151.724 160.038C157.418 165.341 164.304 167.025 172.502 165.047C177.643 162.835 181.115 160.077 183.042 156.827C184.957 153.599 185.411 149.778 184.314 145.291L177.807 129.137C177.696 129.048 177.607 128.93 177.552 128.793L173.572 118.913C172.911 117.272 171.052 116.482 169.423 117.142C167.792 117.803 167 119.669 167.662 121.312L170.644 128.716C170.741 128.957 170.723 129.228 170.595 129.454C170.467 129.68 170.243 129.835 169.987 129.875C169.655 129.927 169.319 129.983 168.979 130.042C168.583 130.11 168.194 129.893 168.044 129.521L163.821 119.038C163.159 117.397 161.301 116.607 159.671 117.267C158.04 117.928 157.249 119.794 157.911 121.437L161.632 130.675C161.723 130.901 161.713 131.155 161.603 131.374C161.494 131.592 161.297 131.753 161.061 131.816C160.739 131.902 160.414 131.99 160.086 132.08C159.669 132.195 159.232 131.979 159.07 131.577L154.259 119.633C153.597 117.991 151.738 117.202 150.109 117.862C148.478 118.523 147.686 120.389 148.348 122.032L152.891 133.31C152.979 133.528 152.973 133.773 152.874 133.986C152.775 134.199 152.593 134.362 152.37 134.436C152.053 134.541 151.735 134.648 151.414 134.756C150.986 134.9 150.52 134.686 150.352 134.267L140.531 109.889ZM142.588 136.623L133.041 112.924C132.03 110.415 133.236 107.555 135.742 106.54C138.249 105.524 141.1 106.742 142.111 109.253L146.47 120.073C146.728 118.427 147.815 116.954 149.469 116.284C151.976 115.268 154.827 116.486 155.838 118.997L156.032 119.478C156.29 117.832 157.378 116.359 159.031 115.689C161.538 114.673 164.389 115.891 165.401 118.402L165.784 119.353C166.042 117.707 167.129 116.234 168.783 115.564C171.29 114.548 174.141 115.766 175.152 118.277L178.996 127.819C179.107 127.908 179.196 128.026 179.251 128.163L185.917 144.711C185.932 144.748 185.944 144.786 185.954 144.824C187.153 149.68 186.702 153.996 184.507 157.696C182.324 161.376 178.481 164.339 173.107 166.64C173.064 166.659 173.019 166.674 172.973 166.685C164.239 168.813 156.729 167.027 150.563 161.285C144.637 155.766 139.225 151.071 134.325 147.198C134.253 147.141 134.191 147.073 134.141 146.996C132.778 144.914 132.375 142.883 133.473 141.136C135.039 138.646 138.204 138.286 140.651 140.015C141.691 140.75 143.176 142.001 145.097 143.752L142.635 137C142.59 136.875 142.575 136.746 142.588 136.623Z" fill="#0D0938"/>
<path fill-rule="evenodd" clip-rule="evenodd" d="M188.657 161.406C188.119 160.299 186.791 159.843 185.694 160.38L167.083 169.485C165.984 170.023 165.524 171.357 166.063 172.465L168.923 178.347C169.461 179.454 170.788 179.911 171.886 179.374L190.497 170.268C191.596 169.73 192.056 168.397 191.517 167.288L188.657 161.406ZM184.945 158.85C186.893 157.897 189.24 158.711 190.189 160.662L193.049 166.544C193.996 168.493 193.192 170.846 191.246 171.798L172.634 180.904C170.687 181.857 168.34 181.043 167.391 179.092L164.531 173.21C163.584 171.261 164.388 168.908 166.334 167.956L184.945 158.85Z" fill="#0D0938"/>
</svg>
