<svg width="152" height="51" viewBox="0 0 152 51" fill="none" xmlns="http://www.w3.org/2000/svg">
<g clip-path="url(#clip0_175_1125)">
<path d="M29.6724 39.7217C29.6724 39.7604 29.657 39.7974 29.6296 39.8247C29.6022 39.8521 29.5651 39.8674 29.5263 39.8674H6.2465C4.63541 39.8674 3.09031 39.2288 1.95109 38.092C0.811878 36.9552 0.171875 35.4134 0.171875 33.8057V6.17829C0.171875 4.5397 0.824186 2.96823 1.98531 1.80958C3.14643 0.650925 4.72125 0 6.36332 0V33.7474H23.6854C25.2732 33.7474 26.796 34.3769 27.9188 35.4973C29.0416 36.6177 29.6724 38.1372 29.6724 39.7217Z" fill="white"/>
<path d="M29.672 39.7217C29.672 39.7604 29.6566 39.7974 29.6292 39.8248C29.6018 39.8521 29.5647 39.8674 29.5259 39.8674H12.9516C11.2887 39.8675 9.68849 39.2342 8.4777 38.0968C7.2669 36.9594 6.53683 35.4038 6.43652 33.7474H23.685C25.2728 33.7474 26.7956 34.3769 27.9184 35.4973C29.0412 36.6177 29.672 38.1372 29.672 39.7217Z" fill="white"/>
<path d="M40.8963 23.0228C40.8963 24.0067 40.8881 25.085 40.8834 26.2285C40.8682 30.3342 40.8519 35.2885 40.8378 39.8196C40.832 41.6008 40.8262 43.3167 40.8203 44.887C40.8151 46.5096 40.1656 48.0641 39.0141 49.2099C37.8625 50.3557 36.3029 50.9994 34.6768 51H6.19145C5.37837 51 4.57326 50.8402 3.82208 50.5297C3.0709 50.2192 2.38836 49.7641 1.81343 49.1904C1.2385 48.6167 0.782445 47.9356 0.471296 47.186C0.160146 46.4364 0 45.633 0 44.8217H34.5237L34.5424 29.3562C34.5443 27.6758 35.2145 26.0649 36.4059 24.8774C37.5973 23.6899 39.2123 23.0228 40.8963 23.0228Z" fill="white"/>
<path d="M40.887 26.2285C40.8718 30.3342 40.8555 35.2884 40.8414 39.8196C40.5086 41.2589 39.6965 42.543 38.5378 43.4621C37.379 44.3813 35.9422 44.8811 34.4619 44.8799V44.8217H34.5238L34.5425 29.3561C34.5419 28.2594 34.8277 27.1814 35.3719 26.2285H40.887Z" fill="white"/>
<path d="M41.0037 0.356735C41.0037 0.913947 40.9955 3.19758 40.9815 6.52803V6.6446C40.9757 7.83246 40.971 9.15088 40.9651 10.5696C40.957 12.233 40.9488 14.0329 40.9406 15.9214C40.9332 17.5907 40.2635 19.1893 39.078 20.3672C37.8925 21.5451 36.2878 22.2066 34.6148 22.2069H28.2119C27.4218 22.207 26.6394 22.0519 25.9094 21.7502C25.1795 21.4486 24.5162 21.0064 23.9575 20.4489C23.3988 19.8914 22.9556 19.2295 22.6534 18.501C22.3511 17.7726 22.1956 16.9919 22.1957 16.2035C22.1959 16.1806 22.2005 16.1581 22.2094 16.1371C22.2183 16.1161 22.2312 16.097 22.2475 16.081C22.2638 16.065 22.2831 16.0523 22.3042 16.0437C22.3254 16.0351 22.3481 16.0308 22.3709 16.0309H34.5599L34.5704 6.64693V6.58864H18.5661L18.5381 23.0182C18.5351 24.6627 17.8819 26.2396 16.7204 27.4063C15.5589 28.573 13.9829 29.2351 12.335 29.249C12.335 29.249 12.3607 15.2406 12.3758 6.66092C12.3774 5.81807 12.5454 4.9838 12.8704 4.20583C13.1954 3.42786 13.6709 2.72146 14.2697 2.12705C14.8685 1.53263 15.5789 1.06188 16.3602 0.741705C17.1416 0.421534 17.9785 0.258234 18.8231 0.261147L23.7296 0.28213L41.0037 0.356735Z" fill="white"/>
<path d="M41.0345 6.52808V9.61722C41.0351 10.4517 40.8708 11.2781 40.5511 12.0492C40.2313 12.8203 39.7624 13.5209 39.1711 14.1109C38.5798 14.701 37.8776 15.1689 37.1049 15.488C36.3322 15.8071 35.504 15.971 34.6678 15.9704H34.6094V6.52808H41.0345Z" fill="white"/>
<path d="M41.0339 6.528V6.64457H18.6045C18.6045 6.62476 18.6045 6.6061 18.6045 6.58629C18.6177 5.11147 19.1321 3.68478 20.0634 2.53959C20.9948 1.3944 22.2881 0.598505 23.7317 0.282104L41.0035 0.35671C41.0035 0.913922 40.9953 3.19756 40.9813 6.528H41.0339Z" fill="white"/>
<path d="M69.4198 12.1712V12.6817C68.838 12.6988 68.398 12.763 68.0997 12.8741C67.9585 12.9226 67.8305 13.0033 67.7258 13.1097C67.6212 13.2161 67.5429 13.3454 67.497 13.4873C67.3949 13.7857 67.3439 14.252 67.3439 14.8861V27.667C67.3439 28.2468 67.391 28.6816 67.4853 28.9714C67.5237 29.1064 67.5954 29.2297 67.6937 29.3301C67.7921 29.4304 67.914 29.5047 68.0483 29.5461C68.4445 29.6549 68.855 29.7025 69.2656 29.6872H70.9315C71.5646 29.7045 72.1951 29.6004 72.7889 29.3806C73.2819 29.1837 73.718 28.8671 74.0576 28.4597C74.4295 27.9918 74.7 27.452 74.8519 26.8743C75.0588 26.1281 75.2045 25.3663 75.2877 24.5965H75.8718C75.8204 25.1405 75.7947 25.8563 75.7947 26.7438C75.7947 27.0857 75.8075 27.5846 75.8332 28.2405C75.8589 28.8964 75.9056 29.5741 75.9734 30.2735C75.1035 30.2386 74.1214 30.2172 73.0272 30.2094C71.933 30.2017 70.9595 30.1974 70.1067 30.1966H68.5997C67.9845 30.1966 67.3225 30.2009 66.6138 30.2094L64.4608 30.2351C63.7342 30.2436 63.0379 30.2565 62.3721 30.2735V29.7618C62.8149 29.7508 63.2544 29.6819 63.6793 29.5566C63.8187 29.5101 63.9443 29.4297 64.0449 29.3226C64.1454 29.2156 64.2177 29.0853 64.2552 28.9435C64.3502 28.6373 64.3973 28.1768 64.3966 27.5621V14.8815C64.3966 14.2512 64.3494 13.7849 64.2552 13.4826C64.2141 13.3412 64.1396 13.2117 64.038 13.105C63.9364 12.9983 63.8105 12.9175 63.6711 12.8694C63.2521 12.7395 62.8155 12.6746 62.3767 12.6771V12.1665C62.7661 12.1828 63.2743 12.1995 63.9012 12.2166C64.5282 12.2337 65.1987 12.2423 65.9129 12.2423C66.5624 12.2423 67.2076 12.2337 67.8486 12.2166C68.4895 12.1995 69.0133 12.1844 69.4198 12.1712Z" fill="white"/>
<path d="M85.3077 12.0686L91.561 28.1275C91.7993 28.7577 92.077 29.1852 92.394 29.4098C92.6498 29.6077 92.9554 29.7315 93.2771 29.7676V30.2794C92.8675 30.2444 92.385 30.223 91.8297 30.2153C91.2744 30.2075 90.7149 30.2032 90.151 30.2025C89.4337 30.2025 88.7675 30.2067 88.1522 30.2153C87.5378 30.2234 87.0413 30.2444 86.6663 30.2794V29.7676C87.5378 29.7334 88.0888 29.5842 88.3193 29.32C88.5498 29.0558 88.4941 28.4877 88.1522 27.6157L83.5402 15.1881L83.9491 14.7276L79.6957 25.8264C79.3888 26.5934 79.205 27.2326 79.1443 27.744C79.0835 28.2553 79.1264 28.6559 79.2728 28.9458C79.3502 29.0941 79.4571 29.2249 79.5871 29.3304C79.7171 29.4358 79.8673 29.5136 80.0286 29.559C80.4608 29.6904 80.9097 29.7595 81.3615 29.7641V30.2759C80.8483 30.2409 80.3315 30.2196 79.8113 30.2118C79.2911 30.204 78.7996 30.1997 78.337 30.199C77.927 30.199 77.5649 30.199 77.2483 30.2118C76.9611 30.2176 76.6745 30.239 76.3896 30.2759V29.7641C76.799 29.6496 77.1707 29.4287 77.4667 29.1242C77.8258 28.7838 78.1673 28.2044 78.4912 27.3861L84.4362 12.0686H85.3077ZM87.9945 22.9097V23.4215H80.3615L80.6185 22.9097H87.9945Z" fill="white"/>
<path d="M92.5596 35.0879V34.6018C93.2244 34.5885 93.8721 34.389 94.4287 34.026C94.9404 33.6763 95.3247 33.0934 95.5817 32.2774C95.8387 31.4614 95.9668 30.3447 95.966 28.9271V14.8815C95.966 14.2512 95.9189 13.7849 95.8247 13.4826C95.784 13.3421 95.7105 13.2132 95.6102 13.1066C95.5098 13 95.3856 12.9187 95.2476 12.8694C94.9579 12.7583 94.5225 12.6942 93.9415 12.6771V12.1665C94.3309 12.1828 94.8348 12.1995 95.4532 12.2166C96.0716 12.2337 96.7207 12.2423 97.4006 12.2423C98.0665 12.2423 98.7199 12.2337 99.3608 12.2166C100.002 12.1995 100.527 12.1828 100.937 12.1665V12.6771C100.374 12.6942 99.9453 12.7583 99.6517 12.8694C99.5128 12.9195 99.3873 13.0009 99.285 13.1073C99.1827 13.2136 99.1063 13.342 99.0618 13.4826C98.959 13.781 98.9076 14.2473 98.9076 14.8815V24.2468C98.9076 24.9462 98.9033 25.7047 98.8947 26.5223C98.8861 27.3398 98.8523 28.1325 98.7931 28.9003C98.7485 29.5798 98.6434 30.2539 98.4788 30.9147C98.1778 32.0987 97.4876 33.1478 96.5186 33.8943C95.5202 34.69 94.2005 35.0879 92.5596 35.0879Z" fill="white"/>
<path d="M110.161 12.0686L116.414 28.1275C116.653 28.7577 116.931 29.1852 117.247 29.4098C117.503 29.6078 117.809 29.7316 118.131 29.7676V30.2794C117.721 30.2444 117.239 30.223 116.683 30.2153C116.128 30.2075 115.569 30.2032 115.005 30.2025C114.287 30.2025 113.62 30.2067 113.005 30.2153C112.39 30.2238 111.894 30.2452 111.519 30.2794V29.7676C112.39 29.7334 112.941 29.5842 113.172 29.32C113.402 29.0558 113.347 28.4889 113.005 27.6192L108.397 15.1881L108.807 14.7276L104.554 25.8264C104.243 26.5934 104.059 27.2326 104.003 27.744C103.947 28.2553 103.989 28.6559 104.131 28.9458C104.209 29.0941 104.316 29.2249 104.446 29.3304C104.576 29.4358 104.726 29.5136 104.887 29.559C105.319 29.6904 105.767 29.7595 106.219 29.7641V30.2759C105.707 30.2409 105.19 30.2196 104.669 30.2118C104.147 30.204 103.656 30.1997 103.195 30.199C102.786 30.199 102.423 30.2032 102.107 30.2118C101.82 30.2175 101.533 30.2389 101.248 30.2759V29.7641C101.657 29.6498 102.029 29.4289 102.324 29.1242C102.683 28.7838 103.024 28.2044 103.348 27.3861L109.295 12.0686H110.161ZM112.848 22.9097V23.4215H105.22L105.476 22.9097H112.848Z" fill="white"/>
<path d="M118.442 12.1713C118.832 12.1876 119.34 12.2043 119.967 12.2214C120.594 12.2385 121.213 12.247 121.825 12.247C122.646 12.247 123.427 12.2385 124.17 12.2214C124.913 12.2043 125.438 12.1961 125.746 12.1969C127.198 12.1969 128.405 12.3842 129.367 12.7588C130.33 13.1334 131.048 13.6576 131.52 14.3313C131.99 15.0107 132.235 15.8199 132.221 16.6453C132.213 17.218 132.105 17.7849 131.901 18.3204C131.662 18.9437 131.281 19.5026 130.787 19.9524C130.256 20.456 129.539 20.8694 128.634 21.1927C127.729 21.516 126.578 21.6792 125.182 21.6823H122.728V21.1706H124.932C126.077 21.1706 126.952 20.979 127.559 20.5959C128.138 20.2457 128.574 19.7022 128.789 19.0618C129.01 18.3716 129.118 17.6506 129.109 16.9262C129.109 15.5794 128.819 14.5353 128.238 13.7939C127.657 13.0525 126.649 12.6815 125.213 12.6807C124.48 12.6807 123.996 12.8264 123.766 13.1155C123.536 13.4046 123.415 13.9944 123.415 14.8804V27.5634C123.415 28.1773 123.467 28.6378 123.57 28.9447C123.61 29.0863 123.685 29.2159 123.786 29.3226C123.888 29.4293 124.014 29.5101 124.154 29.5579C124.571 29.6824 125.003 29.7514 125.439 29.7631V30.2748C125.028 30.2398 124.512 30.2185 123.889 30.2107C123.265 30.2029 122.629 30.1986 121.979 30.1979C121.261 30.1979 120.591 30.2021 119.967 30.2107C119.343 30.2192 118.835 30.2406 118.442 30.2748V29.7631C118.885 29.7521 119.325 29.6831 119.75 29.5579C119.889 29.5114 120.015 29.431 120.116 29.324C120.216 29.217 120.289 29.0866 120.327 28.9447C120.42 28.6385 120.467 28.1781 120.467 27.5634V14.8816C120.467 14.2513 120.42 13.785 120.327 13.4827C120.285 13.3414 120.211 13.2121 120.109 13.1054C120.008 12.9988 119.882 12.9179 119.743 12.8695C119.324 12.7396 118.887 12.6747 118.448 12.6772L118.442 12.1713ZM122.778 21.2487C123.649 21.2837 124.35 21.3225 124.88 21.3653C125.411 21.408 125.855 21.4469 126.213 21.4818C126.572 21.5168 126.905 21.5588 127.212 21.6101C128.494 21.7818 129.428 22.123 130.016 22.6336C130.603 23.1441 131.009 23.9283 131.233 24.986L131.873 27.5937C132.029 28.3273 132.196 28.8472 132.373 29.1534C132.451 29.2964 132.567 29.4149 132.709 29.4954C132.85 29.5759 133.012 29.6154 133.175 29.6092C133.421 29.6018 133.658 29.5169 133.853 29.3667C134.067 29.1873 134.26 28.9856 134.43 28.7652L134.789 29.0473C134.457 29.5167 134.04 29.92 133.559 30.2363C133.131 30.4998 132.559 30.6319 131.842 30.6327C131.168 30.6513 130.506 30.449 129.958 30.0568C129.437 29.6729 129.065 28.9443 128.843 27.8711L128.331 25.3135C128.201 24.6683 128.03 24.0321 127.818 23.4088C127.666 22.929 127.398 22.4941 127.037 22.1428C126.704 21.8366 126.221 21.6812 125.588 21.6765H122.824L122.778 21.2487Z" fill="white"/>
<path d="M143.095 12.0686L149.348 28.1275C149.586 28.7577 149.864 29.1852 150.181 29.4098C150.437 29.6077 150.742 29.7315 151.064 29.7676V30.2794C150.654 30.2444 150.171 30.223 149.617 30.2153C149.062 30.2075 148.503 30.2032 147.938 30.2025C147.221 30.2025 146.555 30.2067 145.939 30.2153C145.324 30.2238 144.829 30.2452 144.453 30.2794V29.7676C145.323 29.7334 145.874 29.5842 146.106 29.32C146.338 29.0558 146.283 28.4889 145.939 27.6192L141.326 15.1916L141.736 14.7311L137.483 25.8299C137.175 26.5969 136.991 27.2361 136.931 27.7475C136.871 28.2588 136.914 28.6594 137.06 28.9493C137.137 29.0976 137.244 29.2284 137.374 29.3339C137.504 29.4393 137.654 29.5171 137.816 29.5625C138.248 29.694 138.697 29.7631 139.149 29.7676V30.2794C138.635 30.2444 138.119 30.223 137.598 30.2153C137.078 30.2075 136.587 30.2032 136.124 30.2025C135.715 30.2025 135.352 30.2067 135.035 30.2153C134.748 30.2211 134.462 30.2425 134.177 30.2794V29.7676C134.586 29.6531 134.958 29.4322 135.254 29.1277C135.612 28.7873 135.954 28.2079 136.278 27.3896L142.223 12.0721H143.095V12.0686ZM145.782 22.9097V23.4215H138.145L138.402 22.9097H145.782Z" fill="white"/>
<path d="M133.27 38.8405V42.6745C133.27 44.9348 131.592 45.4513 130.7 45.4513C129.734 45.4513 128.741 44.943 128.335 43.8939H129.62C129.76 44.0654 129.939 44.2021 130.142 44.2931C130.345 44.3841 130.566 44.427 130.788 44.4184C131.425 44.4184 132.171 43.979 132.229 42.9543L132.213 42.9368C132.06 43.149 131.629 43.691 130.669 43.691C129.524 43.691 128.26 42.7177 128.26 41.1428C128.254 40.4994 128.502 39.8796 128.952 39.4184C129.402 38.9573 130.016 38.6921 130.661 38.6808C131.628 38.6808 132.034 39.2298 132.162 39.4164H132.179V38.8405H133.27ZM130.76 39.7124C130.575 39.7161 130.392 39.7562 130.223 39.8305C130.054 39.9049 129.901 40.0119 129.773 40.1456C129.645 40.2792 129.545 40.4367 129.479 40.6091C129.412 40.7814 129.381 40.9652 129.386 41.1498C129.386 42.1057 130.107 42.6559 130.788 42.6559C131.469 42.6559 132.137 42.08 132.137 41.1404C132.143 40.4748 131.6 39.7124 130.76 39.7124Z" fill="white"/>
<path d="M134.119 38.8405H135.16V39.2555H135.176C135.389 38.9512 135.6 38.6808 136.186 38.6808H136.279V39.7719C135.252 39.8139 135.252 40.6182 135.252 40.898V43.5383H134.125L134.119 38.8405Z" fill="white"/>
<path d="M136.359 41.194C136.359 40.5286 136.623 39.8902 137.093 39.419C137.564 38.9478 138.203 38.6822 138.87 38.6807C139.198 38.6799 139.523 38.744 139.827 38.8692C140.13 38.9945 140.405 39.1784 140.637 39.4104C140.869 39.6425 141.052 39.918 141.177 40.2211C141.301 40.5242 141.365 40.8489 141.363 41.1765C141.372 41.5069 141.314 41.8356 141.192 42.143C141.07 42.4504 140.887 42.73 140.654 42.9649C140.421 43.1999 140.143 43.3853 139.837 43.5101C139.53 43.6349 139.201 43.6964 138.87 43.6909C138.206 43.6885 137.57 43.4249 137.1 42.9574C136.63 42.4898 136.364 41.8562 136.359 41.194ZM140.235 41.2021C140.235 40.3476 139.574 39.7123 138.87 39.7123C138.49 39.7278 138.132 39.8921 137.873 40.1695C137.614 40.4469 137.475 40.815 137.487 41.194C137.487 42.0822 138.157 42.6581 138.87 42.6581C139.692 42.6581 140.235 41.947 140.235 41.2021Z" fill="white"/>
<path d="M146.189 38.8405V43.5383H145.155V43.0638H145.138C145.009 43.2662 144.828 43.4308 144.615 43.5409C144.401 43.6511 144.162 43.7029 143.922 43.691C143.064 43.691 142.581 43.2678 142.344 42.9461C141.993 42.446 141.993 41.6848 141.993 41.2954V38.8405H143.122V41.236C143.122 41.6172 143.122 42.6582 144.105 42.6582C144.818 42.6582 145.056 41.989 145.056 41.2442V38.8405H146.189Z" fill="white"/>
<path d="M147.063 38.8404H148.098V39.3906H148.116C148.296 39.1605 148.529 38.9762 148.794 38.8528C149.059 38.7294 149.35 38.6704 149.643 38.6807C151.186 38.6807 152 40.0085 152 41.1683C152 42.5567 150.975 43.691 149.643 43.691C148.845 43.691 148.489 43.3692 148.192 43.0894V45.1038H147.063V38.8404ZM149.498 42.6581C149.876 42.6442 150.232 42.4813 150.49 42.2053C150.747 41.9293 150.885 41.5627 150.872 41.1858C150.872 40.322 150.211 39.7124 149.516 39.7124C148.82 39.7124 148.128 40.2801 148.128 41.1858C148.12 41.3725 148.149 41.5589 148.214 41.7342C148.279 41.9095 148.378 42.0702 148.505 42.2071C148.633 42.344 148.786 42.4544 148.956 42.5318C149.127 42.6092 149.311 42.6521 149.498 42.6581Z" fill="white"/>
<path d="M121.375 40.0621H62.7451V42.5521H121.375V40.0621Z" fill="white"/>
</g>
<defs>
<clipPath id="clip0_175_1125">
<rect width="152" height="51" fill="white"/>
</clipPath>
</defs>
</svg>
