<svg width="194" height="170" viewBox="0 0 194 170" fill="none" xmlns="http://www.w3.org/2000/svg">
<path fill-rule="evenodd" clip-rule="evenodd" d="M143.681 117.694C143.721 116.558 143.722 115.43 143.686 114.311C143.663 113.603 144.218 113.011 144.926 112.988C145.633 112.965 146.226 113.52 146.249 114.228C146.287 115.404 146.286 116.59 146.244 117.784C146.195 119.15 146.095 120.501 145.943 121.836C145.863 122.54 145.228 123.046 144.525 122.966C143.821 122.886 143.315 122.251 143.395 121.548C143.539 120.278 143.635 118.993 143.681 117.694ZM144.484 108.633C143.786 108.753 143.123 108.285 143.004 107.587C142.618 105.345 142.081 103.153 141.401 101.022C141.186 100.347 141.559 99.626 142.233 99.4109C142.908 99.1957 143.629 99.5682 143.844 100.243C144.56 102.485 145.126 104.793 145.531 107.153C145.651 107.85 145.182 108.513 144.484 108.633ZM143.507 128.226C144.189 128.415 144.589 129.121 144.4 129.803C143.67 132.438 142.738 134.986 141.622 137.43C141.328 138.074 140.568 138.357 139.923 138.063C139.279 137.769 138.996 137.008 139.29 136.364C140.35 134.043 141.236 131.622 141.929 129.119C142.118 128.437 142.824 128.037 143.507 128.226ZM140.618 95.3432C139.98 95.6494 139.214 95.3799 138.908 94.7414C138.419 93.723 137.897 92.7236 137.341 91.7448C136.992 91.1289 137.208 90.3463 137.824 89.9969C138.44 89.6475 139.222 89.8635 139.572 90.4795C140.156 91.5093 140.706 92.5609 141.22 93.6327C141.526 94.2712 141.257 95.037 140.618 95.3432ZM137.32 142.746C137.91 143.138 138.071 143.934 137.679 144.524C136.177 146.786 134.503 148.922 132.675 150.913C132.197 151.435 131.386 151.469 130.864 150.99C130.342 150.512 130.307 149.7 130.786 149.179C132.524 147.286 134.115 145.256 135.543 143.105C135.935 142.515 136.73 142.355 137.32 142.746ZM126.944 154.643C127.385 155.197 127.293 156.004 126.739 156.445C124.624 158.127 122.375 159.647 120.012 160.985C119.396 161.334 118.614 161.118 118.265 160.502C117.916 159.885 118.132 159.103 118.748 158.754C120.994 157.482 123.132 156.037 125.142 154.438C125.696 153.997 126.503 154.089 126.944 154.643ZM113.41 162.768C113.658 163.431 113.321 164.17 112.658 164.418C110.141 165.359 107.534 166.109 104.854 166.65C104.16 166.791 103.484 166.342 103.344 165.648C103.203 164.954 103.652 164.277 104.346 164.137C106.892 163.622 109.369 162.91 111.76 162.016C112.423 161.768 113.162 162.105 113.41 162.768ZM98.0252 166.292C98.0551 167 97.5058 167.598 96.7983 167.627C95.4555 167.684 94.1005 167.689 92.7352 167.641C91.2761 167.59 89.833 167.478 88.4082 167.309C87.705 167.225 87.2027 166.588 87.2861 165.884C87.3696 165.181 88.0074 164.679 88.7105 164.762C90.0651 164.923 91.4375 165.029 92.8257 165.078C94.1247 165.124 95.4135 165.119 96.6901 165.065C97.3976 165.036 97.9954 165.585 98.0252 166.292ZM81.5036 164.7C81.3036 165.379 80.5907 165.768 79.9114 165.568C77.108 164.742 74.4065 163.686 71.8278 162.423C71.1919 162.111 70.929 161.343 71.2406 160.707C71.5521 160.071 72.3202 159.808 72.9561 160.12C75.4061 161.32 77.9727 162.323 80.636 163.108C81.3152 163.308 81.7037 164.021 81.5036 164.7ZM66.1778 157.674C65.7642 158.248 64.9629 158.379 64.3882 157.965C62.0338 156.271 59.8295 154.385 57.7974 152.33C57.2994 151.826 57.3039 151.015 57.8074 150.517C58.3109 150.019 59.1227 150.023 59.6207 150.527C61.5527 152.48 63.6482 154.274 65.886 155.884C66.4608 156.298 66.5914 157.099 66.1778 157.674ZM54.0212 145.989C53.442 146.396 52.6422 146.257 52.2349 145.677C50.5754 143.318 49.1088 140.814 47.8574 138.191C47.5525 137.552 47.8234 136.786 48.4626 136.481C49.1017 136.177 49.867 136.447 50.1719 137.087C51.3611 139.58 52.755 141.959 54.3325 144.202C54.7398 144.782 54.6005 145.581 54.0212 145.989ZM46.3792 130.959C45.6979 131.152 44.9891 130.756 44.796 130.075C44.4033 128.689 44.0671 127.281 43.7899 125.852C43.6551 125.157 44.1093 124.484 44.8045 124.349C45.4997 124.214 46.1725 124.669 46.3074 125.364C46.5707 126.721 46.8901 128.059 47.2632 129.376C47.4563 130.057 47.0605 130.766 46.3792 130.959Z" fill="#0D0938"/>
<path fill-rule="evenodd" clip-rule="evenodd" d="M41.3394 16.955H114.339H41.3394ZM124.339 16.955H138.339C146.624 16.955 153.339 23.6707 153.339 31.955V127.955C153.339 136.239 146.624 142.955 138.339 142.955H16.3394C8.05509 142.955 1.33936 136.239 1.33936 127.955V31.955C1.33936 23.6707 8.05509 16.955 16.3394 16.955H31.3394" fill="#EBF4EC"/>
<mask id="path-3-inside-1_646_848" fill="white">
<path fill-rule="evenodd" clip-rule="evenodd" d="M50.3394 8.95496H123.339H50.3394ZM133.339 8.95496H147.339C155.624 8.95496 162.339 15.6707 162.339 23.955V119.955C162.339 128.239 155.624 134.955 147.339 134.955H25.3394C17.0551 134.955 10.3394 128.239 10.3394 119.955V23.955C10.3394 15.6707 17.0551 8.95496 25.3394 8.95496H40.3394"/>
</mask>
<path d="M50.3394 11.955H123.339V5.95496H50.3394V11.955ZM133.339 11.955H147.339V5.95496H133.339V11.955ZM147.339 11.955C153.967 11.955 159.339 17.3275 159.339 23.955H165.339C165.339 14.0138 157.28 5.95496 147.339 5.95496V11.955ZM159.339 23.955V119.955H165.339V23.955H159.339ZM159.339 119.955C159.339 126.582 153.967 131.955 147.339 131.955V137.955C157.28 137.955 165.339 129.896 165.339 119.955H159.339ZM147.339 131.955H25.3394V137.955H147.339V131.955ZM25.3394 131.955C18.7119 131.955 13.3394 126.582 13.3394 119.955H7.33936C7.33936 129.896 15.3982 137.955 25.3394 137.955V131.955ZM13.3394 119.955V23.955H7.33936V119.955H13.3394ZM13.3394 23.955C13.3394 17.3275 18.7119 11.955 25.3394 11.955V5.95496C15.3982 5.95496 7.33936 14.0138 7.33936 23.955H13.3394ZM25.3394 11.955H40.3394V5.95496H25.3394V11.955Z" fill="#0D0938" mask="url(#path-3-inside-1_646_848)"/>
<rect x="12.3394" y="30.955" width="148" height="3" fill="#0D0938"/>
<path fill-rule="evenodd" clip-rule="evenodd" d="M43.3394 76.955H38.3394C37.2348 76.955 36.3394 77.8504 36.3394 78.955V83.955C36.3394 85.0595 37.2348 85.955 38.3394 85.955H43.3394C44.4439 85.955 45.3394 85.0595 45.3394 83.955V78.955C45.3394 77.8504 44.4439 76.955 43.3394 76.955ZM38.3394 73.955C35.5779 73.955 33.3394 76.1935 33.3394 78.955V83.955C33.3394 86.7164 35.5779 88.955 38.3394 88.955H43.3394C46.1008 88.955 48.3394 86.7164 48.3394 83.955V78.955C48.3394 76.1935 46.1008 73.955 43.3394 73.955H38.3394Z" fill="#0D0938"/>
<path d="M43.3394 105.455H38.3394C36.9586 105.455 35.8394 106.574 35.8394 107.955V112.955C35.8394 114.336 36.9586 115.455 38.3394 115.455H43.3394C44.7201 115.455 45.8394 114.336 45.8394 112.955V107.955C45.8394 106.574 44.7201 105.455 43.3394 105.455ZM33.8394 107.955C33.8394 105.47 35.8541 103.455 38.3394 103.455H43.3394C45.8246 103.455 47.8394 105.47 47.8394 107.955V112.955C47.8394 115.44 45.8246 117.455 43.3394 117.455H38.3394C35.8541 117.455 33.8394 115.44 33.8394 112.955V107.955Z" fill="#0D0938" stroke="black"/>
<path fill-rule="evenodd" clip-rule="evenodd" d="M74.3394 48.955H69.3394C68.2348 48.955 67.3394 49.8504 67.3394 50.955V55.955C67.3394 57.0595 68.2348 57.955 69.3394 57.955H74.3394C75.4439 57.955 76.3394 57.0595 76.3394 55.955V50.955C76.3394 49.8504 75.4439 48.955 74.3394 48.955ZM69.3394 45.955C66.5779 45.955 64.3394 48.1935 64.3394 50.955V55.955C64.3394 58.7164 66.5779 60.955 69.3394 60.955H74.3394C77.1008 60.955 79.3394 58.7164 79.3394 55.955V50.955C79.3394 48.1935 77.1008 45.955 74.3394 45.955H69.3394Z" fill="#0D0938"/>
<path fill-rule="evenodd" clip-rule="evenodd" d="M74.3394 76.955H69.3394C68.2348 76.955 67.3394 77.8504 67.3394 78.955V83.955C67.3394 85.0595 68.2348 85.955 69.3394 85.955H74.3394C75.4439 85.955 76.3394 85.0595 76.3394 83.955V78.955C76.3394 77.8504 75.4439 76.955 74.3394 76.955ZM69.3394 73.955C66.5779 73.955 64.3394 76.1935 64.3394 78.955V83.955C64.3394 86.7164 66.5779 88.955 69.3394 88.955H74.3394C77.1008 88.955 79.3394 86.7164 79.3394 83.955V78.955C79.3394 76.1935 77.1008 73.955 74.3394 73.955H69.3394Z" fill="#0D0938"/>
<path fill-rule="evenodd" clip-rule="evenodd" d="M74.3394 105.955H69.3394C68.2348 105.955 67.3394 106.85 67.3394 107.955V112.955C67.3394 114.06 68.2348 114.955 69.3394 114.955H74.3394C75.4439 114.955 76.3394 114.06 76.3394 112.955V107.955C76.3394 106.85 75.4439 105.955 74.3394 105.955ZM69.3394 102.955C66.5779 102.955 64.3394 105.194 64.3394 107.955V112.955C64.3394 115.716 66.5779 117.955 69.3394 117.955H74.3394C77.1008 117.955 79.3394 115.716 79.3394 112.955V107.955C79.3394 105.194 77.1008 102.955 74.3394 102.955H69.3394Z" fill="#0D0938"/>
<path fill-rule="evenodd" clip-rule="evenodd" d="M105.339 48.955H100.339C99.2348 48.955 98.3394 49.8504 98.3394 50.955V55.955C98.3394 57.0595 99.2348 57.955 100.339 57.955H105.339C106.444 57.955 107.339 57.0595 107.339 55.955V50.955C107.339 49.8504 106.444 48.955 105.339 48.955ZM100.339 45.955C97.5779 45.955 95.3394 48.1935 95.3394 50.955V55.955C95.3394 58.7164 97.5779 60.955 100.339 60.955H105.339C108.101 60.955 110.339 58.7164 110.339 55.955V50.955C110.339 48.1935 108.101 45.955 105.339 45.955H100.339Z" fill="#0D0938"/>
<path fill-rule="evenodd" clip-rule="evenodd" d="M105.339 76.955H100.339C99.2348 76.955 98.3394 77.8504 98.3394 78.955V83.955C98.3394 85.0595 99.2348 85.955 100.339 85.955H105.339C106.444 85.955 107.339 85.0595 107.339 83.955V78.955C107.339 77.8504 106.444 76.955 105.339 76.955ZM100.339 73.955C97.5779 73.955 95.3394 76.1935 95.3394 78.955V83.955C95.3394 86.7164 97.5779 88.955 100.339 88.955H105.339C108.101 88.955 110.339 86.7164 110.339 83.955V78.955C110.339 76.1935 108.101 73.955 105.339 73.955H100.339Z" fill="#0D0938"/>
<path fill-rule="evenodd" clip-rule="evenodd" d="M105.339 105.955H100.339C99.2348 105.955 98.3394 106.85 98.3394 107.955V112.955C98.3394 114.06 99.2348 114.955 100.339 114.955H105.339C106.444 114.955 107.339 114.06 107.339 112.955V107.955C107.339 106.85 106.444 105.955 105.339 105.955ZM100.339 102.955C97.5779 102.955 95.3394 105.194 95.3394 107.955V112.955C95.3394 115.716 97.5779 117.955 100.339 117.955H105.339C108.101 117.955 110.339 115.716 110.339 112.955V107.955C110.339 105.194 108.101 102.955 105.339 102.955H100.339Z" fill="#0D0938"/>
<path fill-rule="evenodd" clip-rule="evenodd" d="M136.339 48.955H131.339C130.235 48.955 129.339 49.8504 129.339 50.955V55.955C129.339 57.0595 130.235 57.955 131.339 57.955H136.339C137.444 57.955 138.339 57.0595 138.339 55.955V50.955C138.339 49.8504 137.444 48.955 136.339 48.955ZM131.339 45.955C128.578 45.955 126.339 48.1935 126.339 50.955V55.955C126.339 58.7164 128.578 60.955 131.339 60.955H136.339C139.101 60.955 141.339 58.7164 141.339 55.955V50.955C141.339 48.1935 139.101 45.955 136.339 45.955H131.339Z" fill="#0D0938"/>
<path fill-rule="evenodd" clip-rule="evenodd" d="M136.339 76.955H131.339C130.235 76.955 129.339 77.8504 129.339 78.955V83.955C129.339 85.0595 130.235 85.955 131.339 85.955H136.339C137.444 85.955 138.339 85.0595 138.339 83.955V78.955C138.339 77.8504 137.444 76.955 136.339 76.955ZM131.339 73.955C128.578 73.955 126.339 76.1935 126.339 78.955V83.955C126.339 86.7164 128.578 88.955 131.339 88.955H136.339C139.101 88.955 141.339 86.7164 141.339 83.955V78.955C141.339 76.1935 139.101 73.955 136.339 73.955H131.339Z" fill="#0D0938"/>
<path fill-rule="evenodd" clip-rule="evenodd" d="M48.3394 3.95496H42.3394V13.955H48.3394V3.95496ZM42.3394 0.954956C40.6825 0.954956 39.3394 2.2981 39.3394 3.95496V13.955C39.3394 15.6118 40.6825 16.955 42.3394 16.955H48.3394C49.9962 16.955 51.3394 15.6118 51.3394 13.955V3.95496C51.3394 2.2981 49.9962 0.954956 48.3394 0.954956H42.3394Z" fill="#0D0938"/>
<path fill-rule="evenodd" clip-rule="evenodd" d="M131.339 3.95496H125.339V13.955H131.339V3.95496ZM125.339 0.954956C123.683 0.954956 122.339 2.2981 122.339 3.95496V13.955C122.339 15.6118 123.683 16.955 125.339 16.955H131.339C132.996 16.955 134.339 15.6118 134.339 13.955V3.95496C134.339 2.2981 132.996 0.954956 131.339 0.954956H125.339Z" fill="#0D0938"/>
<circle cx="153.339" cy="127.795" r="39.5797" fill="white"/>
<circle cx="157.344" cy="129.532" r="31" fill="#AAEFB2"/>
<path fill-rule="evenodd" clip-rule="evenodd" d="M151.339 154.796C166.803 154.796 179.339 142.26 179.339 126.796C179.339 111.332 166.803 98.7958 151.339 98.7958C135.875 98.7958 123.339 111.332 123.339 126.796C123.339 142.26 135.875 154.796 151.339 154.796ZM151.339 157.796C168.46 157.796 182.339 143.917 182.339 126.796C182.339 109.675 168.46 95.7958 151.339 95.7958C134.219 95.7958 120.339 109.675 120.339 126.796C120.339 143.917 134.219 157.796 151.339 157.796Z" fill="#0D0938"/>
<path d="M162.07 126.68C163.203 127.225 163.203 128.839 162.07 129.384L145.994 137.113C144.998 137.592 143.844 136.866 143.844 135.761V120.303C143.844 119.198 144.998 118.472 145.994 118.951L162.07 126.68Z" fill="#EBF4EC" stroke="black" stroke-width="3"/>
</svg>
