<svg width="206" height="210" viewBox="0 0 206 210" fill="none" xmlns="http://www.w3.org/2000/svg">
<path fill-rule="evenodd" clip-rule="evenodd" d="M166.144 47.4129C165.807 48.1695 166.147 49.0563 166.904 49.3936C168.504 50.1068 170.066 50.8925 171.585 51.7468C172.308 52.1528 173.222 51.8965 173.628 51.1744C174.034 50.4523 173.778 49.5378 173.056 49.1318C171.456 48.2322 169.811 47.4047 168.125 46.6534C167.368 46.3162 166.482 46.6562 166.144 47.4129ZM180.011 55.5857C179.479 56.2209 179.562 57.1669 180.198 57.6987C182.877 59.9419 185.346 62.4301 187.572 65.1306C188.099 65.7699 189.044 65.8611 189.683 65.3343C190.323 64.8074 190.414 63.8621 189.887 63.2227C187.544 60.3796 184.944 57.7601 182.124 55.3986C181.488 54.8667 180.542 54.9505 180.011 55.5857ZM194.043 71.7525C193.317 72.1524 193.053 73.0647 193.453 73.7903C195.127 76.8261 196.53 80.0352 197.629 83.3864C197.887 84.1735 198.735 84.6023 199.522 84.3441C200.309 84.0859 200.738 83.2384 200.479 82.4513C199.321 78.9205 197.843 75.5399 196.081 72.3421C195.681 71.6166 194.768 71.3526 194.043 71.7525ZM201.242 91.9087C200.421 92.0168 199.843 92.7702 199.951 93.5916C200.177 95.3083 200.326 97.0509 200.395 98.8159C200.457 100.39 200.454 101.951 200.388 103.497C200.353 104.324 200.995 105.024 201.823 105.059C202.651 105.094 203.35 104.452 203.385 103.624C203.455 101.997 203.458 100.354 203.393 98.6984C203.32 96.8416 203.163 95.0077 202.925 93.2002C202.817 92.3789 202.064 91.8007 201.242 91.9087ZM200.998 111.614C200.187 111.442 199.391 111.96 199.22 112.771C198.568 115.851 197.664 118.842 196.529 121.721C196.226 122.492 196.604 123.363 197.375 123.666C198.146 123.97 199.017 123.592 199.321 122.821C200.515 119.788 201.468 116.637 202.155 113.392C202.326 112.581 201.808 111.785 200.998 111.614ZM194.451 129.59C193.741 129.163 192.819 129.393 192.393 130.103C190.781 132.782 188.953 135.32 186.931 137.69C186.393 138.32 186.468 139.267 187.098 139.805C187.729 140.342 188.675 140.267 189.213 139.637C191.342 137.142 193.267 134.47 194.964 131.649C195.39 130.939 195.161 130.017 194.451 129.59ZM182.412 144.461C181.878 143.827 180.932 143.746 180.298 144.28C177.919 146.283 175.37 148.095 172.675 149.69C171.962 150.112 171.726 151.032 172.148 151.744C172.569 152.457 173.489 152.693 174.202 152.271C177.041 150.592 179.725 148.684 182.23 146.575C182.864 146.041 182.945 145.095 182.412 144.461ZM166.202 154.625C165.904 153.852 165.036 153.467 164.263 153.765C162.815 154.323 161.337 154.823 159.833 155.263C159.037 155.495 158.581 156.328 158.814 157.123C159.046 157.918 159.879 158.375 160.674 158.142C162.259 157.679 163.816 157.152 165.342 156.564C166.115 156.266 166.5 155.398 166.202 154.625Z" fill="#0D0938"/>
<path fill-rule="evenodd" clip-rule="evenodd" d="M147.844 12.1353V198.783C147.844 199.293 147.649 199.783 147.3 200.154C146.543 200.958 145.277 200.997 144.473 200.24L134.66 191.004C132.474 188.947 129.104 188.822 126.771 190.711L115.098 200.168C112.795 202.034 109.475 201.939 107.283 199.944L97.3787 190.932C95.1618 188.915 91.7964 188.843 89.4955 190.764L78.4156 200.013C76.0902 201.954 72.6826 201.858 70.4709 199.788L60.2305 190.205C57.9427 188.064 54.3929 188.044 52.081 190.159L41.7425 199.617C39.409 201.752 35.819 201.708 33.5375 199.518L23.0846 189.483C20.7286 187.222 16.9962 187.26 14.6868 189.569L4.25796 199.998C3.88289 200.373 3.37418 200.584 2.84375 200.584C1.73918 200.584 0.84375 199.688 0.84375 198.584V12.3348C0.84375 11.2303 1.73918 10.3348 2.84375 10.3348C3.37418 10.3348 3.88289 10.5455 4.25796 10.9206L14.6868 21.3495C16.9962 23.6589 20.7286 23.6969 23.0846 21.4351L33.5375 11.4004C35.819 9.21014 39.409 9.16695 41.7425 11.3017L52.081 20.7593C54.3929 22.8742 57.9427 22.8541 60.2305 20.7133L70.4709 11.1305C72.6826 9.06084 76.0902 8.96431 78.4156 10.9055L89.4955 20.1548C91.7964 22.0756 95.1618 22.0037 97.3787 19.9865L107.283 10.9744C109.475 8.97971 112.795 8.8844 115.098 10.75L126.771 20.2072C129.104 22.0969 132.474 21.9718 134.66 19.9143L144.473 10.6789C145.277 9.92182 146.543 9.96017 147.3 10.7645C147.649 11.1355 147.844 11.6258 147.844 12.1353Z" fill="#EBF4EC"/>
<path fill-rule="evenodd" clip-rule="evenodd" d="M126.153 4.91555C124.426 3.51633 121.936 3.58782 120.292 5.08382L119.287 3.97954L120.292 5.08382L110.388 14.0959C107.617 16.6174 103.41 16.7073 100.534 14.3063L89.4543 5.057C87.7103 3.60111 85.1546 3.67351 83.4958 5.22579L73.2554 14.8085C70.3957 17.4846 65.9584 17.5097 63.0686 14.8661L52.7301 5.40846C50.9799 3.8074 48.2874 3.83979 46.5763 5.4825L36.1234 15.5172C33.1784 18.3445 28.5129 18.2969 25.6262 15.4101L15.1973 4.98128C15.1035 4.88751 14.9764 4.83483 14.8438 4.83483C14.5676 4.83483 14.3438 5.05869 14.3438 5.33483V191.584C14.3438 191.86 14.5676 192.084 14.8438 192.084C14.9764 192.084 15.1035 192.031 15.1973 191.937L25.6262 181.508C28.5129 178.622 33.1784 178.574 36.1234 181.401L46.5763 191.436C48.2874 193.079 50.9799 193.111 52.7301 191.51L63.0686 182.052C65.9584 179.409 70.3957 179.434 73.2554 182.11L83.4958 191.693C85.1546 193.245 87.7103 193.317 89.4543 191.862L100.534 182.612C103.41 180.211 107.617 180.301 110.388 182.823L120.292 191.835C121.936 193.331 124.426 193.402 126.153 192.003L137.827 182.546C140.743 180.184 144.956 180.34 147.688 182.912L157.501 192.147C157.702 192.337 158.019 192.327 158.208 192.126C158.295 192.033 158.344 191.911 158.344 191.783V5.13525C158.344 5.00788 158.295 4.88531 158.208 4.79257C158.019 4.59148 157.702 4.5819 157.501 4.77116L147.688 14.0066C144.956 16.5785 140.743 16.7349 137.827 14.3727L126.153 4.91555ZM118.273 2.86495C121.013 0.371609 125.163 0.252468 128.042 2.5845L139.716 12.0417C141.465 13.459 143.993 13.3651 145.632 11.822L155.445 2.58655C156.853 1.26175 159.068 1.32887 160.392 2.73648C161.004 3.38573 161.344 4.24369 161.344 5.13525V191.783C161.344 192.675 161.004 193.533 160.392 194.182C159.068 195.59 156.853 195.657 155.445 194.332L145.632 185.096C143.993 183.553 141.465 183.46 139.716 184.877L128.042 194.334C125.163 196.666 121.013 196.547 118.273 194.054L108.369 185.041C106.706 183.529 104.182 183.475 102.457 184.915L91.3768 194.165C88.4701 196.591 84.2107 196.47 81.446 193.883L71.2056 184.3C69.4898 182.695 66.8274 182.68 65.0935 184.266L54.755 193.724C51.838 196.392 47.3506 196.338 44.4987 193.6L34.0458 183.565C32.2788 181.869 29.4795 181.898 27.7475 183.63L17.3186 194.059L16.2644 193.004L17.3186 194.059C16.6622 194.715 15.772 195.084 14.8438 195.084C12.9107 195.084 11.3438 193.517 11.3438 191.584V5.33483C11.3438 3.40183 12.9108 1.83483 14.8438 1.83483C15.772 1.83483 16.6622 2.20358 17.3186 2.85996L27.7475 13.2888C29.4795 15.0209 32.2788 15.0494 34.0458 13.3531L44.4987 3.31834C47.3506 0.580494 51.838 0.526504 54.755 3.19494L65.0935 12.6526C66.8274 14.2387 69.4898 14.2237 71.2056 12.618L81.446 3.0353C84.2107 0.448169 88.4701 0.327504 91.3768 2.75398L102.457 12.0033C104.182 13.4439 106.706 13.39 108.369 11.8771L118.273 2.86495Z" fill="#0D0938"/>
<rect x="62.3438" y="52.998" width="1" height="11" rx="0.5" stroke="black"/>
<rect x="67.8438" y="53.498" width="5" height="10" rx="2.5" stroke="black" stroke-width="2"/>
<rect x="77.8438" y="53.498" width="5" height="10" rx="2.5" stroke="black" stroke-width="2"/>
<rect x="87.8438" y="53.498" width="5" height="10" rx="2.5" stroke="black" stroke-width="2"/>
<rect x="97.8438" y="53.498" width="5" height="10" rx="2.5" stroke="black" stroke-width="2"/>
<rect x="107.844" y="53.498" width="5" height="10" rx="2.5" stroke="black" stroke-width="2"/>
<rect x="61.8438" y="70.4121" width="50" height="3" rx="1.5" fill="#0D0938"/>
<rect x="51.8438" y="79.4121" width="70" height="3" rx="1.5" fill="#0D0938"/>
<rect x="46.8438" y="88.4121" width="80" height="3" rx="1.5" fill="#0D0938"/>
<rect x="26.8438" y="119.412" width="92" height="3" rx="1.5" fill="#0D0938"/>
<rect x="26.8438" y="131.412" width="92" height="3" rx="1.5" fill="#0D0938"/>
<rect x="26.8438" y="143.412" width="92" height="3" rx="1.5" fill="#0D0938"/>
<rect x="26.8438" y="155.412" width="92" height="3" rx="1.5" fill="#0D0938"/>
<circle cx="153.423" cy="59.0797" r="39.5797" fill="#F8F8F8"/>
<circle cx="159.423" cy="62.0801" r="31" fill="#AAEFB2"/>
<path fill-rule="evenodd" clip-rule="evenodd" d="M153.423 87.0801C168.887 87.0801 181.423 74.5441 181.423 59.0801C181.423 43.6161 168.887 31.0801 153.423 31.0801C137.959 31.0801 125.423 43.6161 125.423 59.0801C125.423 74.5441 137.959 87.0801 153.423 87.0801ZM153.423 90.0801C170.544 90.0801 184.423 76.2009 184.423 59.0801C184.423 41.9593 170.544 28.0801 153.423 28.0801C136.303 28.0801 122.423 41.9593 122.423 59.0801C122.423 76.2009 136.303 90.0801 153.423 90.0801Z" fill="#0D0938"/>
<path d="M148.844 70.5H139.844C139.291 70.5 138.844 70.0523 138.844 69.5V55.9142C138.844 55.649 138.949 55.3946 139.137 55.2071L153.137 41.2071C153.527 40.8166 154.16 40.8166 154.551 41.2071L168.551 55.2071C168.738 55.3946 168.844 55.649 168.844 55.9142V69.5C168.844 70.0523 168.396 70.5 167.844 70.5H158.844M148.844 70.5H158.844M148.844 70.5V59.8333C148.844 59.281 149.291 58.8333 149.844 58.8333H157.844C158.396 58.8333 158.844 59.281 158.844 59.8333V70.5" stroke="#0D0938" stroke-width="2" stroke-linejoin="round"/>
<circle cx="145.053" cy="171.709" r="37.2093" fill="white"/>
<circle cx="155.285" cy="174.502" r="32.5581" fill="#AAEFB2"/>
<path fill-rule="evenodd" clip-rule="evenodd" d="M181.331 172.637C181.331 190.618 166.754 205.195 148.772 205.195C130.791 205.195 116.214 190.618 116.214 172.637C116.214 154.656 130.791 140.079 148.772 140.079C166.754 140.079 181.331 154.656 181.331 172.637ZM169.821 193.688C164.008 199.5 156.992 202.406 148.772 202.406C140.552 202.406 133.536 199.5 127.723 193.688C121.911 187.875 119.004 180.859 119.004 172.639C119.004 164.419 121.911 157.403 127.723 151.59C133.536 145.778 140.552 142.871 148.772 142.871C156.992 142.871 164.008 145.778 169.821 151.59C175.633 157.403 178.539 164.419 178.539 172.639C178.539 180.859 175.633 187.875 169.821 193.688Z" fill="#0D0938"/>
<path fill-rule="evenodd" clip-rule="evenodd" d="M162.433 183.654C161.988 178.999 159.798 167.532 149.008 167.532C138.218 167.532 136.028 178.999 135.583 183.654C135.482 184.717 136.335 185.583 137.403 185.583H160.612C161.68 185.583 162.534 184.717 162.433 183.654ZM140.098 174.8C142.111 171.244 145.08 169.466 149.007 169.466C152.934 169.466 155.903 171.244 157.916 174.8C159.277 177.204 160.134 180.154 160.488 183.649H137.526C137.88 180.154 138.737 177.204 140.098 174.8Z" fill="#0D0938"/>
<path fill-rule="evenodd" clip-rule="evenodd" d="M155.455 159.796C155.455 163.712 152.28 166.887 148.363 166.887C144.447 166.887 141.272 163.712 141.272 159.796C141.272 155.879 144.447 152.705 148.363 152.705C152.28 152.705 155.455 155.879 155.455 159.796ZM152.01 163.442C151.003 164.449 149.787 164.953 148.363 164.953C146.939 164.953 145.723 164.449 144.716 163.442C143.709 162.435 143.206 161.22 143.206 159.796C143.206 158.371 143.709 157.156 144.716 156.149C145.723 155.142 146.939 154.638 148.363 154.638C149.787 154.638 151.003 155.142 152.01 156.149C153.017 157.156 153.52 158.371 153.52 159.796C153.52 161.22 153.017 162.435 152.01 163.442Z" fill="#0D0938"/>
</svg>
