<svg width="226" height="202" viewBox="0 0 226 202" fill="none" xmlns="http://www.w3.org/2000/svg">
<path fill-rule="evenodd" clip-rule="evenodd" d="M148.317 169.654C147.652 169.329 146.849 169.604 146.524 170.269C145.836 171.676 145.085 173.046 144.274 174.376C143.888 175.008 144.088 175.833 144.72 176.219C145.353 176.604 146.178 176.404 146.563 175.772C147.417 174.372 148.208 172.929 148.933 171.447C149.258 170.782 148.982 169.979 148.317 169.654ZM140.578 181.78C140.028 181.284 139.18 181.329 138.685 181.88C136.597 184.202 134.296 186.329 131.814 188.231C131.226 188.681 131.115 189.523 131.565 190.11C132.015 190.698 132.857 190.809 133.444 190.359C136.058 188.357 138.48 186.117 140.679 183.673C141.174 183.122 141.129 182.275 140.578 181.78ZM125.694 193.801C125.36 193.14 124.554 192.875 123.893 193.21C121.129 194.608 118.218 195.76 115.19 196.635C114.479 196.841 114.069 197.584 114.275 198.296C114.48 199.007 115.224 199.417 115.935 199.211C119.125 198.288 122.191 197.075 125.103 195.602C125.764 195.268 126.029 194.461 125.694 193.801ZM107.464 199.593C107.393 198.856 106.738 198.316 106.001 198.386C104.461 198.533 102.9 198.612 101.321 198.618C99.9134 198.623 98.5193 198.571 97.1408 198.463C96.4027 198.405 95.7575 198.957 95.6999 199.695C95.6422 200.433 96.1938 201.078 96.932 201.136C98.3832 201.249 99.8504 201.304 101.331 201.299C102.992 201.293 104.635 201.21 106.257 201.055C106.994 200.985 107.534 200.33 107.464 199.593ZM89.8714 198.75C90.0502 198.032 89.6128 197.304 88.8943 197.126C86.1637 196.446 83.5207 195.544 80.9856 194.44C80.3068 194.144 79.5169 194.454 79.2212 195.133C78.9255 195.812 79.2361 196.602 79.9149 196.898C82.5854 198.061 85.3699 199.011 88.2467 199.727C88.9652 199.906 89.6926 199.469 89.8714 198.75ZM74.023 192.334C74.4268 191.713 74.251 190.883 73.6304 190.479C71.2879 188.955 69.0793 187.242 67.0265 185.361C66.4806 184.86 65.6326 184.898 65.1324 185.443C64.6322 185.989 64.6692 186.837 65.2151 187.337C67.3762 189.318 69.7015 191.122 72.1682 192.727C72.7888 193.13 73.6192 192.955 74.023 192.334ZM61.122 181.11C61.7049 180.654 61.8074 179.811 61.351 179.228C59.6368 177.039 58.0994 174.705 56.7603 172.248C56.406 171.597 55.5918 171.358 54.9417 171.712C54.2915 172.066 54.0517 172.88 54.4059 173.53C55.8163 176.119 57.4352 178.577 59.24 180.881C59.6965 181.464 60.5391 181.567 61.122 181.11ZM52.5572 166.31C53.257 166.069 53.6286 165.306 53.387 164.606C52.9345 163.295 52.5344 161.959 52.1893 160.601C52.007 159.883 51.2774 159.45 50.5598 159.632C49.8423 159.814 49.4084 160.544 49.5907 161.261C49.9543 162.692 50.3758 164.099 50.8526 165.481C51.0941 166.18 51.8573 166.552 52.5572 166.31Z" fill="#0D0938"/>
<path fill-rule="evenodd" clip-rule="evenodd" d="M92.6567 0C88.2385 0 84.6567 3.58173 84.6567 8V50.0318C84.4596 50.0108 84.2594 50 84.0567 50H29.2567C26.1639 50 23.6567 52.5072 23.6567 55.6V160.4C23.6567 163.493 26.1639 166 29.2567 166H84.0567C85.5565 166 86.9186 165.41 87.9238 164.45C89.2492 165.425 90.8858 166 92.6567 166H170.657C175.075 166 178.657 162.418 178.657 158V8C178.657 3.58172 175.075 0 170.657 0H92.6567Z" fill="#EBF4EC"/>
<path fill-rule="evenodd" clip-rule="evenodd" d="M36.2567 57.5C33.9924 57.5 32.1567 59.3356 32.1567 61.6V166.4C32.1567 168.664 33.9924 170.5 36.2567 170.5H91.0567C91.8852 170.5 92.5567 171.172 92.5567 172C92.5567 172.828 91.8852 173.5 91.0567 173.5H36.2567C32.3355 173.5 29.1567 170.321 29.1567 166.4V61.6C29.1567 57.6788 32.3355 54.5 36.2567 54.5H91.0567C91.8852 54.5 92.5567 55.1716 92.5567 56C92.5567 56.8284 91.8852 57.5 91.0567 57.5H36.2567Z" fill="#0D0938"/>
<path fill-rule="evenodd" clip-rule="evenodd" d="M55.2967 74H45.0167C44.8179 74 44.6567 74.1612 44.6567 74.36V84.64C44.6567 84.8388 44.8179 85 45.0167 85H55.2967C55.4956 85 55.6567 84.8388 55.6567 84.64V74.36C55.6567 74.1612 55.4956 74 55.2967 74ZM45.0167 71C43.1611 71 41.6567 72.5043 41.6567 74.36V84.64C41.6567 86.4957 43.1611 88 45.0167 88H55.2967C57.1524 88 58.6567 86.4957 58.6567 84.64V74.36C58.6567 72.5043 57.1524 71 55.2967 71H45.0167Z" fill="#0D0938"/>
<path fill-rule="evenodd" clip-rule="evenodd" d="M55.2967 110H45.0167C44.8179 110 44.6567 110.161 44.6567 110.36V120.64C44.6567 120.839 44.8179 121 45.0167 121H55.2967C55.4956 121 55.6567 120.839 55.6567 120.64V110.36C55.6567 110.161 55.4956 110 55.2967 110ZM45.0167 107C43.1611 107 41.6567 108.504 41.6567 110.36V120.64C41.6567 122.496 43.1611 124 45.0167 124H55.2967C57.1524 124 58.6567 122.496 58.6567 120.64V110.36C58.6567 108.504 57.1524 107 55.2967 107H45.0167Z" fill="#0D0938"/>
<path fill-rule="evenodd" clip-rule="evenodd" d="M55.2967 147H45.0167C44.8179 147 44.6567 147.161 44.6567 147.36V157.64C44.6567 157.839 44.8179 158 45.0167 158H55.2967C55.4956 158 55.6567 157.839 55.6567 157.64V147.36C55.6567 147.161 55.4956 147 55.2967 147ZM45.0167 144C43.1611 144 41.6567 145.504 41.6567 147.36V157.64C41.6567 159.496 43.1611 161 45.0167 161H55.2967C57.1524 161 58.6567 159.496 58.6567 157.64V147.36C58.6567 145.504 57.1524 144 55.2967 144H45.0167Z" fill="#0D0938"/>
<path fill-rule="evenodd" clip-rule="evenodd" d="M84.2967 74H74.0167C73.8179 74 73.6567 74.1612 73.6567 74.36V84.64C73.6567 84.8388 73.8179 85 74.0167 85H84.2967C84.4956 85 84.6567 84.8388 84.6567 84.64V74.36C84.6567 74.1612 84.4956 74 84.2967 74ZM74.0167 71C72.1611 71 70.6567 72.5043 70.6567 74.36V84.64C70.6567 86.4957 72.1611 88 74.0167 88H84.2967C86.1524 88 87.6567 86.4957 87.6567 84.64V74.36C87.6567 72.5043 86.1524 71 84.2967 71H74.0167Z" fill="#0D0938"/>
<path fill-rule="evenodd" clip-rule="evenodd" d="M84.2967 110H74.0167C73.8179 110 73.6567 110.161 73.6567 110.36V120.64C73.6567 120.839 73.8179 121 74.0167 121H84.2967C84.4956 121 84.6567 120.839 84.6567 120.64V110.36C84.6567 110.161 84.4956 110 84.2967 110ZM74.0167 107C72.1611 107 70.6567 108.504 70.6567 110.36V120.64C70.6567 122.496 72.1611 124 74.0167 124H84.2967C86.1524 124 87.6567 122.496 87.6567 120.64V110.36C87.6567 108.504 86.1524 107 84.2967 107H74.0167Z" fill="#0D0938"/>
<path fill-rule="evenodd" clip-rule="evenodd" d="M84.2967 147H74.0167C73.8179 147 73.6567 147.161 73.6567 147.36V157.64C73.6567 157.839 73.8179 158 74.0167 158H84.2967C84.4956 158 84.6567 157.839 84.6567 157.64V147.36C84.6567 147.161 84.4956 147 84.2967 147ZM74.0167 144C72.1611 144 70.6567 145.504 70.6567 147.36V157.64C70.6567 159.496 72.1611 161 74.0167 161H84.2967C86.1524 161 87.6567 159.496 87.6567 157.64V147.36C87.6567 145.504 86.1524 144 84.2967 144H74.0167Z" fill="#0D0938"/>
<path fill-rule="evenodd" clip-rule="evenodd" d="M180.657 11H102.657C99.8953 11 97.6567 13.2386 97.6567 16V166C97.6567 168.761 99.8953 171 102.657 171H180.657C183.418 171 185.657 168.761 185.657 166V16C185.657 13.2386 183.418 11 180.657 11ZM102.657 8C98.2385 8 94.6567 11.5817 94.6567 16V166C94.6567 170.418 98.2385 174 102.657 174H180.657C185.075 174 188.657 170.418 188.657 166V16C188.657 11.5817 185.075 8 180.657 8H102.657Z" fill="#0D0938"/>
<path fill-rule="evenodd" clip-rule="evenodd" d="M127.857 29H113.457C112.463 29 111.657 29.8059 111.657 30.8V45.2C111.657 46.1941 112.463 47 113.457 47H127.857C128.851 47 129.657 46.1941 129.657 45.2V30.8C129.657 29.8059 128.851 29 127.857 29ZM113.457 26C110.806 26 108.657 28.149 108.657 30.8V45.2C108.657 47.851 110.806 50 113.457 50H127.857C130.508 50 132.657 47.851 132.657 45.2V30.8C132.657 28.149 130.508 26 127.857 26H113.457Z" fill="#0D0938"/>
<path fill-rule="evenodd" clip-rule="evenodd" d="M127.857 66H113.457C112.463 66 111.657 66.8059 111.657 67.8V82.2C111.657 83.1941 112.463 84 113.457 84H127.857C128.851 84 129.657 83.1941 129.657 82.2V67.8C129.657 66.8059 128.851 66 127.857 66ZM113.457 63C110.806 63 108.657 65.149 108.657 67.8V82.2C108.657 84.851 110.806 87 113.457 87H127.857C130.508 87 132.657 84.851 132.657 82.2V67.8C132.657 65.149 130.508 63 127.857 63H113.457Z" fill="#0D0938"/>
<path fill-rule="evenodd" clip-rule="evenodd" d="M127.857 102H113.457C112.463 102 111.657 102.806 111.657 103.8V118.2C111.657 119.194 112.463 120 113.457 120H127.857C128.851 120 129.657 119.194 129.657 118.2V103.8C129.657 102.806 128.851 102 127.857 102ZM113.457 99C110.806 99 108.657 101.149 108.657 103.8V118.2C108.657 120.851 110.806 123 113.457 123H127.857C130.508 123 132.657 120.851 132.657 118.2V103.8C132.657 101.149 130.508 99 127.857 99H113.457Z" fill="#0D0938"/>
<path fill-rule="evenodd" clip-rule="evenodd" d="M168.857 29H154.457C153.463 29 152.657 29.8059 152.657 30.8V45.2C152.657 46.1941 153.463 47 154.457 47H168.857C169.851 47 170.657 46.1941 170.657 45.2V30.8C170.657 29.8059 169.851 29 168.857 29ZM154.457 26C151.806 26 149.657 28.149 149.657 30.8V45.2C149.657 47.851 151.806 50 154.457 50H168.857C171.508 50 173.657 47.851 173.657 45.2V30.8C173.657 28.149 171.508 26 168.857 26H154.457Z" fill="#0D0938"/>
<path fill-rule="evenodd" clip-rule="evenodd" d="M168.857 66H154.457C153.463 66 152.657 66.8059 152.657 67.8V82.2C152.657 83.1941 153.463 84 154.457 84H168.857C169.851 84 170.657 83.1941 170.657 82.2V67.8C170.657 66.8059 169.851 66 168.857 66ZM154.457 63C151.806 63 149.657 65.149 149.657 67.8V82.2C149.657 84.851 151.806 87 154.457 87H168.857C171.508 87 173.657 84.851 173.657 82.2V67.8C173.657 65.149 171.508 63 168.857 63H154.457Z" fill="#0D0938"/>
<path fill-rule="evenodd" clip-rule="evenodd" d="M168.857 102H154.457C153.463 102 152.657 102.806 152.657 103.8V118.2C152.657 119.194 153.463 120 154.457 120H168.857C169.851 120 170.657 119.194 170.657 118.2V103.8C170.657 102.806 169.851 102 168.857 102ZM154.457 99C151.806 99 149.657 101.149 149.657 103.8V118.2C149.657 120.851 151.806 123 154.457 123H168.857C171.508 123 173.657 120.851 173.657 118.2V103.8C173.657 101.149 171.508 99 168.857 99H154.457Z" fill="#0D0938"/>
<path fill-rule="evenodd" clip-rule="evenodd" d="M151.857 136H132.457C131.463 136 130.657 136.806 130.657 137.8V171H153.657V137.8C153.657 136.806 152.851 136 151.857 136ZM132.457 133C129.806 133 127.657 135.149 127.657 137.8V174H156.657V137.8C156.657 135.149 154.508 133 151.857 133H132.457Z" fill="#0D0938"/>
<circle cx="40.2364" cy="155.58" r="39.5797" fill="white"/>
<circle cx="40.2363" cy="161.58" r="31" fill="#AAEFB2"/>
<path fill-rule="evenodd" clip-rule="evenodd" d="M71.2363 154.58C71.2363 171.701 57.3572 185.58 40.2363 185.58C23.1155 185.58 9.23633 171.701 9.23633 154.58C9.23633 137.459 23.1155 123.58 40.2363 123.58C57.3572 123.58 71.2363 137.459 71.2363 154.58ZM60.0353 174.379C54.568 179.846 47.9683 182.58 40.2363 182.58C32.5043 182.58 25.9047 179.846 20.4373 174.379C14.97 168.912 12.2363 162.312 12.2363 154.58C12.2363 146.848 14.97 140.248 20.4373 134.781C25.9047 129.314 32.5043 126.58 40.2363 126.58C47.9683 126.58 54.568 129.314 60.0353 134.781C65.5027 140.248 68.2363 146.848 68.2363 154.58C68.2363 162.312 65.5027 168.912 60.0353 174.379Z" fill="#0D0938"/>
<line x1="41.229" y1="150.797" x2="41.229" y2="173.797" stroke="#0D0938" stroke-width="2"/>
<line x1="42.229" y1="172.797" x2="48.229" y2="172.797" stroke="#0D0938" stroke-width="2"/>
<line x1="42.229" y1="168.797" x2="46.229" y2="168.797" stroke="#0D0938" stroke-width="2"/>
<path fill-rule="evenodd" clip-rule="evenodd" d="M47.8394 145.091C47.8394 149.008 44.6645 152.183 40.7481 152.183C36.8316 152.183 33.6567 149.008 33.6567 145.091C33.6567 141.175 36.8316 138 40.7481 138C44.6645 138 47.8394 141.175 47.8394 145.091ZM44.3944 148.738C43.3874 149.745 42.1718 150.248 40.7477 150.248C39.3235 150.248 38.1079 149.745 37.1009 148.738C36.0938 147.731 35.5903 146.515 35.5903 145.091C35.5903 143.667 36.0938 142.451 37.1009 141.444C38.1079 140.437 39.3235 139.934 40.7477 139.934C42.1718 139.934 43.3874 140.437 44.3944 141.444C45.4015 142.451 45.905 143.667 45.905 145.091C45.905 146.515 45.4015 147.731 44.3944 148.738Z" fill="#0D0938"/>
<path fill-rule="evenodd" clip-rule="evenodd" d="M47.8394 145.091C47.8394 149.008 44.6645 152.183 40.7481 152.183C36.8316 152.183 33.6567 149.008 33.6567 145.091C33.6567 141.175 36.8316 138 40.7481 138C44.6645 138 47.8394 141.175 47.8394 145.091ZM44.3944 148.738C43.3874 149.745 42.1718 150.248 40.7477 150.248C39.3235 150.248 38.1079 149.745 37.1009 148.738C36.0938 147.731 35.5903 146.515 35.5903 145.091C35.5903 143.667 36.0938 142.451 37.1009 141.444C38.1079 140.437 39.3235 139.934 40.7477 139.934C42.1718 139.934 43.3874 140.437 44.3944 141.444C45.4015 142.451 45.905 143.667 45.905 145.091C45.905 146.515 45.4015 147.731 44.3944 148.738Z" fill="#0D0938"/>
<mask id="path-26-outside-1_646_1159" maskUnits="userSpaceOnUse" x="110.657" y="108.355" width="115" height="78" fill="black">
<rect fill="white" x="110.657" y="108.355" width="115" height="78"/>
<path fill-rule="evenodd" clip-rule="evenodd" d="M179.839 130.156C179.839 136.673 174.568 141.956 168.066 141.956C161.565 141.956 156.294 136.673 156.294 130.156C156.294 123.639 161.565 118.355 168.066 118.355C174.568 118.355 179.839 123.639 179.839 130.156ZM138.664 145.58C133.448 145.58 129.221 141.37 129.221 136.178C129.221 130.985 133.448 126.776 138.664 126.776C143.879 126.776 148.106 130.985 148.106 136.178C148.106 141.37 143.879 145.58 138.664 145.58ZM196.587 145.58C201.803 145.58 206.03 141.37 206.03 136.178C206.03 130.985 201.803 126.776 196.587 126.776C191.372 126.776 187.145 130.985 187.145 136.178C187.145 141.37 191.372 145.58 196.587 145.58ZM190.646 173.963V174.611C190.646 175.377 190.025 175.999 189.259 175.999H147.002C146.236 175.999 145.615 175.377 145.615 174.611V173.167L122.766 172.703C121.601 172.703 120.657 171.758 120.657 170.593V157.161C120.657 151.179 125.506 146.33 131.488 146.33H133.973C135.55 147.903 137.131 148.69 138.716 148.69C140.301 148.69 141.896 147.903 143.501 146.33L150.047 148.177C153.068 144.93 157.38 142.898 162.165 142.898C162.165 142.898 165.167 145.86 168.131 145.86C171.094 145.86 174.043 142.898 174.043 142.898C178.576 142.898 182.684 144.715 185.68 147.659L191.854 146.33C193.46 147.903 195.054 148.69 196.639 148.69C198.224 148.69 199.805 147.903 201.382 146.33H203.868C209.849 146.33 214.699 151.179 214.699 157.161V170.593C214.699 171.758 213.754 172.703 212.589 172.703L190.646 173.963Z"/>
</mask>
<path fill-rule="evenodd" clip-rule="evenodd" d="M179.839 130.156C179.839 136.673 174.568 141.956 168.066 141.956C161.565 141.956 156.294 136.673 156.294 130.156C156.294 123.639 161.565 118.355 168.066 118.355C174.568 118.355 179.839 123.639 179.839 130.156ZM138.664 145.58C133.448 145.58 129.221 141.37 129.221 136.178C129.221 130.985 133.448 126.776 138.664 126.776C143.879 126.776 148.106 130.985 148.106 136.178C148.106 141.37 143.879 145.58 138.664 145.58ZM196.587 145.58C201.803 145.58 206.03 141.37 206.03 136.178C206.03 130.985 201.803 126.776 196.587 126.776C191.372 126.776 187.145 130.985 187.145 136.178C187.145 141.37 191.372 145.58 196.587 145.58ZM190.646 173.963V174.611C190.646 175.377 190.025 175.999 189.259 175.999H147.002C146.236 175.999 145.615 175.377 145.615 174.611V173.167L122.766 172.703C121.601 172.703 120.657 171.758 120.657 170.593V157.161C120.657 151.179 125.506 146.33 131.488 146.33H133.973C135.55 147.903 137.131 148.69 138.716 148.69C140.301 148.69 141.896 147.903 143.501 146.33L150.047 148.177C153.068 144.93 157.38 142.898 162.165 142.898C162.165 142.898 165.167 145.86 168.131 145.86C171.094 145.86 174.043 142.898 174.043 142.898C178.576 142.898 182.684 144.715 185.68 147.659L191.854 146.33C193.46 147.903 195.054 148.69 196.639 148.69C198.224 148.69 199.805 147.903 201.382 146.33H203.868C209.849 146.33 214.699 151.179 214.699 157.161V170.593C214.699 171.758 213.754 172.703 212.589 172.703L190.646 173.963Z" fill="#AAEFB2"/>
<path d="M190.646 173.963L190.073 163.98L180.646 164.521V173.963H190.646ZM145.615 173.167H155.615V163.368L145.818 163.169L145.615 173.167ZM122.766 172.703L122.97 162.705L122.868 162.703H122.766V172.703ZM133.973 146.33L141.036 139.25L138.109 136.33H133.973V146.33ZM143.501 146.33L146.216 136.706L140.639 135.133L136.501 139.188L143.501 146.33ZM150.047 148.177L147.332 157.801L153.208 159.459L157.367 154.989L150.047 148.177ZM162.165 142.898L169.189 135.78L166.268 132.898H162.165V142.898ZM174.043 142.898V132.898H169.889L166.957 135.842L174.043 142.898ZM185.68 147.659L178.671 154.791L182.515 158.569L187.784 157.435L185.68 147.659ZM191.854 146.33L198.854 139.188L195.011 135.422L189.75 136.554L191.854 146.33ZM201.382 146.33V136.33H197.247L194.319 139.25L201.382 146.33ZM212.589 172.703V162.703H212.302L212.015 162.719L212.589 172.703ZM168.066 151.956C180.113 151.956 189.839 142.174 189.839 130.156H169.839C169.839 131.172 169.024 131.956 168.066 131.956V151.956ZM146.294 130.156C146.294 142.174 156.02 151.956 168.066 151.956V131.956C167.109 131.956 166.294 131.172 166.294 130.156H146.294ZM168.066 108.355C156.02 108.355 146.294 118.138 146.294 130.156H166.294C166.294 129.139 167.109 128.355 168.066 128.355V108.355ZM189.839 130.156C189.839 118.138 180.113 108.355 168.066 108.355V128.355C169.024 128.355 169.839 129.139 169.839 130.156H189.839ZM119.221 136.178C119.221 146.934 127.966 155.579 138.664 155.579V135.58C138.93 135.58 139.221 135.806 139.221 136.178H119.221ZM138.664 116.776C127.966 116.776 119.221 125.421 119.221 136.178H139.221C139.221 136.549 138.93 136.776 138.664 136.776V116.776ZM158.106 136.178C158.106 125.421 149.361 116.776 138.664 116.776V136.776C138.397 136.776 138.106 136.549 138.106 136.178H158.106ZM138.664 155.579C149.361 155.579 158.106 146.934 158.106 136.178H138.106C138.106 135.806 138.397 135.58 138.664 135.58V155.579ZM196.03 136.178C196.03 135.806 196.321 135.58 196.587 135.58V155.579C207.284 155.579 216.03 146.934 216.03 136.178H196.03ZM196.587 136.776C196.321 136.776 196.03 136.549 196.03 136.178H216.03C216.03 125.421 207.284 116.776 196.587 116.776V136.776ZM197.145 136.178C197.145 136.549 196.854 136.776 196.587 136.776V116.776C185.89 116.776 177.145 125.421 177.145 136.178H197.145ZM196.587 135.58C196.854 135.58 197.145 135.806 197.145 136.178H177.145C177.145 146.934 185.89 155.579 196.587 155.579V135.58ZM180.646 173.963V174.611H200.646V173.963H180.646ZM180.646 174.611C180.646 169.855 184.502 165.999 189.259 165.999V185.999C195.548 185.999 200.646 180.9 200.646 174.611H180.646ZM189.259 165.999H147.002V185.999H189.259V165.999ZM147.002 165.999C151.759 165.999 155.615 169.855 155.615 174.611H135.615C135.615 180.9 140.713 185.999 147.002 185.999V165.999ZM155.615 174.611V173.167H135.615V174.611H155.615ZM122.563 182.701L145.412 183.165L145.818 163.169L122.97 162.705L122.563 182.701ZM110.657 170.593C110.657 177.281 116.078 182.703 122.766 182.703V162.703C127.124 162.703 130.657 166.235 130.657 170.593H110.657ZM110.657 157.161V170.593H130.657V157.161H110.657ZM131.488 136.33C119.983 136.33 110.657 145.656 110.657 157.161H130.657C130.657 156.702 131.029 156.33 131.488 156.33V136.33ZM133.973 136.33H131.488V156.33H133.973V136.33ZM138.716 138.69C139.639 138.69 140.363 138.931 140.797 139.147C141.185 139.34 141.252 139.466 141.036 139.25L126.911 153.41C129.592 156.085 133.564 158.69 138.716 158.69V138.69ZM136.501 139.188C136.265 139.42 136.313 139.311 136.678 139.131C137.086 138.93 137.796 138.69 138.716 138.69V158.69C143.845 158.69 147.813 156.106 150.501 153.472L136.501 139.188ZM152.762 138.552L146.216 136.706L140.786 155.954L147.332 157.801L152.762 138.552ZM157.367 154.989C158.577 153.69 160.271 152.898 162.165 152.898V132.898C154.488 132.898 147.56 136.169 142.726 141.364L157.367 154.989ZM162.165 142.898C155.142 150.017 155.143 150.018 155.145 150.02C155.146 150.021 155.148 150.023 155.149 150.024C155.151 150.026 155.154 150.028 155.156 150.031C155.161 150.036 155.166 150.041 155.172 150.046C155.183 150.057 155.194 150.068 155.207 150.081C155.232 150.105 155.26 150.132 155.292 150.163C155.356 150.223 155.433 150.296 155.523 150.379C155.702 150.544 155.935 150.753 156.216 150.991C156.768 151.458 157.557 152.084 158.525 152.723C160.131 153.784 163.658 155.86 168.131 155.86V135.86C169.015 135.86 169.554 136.07 169.644 136.105C169.755 136.149 169.717 136.147 169.548 136.035C169.396 135.934 169.248 135.819 169.145 135.731C169.098 135.692 169.074 135.669 169.077 135.672C169.079 135.674 169.089 135.683 169.107 135.701C169.116 135.709 169.127 135.72 169.141 135.733C169.148 135.74 169.155 135.747 169.163 135.755C169.167 135.759 169.171 135.763 169.175 135.767C169.177 135.769 169.18 135.771 169.182 135.773C169.183 135.774 169.185 135.776 169.185 135.777C169.187 135.778 169.189 135.78 162.165 142.898ZM168.131 155.86C172.621 155.86 176.144 153.77 177.755 152.693C178.722 152.047 179.508 151.415 180.058 150.942C180.337 150.701 180.57 150.49 180.748 150.323C180.838 150.239 180.915 150.165 180.978 150.103C181.01 150.073 181.039 150.045 181.064 150.02C181.077 150.007 181.088 149.996 181.099 149.985C181.105 149.979 181.11 149.974 181.115 149.969C181.118 149.966 181.12 149.964 181.122 149.962C181.124 149.96 181.125 149.959 181.126 149.958C181.128 149.956 181.129 149.954 174.043 142.898C166.957 135.842 166.959 135.841 166.961 135.839C166.961 135.838 166.963 135.837 166.964 135.836C166.966 135.833 166.969 135.831 166.971 135.829C166.975 135.825 166.979 135.82 166.983 135.816C166.991 135.808 166.999 135.801 167.006 135.794C167.02 135.78 167.031 135.769 167.041 135.76C167.06 135.741 167.07 135.731 167.073 135.728C167.079 135.723 167.058 135.743 167.015 135.78C166.919 135.863 166.782 135.971 166.641 136.065C166.485 136.17 166.46 136.165 166.587 136.114C166.693 136.072 167.242 135.86 168.131 135.86V155.86ZM174.043 152.898C175.849 152.898 177.469 153.61 178.671 154.791L192.689 140.527C187.899 135.819 181.303 132.898 174.043 132.898V152.898ZM187.784 157.435L193.958 156.106L189.75 136.554L183.576 137.883L187.784 157.435ZM184.855 153.472C187.542 156.106 191.51 158.69 196.639 158.69V138.69C197.559 138.69 198.269 138.93 198.678 139.131C199.043 139.311 199.09 139.42 198.854 139.188L184.855 153.472ZM196.639 158.69C201.791 158.69 205.763 156.085 208.444 153.41L194.319 139.25C194.103 139.466 194.17 139.34 194.559 139.147C194.992 138.931 195.717 138.69 196.639 138.69V158.69ZM201.382 156.33H203.868V136.33H201.382V156.33ZM203.868 156.33C204.327 156.33 204.699 156.702 204.699 157.161H224.699C224.699 145.656 215.372 136.33 203.868 136.33V156.33ZM204.699 157.161V170.593H224.699V157.161H204.699ZM204.699 170.593C204.699 166.235 208.231 162.703 212.589 162.703V182.703C219.277 182.703 224.699 177.281 224.699 170.593H204.699ZM212.015 162.719L190.073 163.98L191.22 183.947L213.162 182.686L212.015 162.719Z" fill="white" mask="url(#path-26-outside-1_646_1159)"/>
<path fill-rule="evenodd" clip-rule="evenodd" d="M132.621 133.819C132.621 139.011 136.849 143.221 142.064 143.221C147.279 143.221 151.506 139.011 151.506 133.819C151.506 128.626 147.279 124.417 142.064 124.417C136.849 124.417 132.621 128.626 132.621 133.819ZM136.183 139.664C137.806 141.281 139.766 142.089 142.062 142.089C144.359 142.089 146.319 141.281 147.942 139.664C149.564 138.049 150.375 136.1 150.375 133.817C150.375 131.534 149.564 129.585 147.942 127.97C146.319 126.354 144.359 125.545 142.062 125.545C139.766 125.545 137.806 126.354 136.183 127.97C134.561 129.585 133.75 131.534 133.75 133.817C133.75 136.1 134.561 138.049 136.183 139.664Z" fill="#0D0938"/>
<path fill-rule="evenodd" clip-rule="evenodd" d="M148.757 170.346H126.061C124.896 170.346 123.951 169.401 123.951 168.236V154.804C123.951 148.822 128.8 143.973 134.782 143.973H137.268C138.845 145.546 140.426 146.333 142.011 146.333C143.595 146.333 145.19 145.546 146.795 143.973H149.121C149.121 143.973 149.896 143.974 150.682 144.144C151.001 144.213 150.646 145.275 150.372 145.217C150.015 145.142 149.598 145.104 149.12 145.103L147.246 145.103C145.53 146.677 143.785 147.463 142.011 147.463C140.234 147.463 138.502 146.677 136.812 145.103H134.782C132.103 145.103 129.817 146.05 127.923 147.945C126.028 149.839 125.081 152.125 125.081 154.804V168.236C125.081 168.889 125.408 169.215 126.061 169.215H148.757V170.346Z" fill="#0D0938"/>
<path fill-rule="evenodd" clip-rule="evenodd" d="M208.713 133.819C208.713 139.011 204.486 143.221 199.271 143.221C194.056 143.221 189.828 139.011 189.828 133.819C189.828 128.626 194.056 124.417 199.271 124.417C204.486 124.417 208.713 128.626 208.713 133.819ZM205.152 139.664C203.528 141.281 201.568 142.089 199.272 142.089C196.975 142.089 195.016 141.281 193.392 139.664C191.77 138.049 190.959 136.1 190.959 133.817C190.959 131.534 191.77 129.585 193.392 127.97C195.016 126.354 196.975 125.545 199.272 125.545C201.568 125.545 203.528 126.354 205.152 127.97C206.773 129.585 207.584 131.534 207.584 133.817C207.584 136.1 206.773 138.049 205.152 139.664Z" fill="#0D0938"/>
<path fill-rule="evenodd" clip-rule="evenodd" d="M192.577 170.346H215.272C216.438 170.346 217.382 169.401 217.382 168.236V154.804C217.382 148.822 212.533 143.973 206.551 143.973H204.065C202.488 145.546 200.908 146.333 199.323 146.333C197.738 146.333 196.143 145.546 194.538 143.973H192.212C192.212 143.973 191.605 143.974 190.92 144.092C190.518 144.161 190.937 145.2 191.401 145.147C191.649 145.118 191.92 145.104 192.213 145.103L194.087 145.103C195.803 146.677 197.548 147.463 199.323 147.463C201.099 147.463 202.832 146.677 204.521 145.103H206.551C209.23 145.103 211.516 146.05 213.411 147.945C215.305 149.839 216.252 152.125 216.252 154.804V168.236C216.252 168.889 215.925 169.215 215.272 169.215H192.577V170.346Z" fill="#0D0938"/>
<path fill-rule="evenodd" clip-rule="evenodd" d="M182.525 127.8C182.525 134.318 177.255 139.601 170.753 139.601C164.251 139.601 158.98 134.318 158.98 127.8C158.98 121.283 164.251 116 170.753 116C177.255 116 182.525 121.283 182.525 127.8ZM178.076 135.146C176.053 137.174 173.612 138.187 170.752 138.187C167.892 138.187 165.45 137.174 163.427 135.146C161.403 133.118 160.392 130.669 160.392 127.8C160.392 124.931 161.403 122.482 163.427 120.453C165.45 118.426 167.892 117.412 170.752 117.412C173.612 117.412 176.053 118.426 178.076 120.453C180.1 122.482 181.112 124.931 181.112 127.8C181.112 130.669 180.1 133.118 178.076 135.146Z" fill="#0D0938"/>
<path fill-rule="evenodd" clip-rule="evenodd" d="M164.852 140.545H156.577C154.292 140.545 152.341 141.353 150.726 142.969C149.11 144.584 148.302 146.535 148.302 148.82V171.009C148.302 171.737 148.559 172.358 149.074 172.873C149.589 173.388 150.211 173.645 150.939 173.645H190.696C191.425 173.645 192.046 173.388 192.561 172.873C193.076 172.358 193.333 171.737 193.333 171.009V148.846C193.333 146.554 192.523 144.597 190.902 142.976C189.281 141.355 187.324 140.545 185.032 140.545H176.73C176.73 140.545 173.781 143.507 170.818 143.507C167.854 143.507 164.852 140.545 164.852 140.545ZM164.286 141.957H156.576C154.681 141.957 153.064 142.627 151.724 143.967C150.384 145.307 149.714 146.924 149.714 148.819V171.008C149.714 171.824 150.122 172.232 150.938 172.232H190.696C191.512 172.232 191.92 171.824 191.92 171.008V148.845C191.92 146.943 191.247 145.32 189.902 143.975C188.557 142.63 186.934 141.957 185.032 141.957H177.302C175.195 143.932 173.033 144.919 170.817 144.919C168.602 144.919 166.425 143.932 164.286 141.957Z" fill="#0D0938"/>
</svg>
