<svg width="177" height="180" viewBox="0 0 177 180" fill="none" xmlns="http://www.w3.org/2000/svg">
<path fill-rule="evenodd" clip-rule="evenodd" d="M131.857 2.91044C129.906 1.35009 127.483 0.5 124.985 0.5H40.8438C34.7686 0.5 29.8438 5.42487 29.8438 11.5V144.5C29.8438 150.575 34.7686 155.5 40.8438 155.5H142.844C148.919 155.5 153.844 150.575 153.844 144.5V25.7869C153.844 22.4453 152.325 19.2848 149.715 17.1973L131.857 2.91044Z" fill="#EBF4EC"/>
<path fill-rule="evenodd" clip-rule="evenodd" d="M135.986 7C138.909 7 141.511 7.91297 143.794 9.73892L161.653 24.0263C164.78 26.5281 166.344 29.7815 166.344 33.7864V152.501C166.344 155.952 165.124 158.899 162.683 161.339C160.243 163.78 157.297 165 153.845 165H51.843C48.3915 165 45.4455 163.78 43.0049 161.339C40.5643 158.899 39.344 155.953 39.344 152.501V19.499C39.344 16.0475 40.5643 13.1015 43.0049 10.6609C45.4454 8.22029 48.3915 7 51.843 7H135.986ZM135.986 10H51.843C49.2199 10 46.981 10.9274 45.1262 12.7822C43.2714 14.637 42.344 16.8759 42.344 19.499V152.501C42.344 155.124 43.2714 157.363 45.1262 159.218C46.981 161.073 49.2199 162 51.843 162H153.845C156.468 162 158.707 161.073 160.562 159.218C162.417 157.363 163.344 155.124 163.344 152.501V33.7864C163.344 30.7427 162.156 28.2703 159.779 26.3689L141.92 12.0815C140.185 10.6938 138.207 10 135.986 10Z" fill="#0D0938"/>
<path fill-rule="evenodd" clip-rule="evenodd" d="M162.909 30.9986L146.168 31.7264C144.036 31.8192 142.199 31.1274 140.657 29.651C139.115 28.1747 138.344 26.3692 138.344 24.2345V9.5C138.344 9.08579 138.49 8.73223 138.783 8.43934C139.076 8.14645 139.43 8 139.844 8C140.258 8 140.612 8.14645 140.904 8.43934C141.197 8.73223 141.344 9.08579 141.344 9.5V24.2345C141.344 25.5152 141.806 26.5984 142.731 27.4841C143.656 28.3699 144.759 28.7849 146.038 28.7293L161.199 28.0701L162.779 28.0014C162.977 27.9928 163.17 28.0225 163.357 28.0906C163.544 28.1586 163.711 28.2599 163.857 28.3943C164.004 28.5287 164.119 28.686 164.203 28.8663C164.287 29.0466 164.334 29.2361 164.342 29.4348C164.36 29.8487 164.229 30.2082 163.949 30.5136C163.67 30.8189 163.323 30.9806 162.909 30.9986Z" fill="#0D0938"/>
<rect x="50.8438" y="30.5" width="52" height="3" rx="1.5" fill="#0D0938"/>
<rect x="50.8438" y="45.5" width="80" height="3" rx="1.5" fill="#0D0938"/>
<rect x="50.8438" y="61.5" width="100" height="3" rx="1.5" fill="#0D0938"/>
<rect x="51.8438" y="76.5" width="60" height="3" rx="1.5" fill="#0D0938"/>
<rect x="52.8438" y="92.5" width="40" height="3" rx="1.5" fill="#0D0938"/>
<path fill-rule="evenodd" clip-rule="evenodd" d="M52.6676 137.142L62.9043 140.932C63.9226 141.309 64.339 141.194 64.1535 140.588L63.5947 138.762L63.2134 137.517C63.0907 137.116 63.3589 137.032 64.0178 137.264L74.4451 140.935C74.4955 140.953 74.5367 140.961 74.5689 140.961C74.6011 140.96 74.6218 140.951 74.631 140.932C74.6402 140.913 74.6371 140.887 74.6219 140.853C74.6066 140.819 74.5803 140.78 74.5429 140.736C74.5056 140.692 74.46 140.646 74.4062 140.599C74.3524 140.551 74.2945 140.505 74.2325 140.462C74.1705 140.418 74.1091 140.379 74.0483 140.346C73.9875 140.313 73.9319 140.287 73.8816 140.27L63.4543 136.599C62.4911 136.26 62.0992 136.383 62.2785 136.969L62.7844 138.621L63.2186 140.04C63.3456 140.455 63.0607 140.533 62.3639 140.275L53.5611 137.016L52.1273 136.485C52.0201 136.445 51.9551 136.443 51.9321 136.48C51.9091 136.516 51.9349 136.579 52.0095 136.67C52.0841 136.76 52.1856 136.852 52.3141 136.944C52.4427 137.036 52.5605 137.102 52.6676 137.142Z" fill="#0D0938" stroke="#0D0938" stroke-width="2"/>
<rect x="51.8438" y="146.5" width="69" height="3" rx="1.5" fill="#0D0938"/>
<rect x="91.8438" y="119.5" width="80" height="55.5556" rx="8" fill="#AAEFB2"/>
<path fill-rule="evenodd" clip-rule="evenodd" d="M172.399 123.387H101.287C100.06 123.387 99.0126 123.821 98.1448 124.689C97.2771 125.556 96.8433 126.604 96.8433 127.831V174.499C96.8433 175.726 97.2771 176.773 98.1448 177.641C99.0126 178.509 100.06 178.943 101.287 178.943H172.399C173.627 178.943 174.674 178.509 175.542 177.641C176.409 176.773 176.843 175.726 176.843 174.499V127.831C176.843 126.604 176.409 125.556 175.542 124.689C174.674 123.821 173.627 123.387 172.399 123.387ZM99.3233 125.867C99.8656 125.325 100.52 125.054 101.287 125.054L172.399 125.054C173.166 125.054 173.821 125.325 174.363 125.867C174.905 126.409 175.177 127.064 175.177 127.831V174.499C175.177 175.265 174.905 175.92 174.363 176.462C173.821 177.005 173.166 177.276 172.399 177.276H101.287C100.52 177.276 99.8656 177.005 99.3233 176.462C98.781 175.92 98.5099 175.265 98.5099 174.499L98.5099 127.831C98.5099 127.064 98.781 126.409 99.3233 125.867Z" fill="#0D0938"/>
<path fill-rule="evenodd" clip-rule="evenodd" d="M126.192 159.504C125.809 155.493 123.921 145.611 114.623 145.611C105.324 145.611 103.437 155.493 103.054 159.504C102.966 160.42 103.702 161.167 104.622 161.167H124.623C125.544 161.167 126.279 160.42 126.192 159.504ZM106.944 151.874C108.679 148.81 111.238 147.278 114.622 147.278C118.006 147.278 120.565 148.81 122.299 151.874C123.472 153.947 124.211 156.489 124.516 159.5H104.728C105.033 156.489 105.771 153.947 106.944 151.874Z" fill="#0D0938"/>
<rect x="134.621" y="135.057" width="20" height="1.66667" rx="0.833333" fill="#0D0938"/>
<circle cx="159.11" cy="154.447" r="1.11111" fill="#0D0938"/>
<rect x="134.757" y="153.546" width="20" height="1.66667" rx="0.833333" fill="#0D0938"/>
<rect x="134.621" y="147.832" width="31.1111" height="1.66667" rx="0.833333" fill="#0D0938"/>
<rect x="134.756" y="141.781" width="31.1111" height="1.66667" rx="0.833333" fill="#0D0938"/>
<rect x="134.621" y="159.215" width="31.1111" height="1.66667" rx="0.833333" fill="#0D0938"/>
<path fill-rule="evenodd" clip-rule="evenodd" d="M120.177 138.943C120.177 142.318 117.441 145.054 114.065 145.054C110.69 145.054 107.954 142.318 107.954 138.943C107.954 135.568 110.69 132.832 114.065 132.832C117.441 132.832 120.177 135.568 120.177 138.943ZM117.208 142.086C116.34 142.954 115.293 143.388 114.065 143.388C112.838 143.388 111.791 142.954 110.923 142.086C110.055 141.218 109.621 140.17 109.621 138.943C109.621 137.716 110.055 136.668 110.923 135.8C111.791 134.933 112.838 134.499 114.065 134.499C115.293 134.499 116.34 134.933 117.208 135.8C118.076 136.668 118.51 137.716 118.51 138.943C118.51 140.17 118.076 141.218 117.208 142.086Z" fill="#0D0938"/>
<circle cx="164.066" cy="135.611" r="1.11111" fill="#0D0938"/>
<circle cx="159.115" cy="135.611" r="1.11111" fill="#0D0938"/>
<circle cx="43.8438" cy="53.5" r="40" fill="white"/>
<circle cx="54.8438" cy="56.5" r="35" fill="#AAEFB2"/>
<path fill-rule="evenodd" clip-rule="evenodd" d="M82.8438 54.5C82.8438 73.83 67.1737 89.5 47.8438 89.5C28.5138 89.5 12.8438 73.83 12.8438 54.5C12.8438 35.17 28.5138 19.5 47.8438 19.5C67.1737 19.5 82.8438 35.17 82.8438 54.5ZM70.4712 77.1274C64.2228 83.3758 56.6803 86.5 47.8438 86.5C39.0072 86.5 31.4647 83.3758 25.2163 77.1274C18.9679 70.879 15.8438 63.3366 15.8438 54.5C15.8438 45.6634 18.9679 38.121 25.2163 31.8726C31.4647 25.6242 39.0072 22.5 47.8438 22.5C56.6803 22.5 64.2228 25.6242 70.4712 31.8726C76.7196 38.121 79.8438 45.6634 79.8438 54.5C79.8438 63.3366 76.7196 70.879 70.4712 77.1274Z" fill="#0D0938"/>
<path fill-rule="evenodd" clip-rule="evenodd" d="M62.5268 66.3376C62.0489 61.3333 59.6943 49.0073 48.0952 49.0073C36.4962 49.0073 34.1416 61.3333 33.6636 66.3376C33.5545 67.4802 34.4724 68.4118 35.6202 68.4118H60.5702C61.7181 68.4118 62.636 67.4802 62.5268 66.3376ZM38.5183 56.82C40.6819 52.9976 43.8742 51.0864 48.0952 51.0864C52.3162 51.0864 55.5085 52.9976 57.6721 56.82C59.1353 59.405 60.057 62.576 60.4373 66.3327H35.7531C36.1334 62.576 37.0551 59.405 38.5183 56.82Z" fill="#0D0938"/>
<path fill-rule="evenodd" clip-rule="evenodd" d="M55.0252 40.6911C55.0252 44.9012 51.6122 48.3142 47.402 48.3142C43.1918 48.3142 39.7788 44.9012 39.7788 40.6911C39.7788 36.4809 43.1918 33.0679 47.402 33.0679C51.6122 33.0679 55.0252 36.4809 55.0252 40.6911ZM51.3223 44.6114C50.2397 45.6939 48.933 46.2352 47.402 46.2352C45.871 46.2352 44.5643 45.6939 43.4817 44.6114C42.3991 43.5288 41.8579 42.222 41.8579 40.6911C41.8579 39.1601 42.3991 37.8533 43.4817 36.7708C44.5643 35.6882 45.871 35.1469 47.402 35.1469C48.933 35.1469 50.2397 35.6882 51.3223 36.7708C52.4048 37.8533 52.9461 39.1601 52.9461 40.6911C52.9461 42.222 52.4048 43.5288 51.3223 44.6114Z" fill="#0D0938"/>
</svg>
